<mxfile host="Electron" agent="Mozilla/5.0 (X11; Linux x86_64) AppleWebKit/537.36 (KHTML, like Gecko) draw.io/24.7.8 Chrome/128.0.6613.120 Electron/32.1.0 Safari/537.36" version="24.7.8">
  <diagram id="C5RBs43oDa-KdzZeNtuy" name="Page-1">
    <mxGraphModel dx="176" dy="102" grid="1" gridSize="10" guides="1" tooltips="1" connect="1" arrows="1" fold="1" page="1" pageScale="1" pageWidth="827" pageHeight="1169" math="0" shadow="0">
      <root>
        <mxCell id="WIyWlLk6GJQsqaUBKTNV-0" />
        <mxCell id="WIyWlLk6GJQsqaUBKTNV-1" parent="WIyWlLk6GJQsqaUBKTNV-0" />
        <mxCell id="zkfFHV4jXpPFQw0GAbJ--6" value="docker : flask_app" style="swimlane;fontStyle=0;align=center;verticalAlign=top;childLayout=stackLayout;horizontal=1;startSize=26;horizontalStack=0;resizeParent=1;resizeLast=0;collapsible=1;marginBottom=0;rounded=0;shadow=0;strokeWidth=1;fillColor=#fff2cc;strokeColor=#d6b656;movable=1;resizable=1;rotatable=1;deletable=1;editable=1;locked=0;connectable=1;" parent="WIyWlLk6GJQsqaUBKTNV-1" vertex="1">
          <mxGeometry x="320" y="200" width="160" height="80" as="geometry">
            <mxRectangle x="130" y="380" width="160" height="26" as="alternateBounds" />
          </mxGeometry>
        </mxCell>
        <mxCell id="zkfFHV4jXpPFQw0GAbJ--7" value="REST api&#xa;CRUD&#xa;" style="text;align=left;verticalAlign=top;spacingLeft=4;spacingRight=4;overflow=hidden;rotatable=1;points=[[0,0.5],[1,0.5]];portConstraint=eastwest;movable=1;resizable=1;deletable=1;editable=1;locked=0;connectable=1;" parent="zkfFHV4jXpPFQw0GAbJ--6" vertex="1">
          <mxGeometry y="26" width="160" height="34" as="geometry" />
        </mxCell>
        <mxCell id="zkfFHV4jXpPFQw0GAbJ--17" value="docker :Â flask_db" style="swimlane;fontStyle=0;align=center;verticalAlign=top;childLayout=stackLayout;horizontal=1;startSize=26;horizontalStack=0;resizeParent=1;resizeLast=0;collapsible=1;marginBottom=0;rounded=0;shadow=0;strokeWidth=1;fillColor=#fff2cc;strokeColor=#d6b656;movable=1;resizable=1;rotatable=1;deletable=1;editable=1;locked=0;connectable=1;" parent="WIyWlLk6GJQsqaUBKTNV-1" vertex="1">
          <mxGeometry x="600" y="200" width="160" height="80" as="geometry">
            <mxRectangle x="550" y="140" width="160" height="26" as="alternateBounds" />
          </mxGeometry>
        </mxCell>
        <mxCell id="ClelGoMlx5Aai7uzwyuV-3" value="" style="endArrow=classic;html=1;rounded=0;fillColor=#d5e8d4;strokeColor=#82b366;endFill=1;movable=1;resizable=1;rotatable=1;deletable=1;editable=1;locked=0;connectable=1;entryX=0;entryY=0.5;entryDx=0;entryDy=0;" parent="WIyWlLk6GJQsqaUBKTNV-1" edge="1" target="zkfFHV4jXpPFQw0GAbJ--17">
          <mxGeometry width="50" height="50" relative="1" as="geometry">
            <mxPoint x="480" y="240" as="sourcePoint" />
            <mxPoint x="600" y="231" as="targetPoint" />
          </mxGeometry>
        </mxCell>
        <mxCell id="xmYslGfnYeSJVkTAlM8o-6" value="5432/tcp" style="edgeLabel;html=1;align=center;verticalAlign=middle;resizable=1;points=[];movable=1;rotatable=1;deletable=1;editable=1;locked=0;connectable=1;" vertex="1" connectable="0" parent="ClelGoMlx5Aai7uzwyuV-3">
          <mxGeometry x="-0.824" y="2" relative="1" as="geometry">
            <mxPoint x="59" y="2" as="offset" />
          </mxGeometry>
        </mxCell>
        <mxCell id="ClelGoMlx5Aai7uzwyuV-7" value="" style="endArrow=classic;html=1;rounded=0;endFill=1;fillColor=#e3c800;strokeColor=#B09500;movable=1;resizable=1;rotatable=1;deletable=1;editable=1;locked=0;connectable=1;exitX=1;exitY=0.558;exitDx=0;exitDy=0;exitPerimeter=0;entryX=0;entryY=0.414;entryDx=0;entryDy=0;entryPerimeter=0;" parent="WIyWlLk6GJQsqaUBKTNV-1" source="ClelGoMlx5Aai7uzwyuV-20" target="zkfFHV4jXpPFQw0GAbJ--7" edge="1">
          <mxGeometry width="50" height="50" relative="1" as="geometry">
            <mxPoint x="210" y="230" as="sourcePoint" />
            <mxPoint x="300" y="238" as="targetPoint" />
          </mxGeometry>
        </mxCell>
        <mxCell id="xmYslGfnYeSJVkTAlM8o-2" value="5000-&amp;gt;5000/tcp" style="edgeLabel;html=1;align=center;verticalAlign=middle;resizable=1;points=[];movable=1;rotatable=1;deletable=1;editable=1;locked=0;connectable=1;" vertex="1" connectable="0" parent="ClelGoMlx5Aai7uzwyuV-7">
          <mxGeometry x="0.7566" y="-3" relative="1" as="geometry">
            <mxPoint x="-45" y="-3" as="offset" />
          </mxGeometry>
        </mxCell>
        <mxCell id="ClelGoMlx5Aai7uzwyuV-8" value="" style="ellipse;whiteSpace=wrap;html=1;fillColor=none;strokeColor=#B09500;movable=1;resizable=1;rotatable=1;deletable=1;editable=1;locked=0;connectable=1;" parent="WIyWlLk6GJQsqaUBKTNV-1" vertex="1">
          <mxGeometry x="220" y="90" width="80" height="290" as="geometry" />
        </mxCell>
        <mxCell id="ClelGoMlx5Aai7uzwyuV-10" value="Exposed network" style="text;html=1;align=center;verticalAlign=middle;whiteSpace=wrap;rounded=0;fillColor=#fff2cc;strokeColor=#d6b656;movable=1;resizable=1;rotatable=1;deletable=1;editable=1;locked=0;connectable=1;" parent="WIyWlLk6GJQsqaUBKTNV-1" vertex="1">
          <mxGeometry x="200" y="50" width="110" height="30" as="geometry" />
        </mxCell>
        <mxCell id="ClelGoMlx5Aai7uzwyuV-11" value="backend network&amp;nbsp;" style="text;html=1;strokeColor=#82b366;fillColor=#82B366;align=center;verticalAlign=middle;whiteSpace=wrap;rounded=0;movable=1;resizable=1;rotatable=1;deletable=1;editable=1;locked=0;connectable=1;" parent="WIyWlLk6GJQsqaUBKTNV-1" vertex="1">
          <mxGeometry x="490" y="49" width="110" height="30" as="geometry" />
        </mxCell>
        <mxCell id="ClelGoMlx5Aai7uzwyuV-20" value="Routes:&amp;nbsp;&lt;br&gt;http://localhost:5000/api/hello&lt;div&gt;http://localhost:5000/api/db_check&lt;br&gt;&lt;/div&gt;" style="text;html=1;strokeColor=#666666;fillColor=#f5f5f5;align=center;verticalAlign=middle;whiteSpace=wrap;rounded=0;fontColor=#333333;movable=1;resizable=1;rotatable=1;deletable=1;editable=1;locked=0;connectable=1;" parent="WIyWlLk6GJQsqaUBKTNV-1" vertex="1">
          <mxGeometry y="201" width="199" height="70" as="geometry" />
        </mxCell>
        <mxCell id="gStbq9sz3zaX1a0N_Y_u-0" value="" style="ellipse;whiteSpace=wrap;html=1;fillColor=none;fontColor=#ffffff;strokeColor=#2D7600;movable=1;resizable=1;rotatable=1;deletable=1;editable=1;locked=0;connectable=1;" parent="WIyWlLk6GJQsqaUBKTNV-1" vertex="1">
          <mxGeometry x="520" y="90" width="60" height="290" as="geometry" />
        </mxCell>
        <mxCell id="c1gprHzyJphH8RitFeNw-0" value="" style="shape=image;verticalLabelPosition=bottom;labelBackgroundColor=default;verticalAlign=top;aspect=fixed;imageAspect=0;image=data:image/png,iVBORw0KGgoAAAANSUhEUgAAAyAAAAQECAYAAACC6n/GAAAgAElEQVR4Xuy9jdUsOXV/7TcC/4nATQSYCNxEwBCB2xHMEAHtCIAI3EQwEIGbCDAR0BPBmAh4z2ZanpqiqqSqUn321lpaz71P6+NoS33v+ZWOVP/fP5m2IvD/ouN/i/yv78zfL+/ctOl/4y//8/7FM36+Iv/x/XMr2+1XAhKQgAQkIAEJSEACkwj8f5NqWWkqAcTGv0e+vkXH1HaohxD5feTfNQTKnPasKwEJSEACEpCABCQggcUJKEAWR/z3DhAdX1UQHX3WskPym7cYWWdE9iIBCUhAAhKQgAQkIIEJBBQgE6CNqHKNsv8V+VJY589RDjHxapX/Iv7+k4I2qPfLyOyMmCQgAQlIQAISkIAEJLA7AgqQZaaE8xwID4RDLn3zFgzsYLSFR7MubdLePfK/ZBpFgPxHZM6PmCQgAQlIQAISkIAEJLAbAgqQ+lPBOY+vI18Kmv7tW1CMFQq3qIdg+eeBPl7x2S8ipwPsBeZYRAISkIAEJCABCUhAAssSUIDU5Yv4+O/I7FYMpb/Gh+xmPGd0Tx/sdHCTVl9C2PxMETKDslUlIAEJSEACEpCABKoSUIDUwzlGfFwrigJETE6E/DTKvOoN1ZYkIAEJSEACEpCABCQwjYACZBq3rlp/il8iQoYSOx81xQd9sROCuBgKxyIMi52QsaFe9ejYkgQkIAEJSEACEpCABIKAAqTOMrhHM78qaIozGUvcUEU4F+dOhtJ/xofYaZKABCQgAQlIQAISkMBmBBQg89GzA/GXyLlzHxw4510gS6VnNDwUikW/P478WsoA25WABCQgAQlIQAISkECOgAIkRyj/+S2KcOXuUCL06hJ5yRAo2kcIDaWlRVCeliUkIAEJSEACEpCABD6agAJk/vQ/o4nczsNa4U+PsIW3rvclBNCP5g/ZFiQgAQlIQAISkIAEJDCNgAJkGrdmrb9lmlhj9yOZwCF4DsMPpaXOocwnaQsSkIAEJCABCUhAAqcnoACZN8UlDv/aYU/cePWTgWGtbc88wtaWgAQkIAEJSEACEjgVAQXIvOm8RnVePLinHQdu2fr5gEF/jM+w2yQBCUhAAhKQgAQkIIHVCShA5iEvESBrM/5NDOnLgWF5DmTenFtbAhKQgAQkIAEJSGAGgbWd4xmm7rJqToBssdvATViXDC3nfZfLSaMkIAEJSEACEpDA+QnoiM6bY9798e1AE30ChLMjfW8u/3N8NuW6XmzhOmBeSphLznuOkJ9LQAISkIAEJCABCSxCQEd0PlbEQp+Y+F18dnt3gUDgben8PffSwmTV8/2HV/wk96VrfEAuTc57KSnLSUACEpCABCQgAQlUJaAjOh/n0KHv5g7II7oaekfHfEvKW3Dey1lZUgISkIAEJCABCUigIgEd0fkwb9FE35vQmwKEUK3SnY/5VvW38E18dFmyA9uWgAQkIAEJSEACEpBAHwEFyPy1MXQOpHnj1Cu6+pf53c1uYYuD8bONtgEJSEACEpCABCQggXMQUIDUmcdHNNMXXvXT+IyXAw6VqWNFWSv/GcXuZUUtJQEJSEACEpCABCQggboEFCB1eF6jmb4XEqY3jw+VqWNFWSu/iGKcWzFJQAISkIAEJCABCUhgdQIKkHrIn9HUv3U0RxjWjyPzk52Qn9TrclJL2PKaVNNKEpCABCQgAQlIQAISmElAATITYKM67/b4U09z7Diw83CN3LdTUs+S/pZ4xwh2miQgAQlIQAISkIAEJLAJAQVIXeyPaK7vLMh/xGd8PlSmrjX/2Nov41e/WboT25eABCQgAQlIQAISkEAfAQVI3bXBjVivyH0vJrzHZ5wJIRRrixux0oH4uqO2NQlIQAISkIAEJCABCRQSUIAUghpR7Iso+/VA+Wd8xhvS+94dMqKrUUUNvxqFy8ISkIAEJCABCUhAAksQUIAsQbUszIpD6Wu+mDCFgC0zYluVgAQkIAEJSEACEpBAAQEFSAGkiUX2cONVMv2vK4udicisJgEJSEACEpCABCRwdgIKkOVm+BJNI0L6zoMs1/M/tuzLB9ekbV8SkIAEJCABCUhAAr0EFCDLLo6hq3mX7fmHrf8s/vpcs0P7koAEJCABCUhAAhKQQBcBBcjy6+IWXax94Lw9Kl8+uPw824MEJCABCUhAAhKQQAEBBUgBpApFECG8f2OrcCznucIk2oQEJCABCUhAAhKQwHwCOqbzGZa2wI1Xj8g/L61QsZzzXBGmTUlAAhKQgAQkIAEJTCegYzqd3dSavCcEIbLmbojzPHW2rCcBCUhAAhKQgAQkUJWAjmlVnMWNrb0b4hvQi6fGghKQgAQkIAEJSEACSxJQgCxJN982OyH/ni82u4S3YM1GaAMSkIAEJCABCUhAAjUIKEBqUJzXxi2qL31Llm9BnzdH1paABCQgAQlIQAISqERAAVIJ5Mxmlt4JeYZ97IKYJCABCUhAAhKQgAQksCkBBcim+H/QOSLh3xY0x3eBLAjXpiUgAQlIQAISkIAEyggoQMo4rVGKg+mvyEvdjvXbaPurNQZiHxKQgAQkIAEJSEACEugjoADZ19q4hzm/WtCkX0Tbv1+wfZuWgAQkIAEJSEACEpDAIAEFyL4WyCXM+cuCJv1vtM1ZkP9ZsA+bloAEJCABCUhAAhKQQC8BBcj+FscrTPqXhc0iFIuQLJMEJCABCUhAAhKQgARWJaAAWRV3UWfPKLXkYfRkBLsgv4n8uyKrLCQBCUhAAhKQgAQkIIEKBBQgFSBWbmItAZLMfsUf6JP8x8j8vUa6RCPtnRwO2v9rR+P0TfqmYv81xmAbEpCABCQgAQlIQAKVCShAKgOt0Ny30QaO+pbp1RACnBtpnxm5dhh3id+Ra6Tnu092ZzyvUoOobUhAAhKQgAQkIIGdEFCA7GQi3mbgwC95CH1foy2zBgHyy8iIEpMEJCABCUhAAhKQwMEJKED2NYH3MGfJa3j3Ndpx1sDmP8dVsbQEJCABCUhAAhKQwN4IKED2NSPsflz2ZdKurGEnhIPzJglIQAISkIAEJCCBgxJQgOxn4u5hirsf+fn4aRTxXEiekyUkIAEJSEACEpDALgkoQPYxLdwM9ad9mLJ7KziYftu9lRooAQlIQAISkIAEJNBJQAGy/cLgxivEx2WGKX+NuvfICJl/n9HOEapyK9ePjmCoNkpAAhKQgAQkIAEJ/CMBBci2qwLx8d9v4TDVEnYEeLM5jjltXac2dKB6CBDGa5KABCQgAQlIQAISOBgBBch2E1ZDfPxHmP94D+GL+Pl15eH8Odr7fWTOXHQ5/Jf4Pbsu9N1+6WBlU37Q3M/ib88lO7BtCUhAAhKQgAQkIIFlCChAluGaa7WG+EhnIVLY1S06rfUCwz9EW+yqvHIDaXx+jT9zQ9VPRtSZWlQBMpWc9SQgAQlIQAISkMDGBBQg609ADfGxpNXNXZWx/TA2RMs/j604srwCZCQwi0tAAhKQgAQkIIG9EFCArDsT7FZwTqPWTkVt6+feMLXWbV5exVt75m1PAhKQgAQkIAEJrERAAbIS6OjmFvnXOxYfkJi6s3CJul9GJmxrjeS6XYOyfUhAAhKQgAQkIIEFCOjILQC1o0mEx1rO+ZwR/TgqvwoaYAfn3yJf35mdj7XSH999rtWf/UhAAhKQgAQkIAEJVCSgAKkIs6OpS/yOm6nWdNDnjOjRIUCeb/sRHQgOxkTeKv02Oj6CmNuKj/1KQAISkIAEJCCBXRNQgCw3PVxN+1+R93reY7mRL9vyL6J5rgY2SUACEpCABCQgAQkckIACpP6kITh+5VP6+mDfLfoSwsXQ2rAEJCABCUhAAhJYnoACpC5jQq3Y9ThKyFXd0S/fGu8nYWfJJAEJSEACEpCABCRwUAIKkHoTxy1QvIjPtByBOe8oWc4qW5aABCQgAQlIQAISKCagAClG1VuQkCt2PXwyP5/lUAt/jQ8vkf932W5sXQISkIAEJCABCUhgSQIKkHl0r1GdW648aD6PY0lthAfvKfmfksKWkYAEJCABCUhAAhLYJwEFyPR54aD5fXp1a04goAiZAM0qEpCABCQgAQlIYE8EFCDjZ8OQq/HMatZQhNSkaVsSkIAEJCABCUhgZQIKkHHAveVqHK+lSiNCOJDu+0CWImy7EpCABCQgAQlIYCECCpBysIiP/47seY9yZkuX5NaxXy7die1LQAISkIAEJCABCdQjoAApY6n4KOO0RSkOpSNCnlt0bp8SkIAEJCABCUhAAuMIKEDyvBQfeUZ7KPEII/4z8msPxmiDBCQgAQlIQAISkEA3AQXI8Mog3OovkQ27Os43CCHy28he13ucOdNSCUhAAhKQgAQ+iIACZHiyOfNx/aD1MDRUXgT4zwdigQDhjMgfIvvywgNNnKZKQAISkIAEJHBuAgqQ/vlFeCBATN8R+Onbkf8qfvLW9385EBhuyyL/MfLrQHZrqgQkIAEJSEACEjgdAQVI/5Q+46N/O92MTxvQn6MaZ2Ga6foWIkcTI+yMMLdkxqUgmbYmrCUBCUhAAhKQgAQmEVCA9GP7Nj7y7Md3fDjcfR9YYYgThAj5J5NW4naVECCIkiRMvlGUbDcZ9iwBCUhAAhKQwPkJKED65/hv55/+4hHmBEizIUQbQuT6/nmkcyPNcTzfQgSBwp85A+PB9uIlY0EJSEACEpCABCTQTUAB0r8ycDaP9jR/qXX+i2h46lvHkxA5WqhWH0vWBYfamwKFsyUmCUhAAhKQgAQkIIECAgqQfki3+Oi/Chh+QpExOyBDPAjVQpBwkP1Ih9hL5vgVhcgIE0SK50tKqFlGAhKQgAQkIIGPI6AAGZ7yR3z87x+3Kv5xwLUESLNlxMjtnY8appVbGkmQIEq8gStHy88lIAEJSEACEvgIAgqQ/DQTevTzfLFTl+BdGoRQLZVom12Rs986xs7IIzI8EScmCUhAAhKQgAQk8HEEFCBlU45z/OuyoqcsxZmHH60wMnZF7pE/QfAhbHlj+3MFrnYhAQlIQAISkIAEdkNAAVI+FZ++E8KLCNe6Ber6FiJn3xFh9SFACHFTiJR/Fy0pAQlIQAISkMCBCShAyiePMKGvy4ufriRP69kJWjPR3z3yWc+INFn+5i1E2G0ySUACEpCABCQggdMSUICMm9pXFD/b7U2lBNYKw2rbQ1jWI/InXInMDtPPIitCSlel5SQgAQlIQAISOBwBBci4KeMp9Zfjqpyq9H+8xcDag/p/0eFTEbI2dvuTgAQkIAEJSEAC9QkoQMYx/fQwrFfg+vE4ZNVKf5oI4cyNSQISkIAEJCABCZyOgAJk/JT+bXyVU9XYahcEiIgQRNAnnAlZ4t0rp1qIDkYCEpCABCQggWMSUICMnzfi9D/hPEIfGQQAT+eXOqeAyPjvyJz9eEbm9rHmezM+aReK3SZ4myQgAQlIQAISkMBpCChAxk/lp1/HC7Elb8S6vgVIe2Ye8YvfvUXJp4hAxnsbv0StIQEJSEACEpCABPZLQAEyfm7uUeVX46vtrsafG8786/3nZCS7DDj8Q6FO3Nb0XGhUQ2Fu9PlN5H9fqO+9NcsLIJfabdrbWLVHAhKQgAQkIIEPIKAAGT/JRxUgSXDgwJNzTm3u+ltEy1KhWLT9qdcdt1fkL+IX7LqZJCABCUhAAhKQwCkIKEDGT+NRBAi7BEls4MDmBEcXCc5jPCL/vAcT7eIg106fft1xk+eS4W615832JCABCUhAAhKQQJaAAiSL6B8K7FmAsMuBKCBzTqJWGhIES9zWdA3DOYhu+qd/+mNAgIdJAhKQgAQkIAEJnIKAAmT8NO5NgHBD1PMtOl7jh1Nc4xYl/6un9BJX87Jj8wnX7eYmgDnd6t0rOdv8XAISkIAEJCABCYwmoAAZjezvIUlbH4BGdKSdjimhVeNH/V2NIRHCeZCauy7eNvb9LPk9nbpirScBCUhAAhKQwO4I6NiMn5JnVPm38dVm1yC8CvGDY/6a3dr0BvrCsRBC3IxVS4QMiZ3p1h+zpt/TY86bVktAAhKQgAQk0EFAx2b8svhLVLmMrzapxl/fogPhkXPsubWKkCVsy9mHgEkihj5ybTeN52D6tz2jQYRwKP05abQ/rHSNv3oO5DsmsECArrnbVWEKbUICEpCABCQgAQn8IwEFyLhVcYniCJClE84mOw2Pno4QAezC8L4OhAe5RkKI4OS+3pk20+9S+7f4A3ko1TgTMiR0aoz1qG2k+XjGAMgKk6POpHZLQAISkIAEPpSAAmTcxH8VxX89rsqo0tx4dH87ll0Vr/FLzp/kBMCoThcqjID65cy2h15IOLPpU1VHlCBGeHP6mN2sU0FwMBKQgAQkIAEJHIOAAmTcPC15MBpnHae9K7HDgfBBgBwp4RSzG/KaYDRj/tOEelOq8M4UbExhbFPa2EsdxvGIzPtDDNnay6xohwQkIAEJSEAC/0dAAVK+GC5RdMnwq1uHo04Y0jUyOy9HTTjB97dDPGYM1PnVmAqZsogMdgfSbgF29e0WENqGGDz629gfb+7uilRcSDYlAQlIQAISkMA8AgqQcn44c1tfv1tu7f5K4gTj1BMmlEu3KND3zpFc3fQ5ZyOe70zfr9KK73KX+Lmk4BxpzqzicOCFkfw0SUACEpCABCQggU0JKEDK8J/JGS0b8XKlEAKEsuEMswuBUPjJuztCoG6RpxyqZ4eDNsm0XyP86GxnUOBCqB9zYJKABCQgAQlIQAKbEFCAlGF/RDF3P8pYrVlq6bfAn02ApLm5xx88I7LmSrUvCUhAAhKQgAT+j4ACJL8YrlHE91HkOa1RIu1y8CSfvGS6ReNzw8CWtG9u2+wQcUHA0hzn2ml9CUhAAhKQgARORkABMjyhl/iYm5g4DG7ahgAhWklwrHmYes0XTm5D9rteDcvakr59S0ACEpCABD6QgAJkeNIRH1POI3zgUqo6ZEKr0jmRV9WWyxq7R7GaN3CV9bpdqak3lW1nsT1LQAISkIAEJHBYAgqQ7qljx4P3btwOO7PHMvyvb8HRPJy+1QgQnITcfeKu1zPG/YvINQ7wbzV/9isBCUhAAhKQwM4JKED+cYJwPHFA3flYdvGma3If0c2aoVVDo3LuvxMfng1Zdu3bugQkIAEJSOCjCShAfjj9iA4OHis+lvlabBlahbggvwaGxtzflhn64VplNwoh4m7I4aZOgyUgAQlIQAL7JqAA+X5+vow/3t9O6r5n7TjWpV2OFFq1teWX9/z27bgw/5909iM3H4gPQrKeuYJ+LgEJSEACEpCABEoJKED+6Z+uAYvzHu56lK6a/nLNt4/jtO7x6TnzjQDpsw2x9PP5KE7Vwm9iNLxJfY/zeSrQDkYCEpCABCTwCQQ+WYAgONj1uH3CRFccIyIjOaI48q+3Q4/gOEoiFKvPmeYzxpLezn6UMS1tJ/NMSNaR5nlpJrYvAQlIQAISkMAEAp8mQHAueaP5V5EvE3h9apU9HhifMxesg2tkdju6EuIUR/uf53Ry0rqeDTnpxDosCUhAAhKQwFoEzi5AcDR5ko2ziVP5xVpgD94P1+LigJNxOF8HH0+X+YQVsYPz6Bkba+XrE467xpDYPbpH/m2NxmxDAhKQgAQkIIHPInAmAXKJqfuXyNfIiA0yvzOVEfhjFHs2clmt+aX+7T1P9P+a31xxC6wPXjRJWNGjpxYihTA9UzcB5use+XcCkoAEJCABCUhAAqUEjixALm/nEEfyWjpgy/0fga0ER3MK2m+aX/uw89/exgyJEHZJPA8y/MV5xsccUuenSQISkIAEJCABCQwSOJoASWc4bjEqhIepnMDebqhiDnnvRjvh8P8s8ho3LuEwswND6hMhl/gMmzwPkl9rryhyj+yOSJ6VJSQgAQlIQAIfS+BIAoT3M3B4HBFiyhPYm+BoW8zZkr7rbtcSIW0b+kTILWztEkv5WfjMEohH2CJEnp+JwFFLQAISkIAEJNBH4AgChMPAvKfj4jQOEti74Ggbj2Oadh+6BraGCLlHx+0XD/I7wonG2uvy7CbweosQ5nvtcz7OiQQkIAEJSEACOySwdwHCU+fbDrntwaRv3o4dT5px7qaGLF2iLof3SewuDYW24UySSTiTcxI2DwkQ2n5EZldiqXSPhrvefE6/v4zcZHqJv/9lKUM+qN20hhCY8OUn4pnfmyQgAQlIQAIS+AACexUgOMKID3Y/TN8R4GrcJDaeIx22dNPUJepd30ARGnPD2ZIDiROJTYiSUiFE+ZwAwdShA+Jz18Y9GugSILTLmH7R4vyIv/MeGVN9AqxtrvVlXZgkIAEJSEACEjgxgT0KEJzi/47sIfPvHPokOnCIcwl2zfeewPCSq1T5c+xM8f+vgbZ/E5+VXHGLoPlp5KG2pg7hHhX7BAht0jc7IY93B/Dk5i7TcgSYZ9YG50dKxexy1tiyBCQgAQlIQALVCexRgCA+rtVHeowGCatKgoOfuXSJAuwiwAvneG+i7Rk2Pd7OZHsst/hF6cFu2uFmrNoJ20p2NOgfp5hQIcOwas9Cf3tp7cDfJAEJSEACEpDASQjsTYCUPhU/Cf6/D+MPkXGwEByvzMAu8XkSHNf4M38/QmJc7CQ0RRW7Nd+OMH6JUCy4l4SBjTDTogsQYP3wbwPfldx3ZIHubVICEpCABCQggZoE9iRAcKjZ/fiEhCOFM07OhZlwVe0XkeFzOTicZ9iPEEnhZPwsfckfjiehWDleYxClFxGOqXPWsuzutNkyP0O8mRNyV0Jg5nbkWNPNVCIG0/fGd42cdSU6LglIQAISOD2BPQkQQlsuJyZeKjpggOjAOUN4nDGl3YxbDK40DAsOXI97rwTk7Oc50i1lr+BFJjX/jLBIQrAS0qrNIGCwL93Q1m4c+xEjHFzf8ziqQrExCUhAAhKQwBkI7EWA3ALmGEf0KOy5uYrQkUfDCeyyHWeYswjXyLmnxkcZe85OmLAb8opc+pZxnE7OgtRwOL+Kdni/zBFTEhfPt/Fpp2LvomIs61KRyBpKYoQ/myQgAQlIQAIS2DGBvQiQM+5+8GT2HrkvhKW5y3HZ8RpZ0jQcZ5zpktuwkh04mDVCsbjNaq9ij8sIGGfKSWDkQqKWnKut2uY7NHRTWdsuGD0ie4vWVjNmvxKQgAQkIIEMgT0IkNKnnEeaTOLpu5zbdJ6D0CpCTEzfHcBHUJTugsAMJ5OdkD5xl+N6jQJ7OG+U3pvCeJK4gEc7sZZq7PrkuOzx80sYNfXmMXZFHpEJfzRJQAISkIAEJLATAnsQIIQojXkCvhN0WTNwGHGAXpGvkRUdWWSjCsCWFwVOSWtf9YzQYD2wFtJP/jyUEKiEiN0ahVKY0XPKoA9c5xG2l1yX3DdEhGpi96lC7sDTr+kSkIAEJHA2AnsQIHsOhTnbfJ9tPDjiiJAxOyEIwa8XAsHOVxIY2PZ65yndDYkkRDvnZz4l1Zwz5gR+Xun7KavHcUpAAhKQwO4I7EGAeBXq7pbFoQzC4UeE4FjmEqFMOPZzw9+4XCCFTTV/5vov/fwWBXOXMjzf4x4jvkr731s55mvMO2NK7WdXhOyVvqXELCcBCUhAAhKoQEAB0g2RkJmSdxJUmAKbqEAAJ/wemYP/fWmq+EhiA4c/iY1XBZuHmii9lAF7OD9TK13e656fJLjuZacA5n1X8s4dP+N8vNfP0nM711brS0ACEpCABA5PYGsBcg2CWx8GJmzm+c4pfIaJJUyH0A/TcQjgPDbDa3hyzosOb+9cMpIURpXWxNoOKUKJsMTS9IiCvFdlTrpGZW6a4mc74Zwjctbm0LaD+VjjoQD9wNRdkTkryroSkIAEJCCBAQJbCxBMWzsEiytOcTIIveBnO4TlEr8j/OXqyvkIAux2sQ4Qn13rYW0I9+hwzLWz2Jde7DjWVtY6B91zQpvzJgi7LRNzs4YASWPk3wXGjBB5bTlw+5aABCQgAQmcjcCnCBCeaj8i48TgaHYlnpZzG9dXkeeeETjbOjnLeAinYg2kdcDPvSWEMdc1j0k4yz+OPOY8SGlIGt+d68i2x9heWpa5WlOANO16xF8QIntcL6X8LCcBCUhAAhLYDYE9CJClHAuczXtkHLrXAHGFx26WY3VDmoIjtw6qdz6xwanfB86/IJ5LUqn4wOmmzTHCpqT/KWVKz8VMabu0DnPziGx4Vikxy0lAAhKQgAQ6COxBgODgEAZSM3Fw9pZxnC7xOe8WcMejJvnt2+KJfQqvw2E8WpoTksguyCsz4Jz4QLTB717Q1pps53CpbSeM4aMQqU3W9iQgAQlI4CMI7EGAsAPBf+hj3oTdNzmc70BQ4ED1pWt8gPC4fcQMn3+QzHlTcOzhaf0c6nMc7dxZDb5rXPqACGmm5rmooe/OnHHNqct3duvLKrrs59+te2SFyJzZta4EJCABCXwcgT0IEKBzCHbOy+F4asuBUXKXA4rjRVw94qTtfH3cpB98wCmsKokOnMAzpTkChAP1OOt9CWeZ78Az8v80fu5dtPG95nzWXhNrELYKkb3OkHZJQAISkMCuCOxFgABlSihWLlwE0YG4ue2KusaMJdDc5djjE/qx4xkqP0eA0G7fdxrhna733dP3voTdHs5/lNiJEGEX6uxrtISFZSQgAQlIQAK9BPbmiCAWeNqZe+FYutXqEWXbT2+T6KAtdj5MxyTA03wcOTKO3SekawxybqhR33cajul2rb1974fmtimcjrIGnmHof0bmp0kCEpCABCQggRaBvToiOGJknI8kIvjPHEc0/UxDucQfuJ6T8oqO4y7xtJuVQqv2Hha0BOkaznbXd5rvCLsIJHaT+PtR0iMM5czWERO2syPyiWv5iPOlzRKQgAQksBKBvQqQoeHjPPEkF2ftejBnaqVpPUw36S30OGqcSTDNezEnPLvOODWd+Nw5kT3NAd/1JJz2ZNcYWxAf/xHZsKwx1CwrAQlIQAKnJnAUAZJEx63HwTr1JJ1scFyR/Hw7ZK+Tja3GcBAQrIy1sPsAACAASURBVHN283KhiO3+ftHj6N7j9+nt6rmbsmqMoVYbj2joqLsfbQaseYSIa77W6rAdCUhAAhI4LIG9C5D0no6up7qHhf5hhqfQqiQ6DEcpXwDXKEpGjPxkoFru+mnCGOF/icx36QhOMOOeex6mnPQ6JVn798i8NNIkAQlIQAIS+FgCexQgOElcuXmL7CHyYy7NdGtVOs+xxChYG8kpx1lNqfnnrn5f8Usy6RkZW9Pfl7CzZpuIB74fSZDj0BK6xjhyCV7kI4wVO7mxi7GeMT1iUJ4NOePMOiYJSEACEigisCcBcg2LCRPhp+l4BNLNZM8wvfZ5Di4ZSGd+cE5rrxGccpxCnky7Q7P92vtNmLDn937UIMR3hJCs2t+VGrbZhgQkIAEJSGBRAnsQIAqPRad4scabLwRkp6Om484lA6wL8prhd5xPIdzJtB2BW3T9X9t1P7lnxGvzoDnrNuW+8Dm+Mx5Qn4zcihKQgAQkcFQCWwoQ/nP+9dvJPCq/T7N7yRcCct4HwYEA2Cr0Dmfw8WmTuqPx8m8C5z62mv+pKHI3i13e6xpx1SVGXHdTyVtPAhKQgAQOSWALAYJzgfDgP2PT/gksGVqFY5YuGtjS6fxd2HGP/Nr/dJzWQtYC5z62XAdT4bKT8ePIJbuA1/daI6ywmVh/vLzQJAEJSEACEjg9gbUFCGc8vjqok3H6xfAe4JKhVYnhGBGa7CFW/vXOtIMjd3n/HHtdLfWTsCJshnZN2xFgPbDzsWa4Xe3Rsj5/FrlEhNA3O32PyP/cMIS/sxtikoAEJCABCZyawFoCBMeCuO4jOxhnXgg44zji5KUPxXK4+B556El3uroXh+xZAB5nDmHbfqrcrEr4GG2RGWepo1jQvUVmEDiD+EjD57vDu1hehTwYO2ucM08p8XdFSCFAi0lAAhKQwDEJrCFA2PW4HxPPaa3ewhkvcTSxi7UyVSAgQtJawxl8RuZn2j057YQedGA8kDjimY8h3AjbsQfLER3NFy4e6WWRB116mi0BCUhAAlsSWFKAlDicW4790/rmoCyOfXLK1xx/bi1w+9Rv3rataZd9bUfgGl1/HXloJ2w76+b3zHcNIVK609YWIX1vtZ9vmS1IQAISkIAENiawlAA5u3Ox8bQVdY/gSGIDZ2jLRP/NMBNsSYKIz15bGmffqxMgDA/BefaE+LhHLnnzOUKMnbp0nom6nClZOiTy7HPg+CQgAQlIYIcElhAgn+Jc7G06k+B4hmHkrRPrAJuaDhQhN6/IpU+Ftx6D/dclgJPNWbAv6ja7+9ZY8+yG5L6XcGFXKCW+O2MOtu8ehAZKQAISkIAEIFBbgOBc3ES7CoG9CY406Ga4FdeK3lehYSd7J4Bzzb8PpSFXhOXhsKezPF3jQ9DS3jXyJTJ/73vp3x74MB6+E/zsS4jz5s1Y7J58tQfjtUECEpCABCRQi0AtAZKL8a9l76e2w+Hs5IgNOWRb82mvA+PYt56R7ftHGPDen5JdD24/IzSLPHWXLAmSa7RB3qMgIeyw73wI4qR9m9tP39//7WdTCyQgAQlIQAIVCNQQIIqPChPRaIIrcREZr8g4I/x5qjNW17J8a5co8pd3MZzJ0qfd+ZYtcTQCzH26crnEdnb0bu91X1K+tAxrEvFzjdw+h1TaxhLl+nY2EF9wayb+HSAUyyQBCUhAAhI4BYG5AgQng7cX85+8aTyBJDYQGXve2RgzskcUxuEj4ziZPotAEh6EDZUK0N9F2dsKmLAnrc09iJEfhz2v1rjZHemyjR0TvlsmCUhAAhKQwOEJzBEg7nyUTz9CA0cj7Wzw52d59cOVZG0cZdfmcHB3avC/hl08ub+NtG8t8dE2aw9ipGvsPNCBZTvxffrRSLYWl4AEJCABCeySwFQBovjon86jnNdoj+ASvyD2nJ+kZ2TG8trlytWoPRDAUeZpPbsKXU5zzkaE+TXy1mKVf89u77z2mZHm+Q4YIkD6krsguRXl5xKQgAQkcAgCUwSI4uMfp5bzDo93ZpfjSIn5HLoa9fUeF09r+bPpcwkgUHGSydfIl5ko9ni4mjEhqAghS+/kmDnMwer8e8Gbz5/v71nzjejtipTxLMiSs2HbEpCABCSwCoEpAoR76vkP2vQdAa7V/E3krZ/iYgtiAgcG5+kSueQWqjHz+XiP9+Xkn55A2tlgHV0XGO1WoVdjhoLQur3/vVtDjJTY1nVupKSeZSQgAQlIQAK7ITBWgOBot29o2c1gNjCEJ5cw2UNCFHLdKQ5jSjkBkgv56BoXQuseueTtznvgog3lBJLoYC0hZpdMR3Ok+a4g7GHTfE/Hkoy62va9IGsTtz8JSEACEqhOYIwAuUXvhOqYviewhxCSvhCqkifMCIlfTZzQR9QjJt10bALXMJ9dszVERyLFSwaPvIsKM+wnr7kzwpks/h1+HnvJab0EJCABCXw6gVIBMuVJ+Sew/X0Mkl2GrdP97ZjgDHGw9xG5ZGcGR4oxTH2i69PYrWd+Wv+c5UgO9GVaE7Nq5XbmZjW+cuV0HuYW/S55gJ3vGt/zPYR6rozY7iQgAQlI4GwESgVI39WQZ+MxZTw4+0feCcCBes4QIXvYBZoyb59UB5GRRMc1/rx0eFWObem/O7l29vY5XOGb8lxBwo4H/76QX3sbrPZIQAISkIAEphIocQTOfO6D/+BrhFDgwHMe5H+mTsTG9eaIkD2dg9kY46665zwHjjA7HZcdWXb08KuxKPlukZkD5oOEGGwnbtLj34/X+yd/fo7tzPISkIAEJCCBIxDICRD+w/zvIwxkwMb0Lgv+M+c/9/QfPKEMtXd2EGvcinXEMAme3sJozFNbnCacK5iatiWAU8v3NeVtrenvXcG615nRLglIQAISkMBKBHIC5C9hx2UlW2p0g9jAiebpYe4J4lLnWhAfCBFito8mREpFCJw5O8I4XzUmzjZGEWCekuBIZxBGNbBhYd5jwXfUJAEJSEACEpDAhxIYEiBfBROudd1z+uPbmcGhQXCMcfiXHh+2PCIjRF4rQsQ5Tdep8mfsgA2hLyUhYtTBqe1LsDatS4D5YGfq+s6Xdbuv2lvuoUfVzmxMAhKQgAQkIIH9EehzBnBC2f3g555SevLO0/e5jjD1u2KxlxjvIxol9GSMQJpixy0qIRr75u0Vn90jc0WvaZ8Emm8bv4SJ132aOckqvr+MySQBCUhAAhKQwAcT6BMgj2DCuwH2kNK1soiOV0WD1g4vQ3wgQmC7RBqzo8NOCDd3leyILGGrbX7niHMBwjUyOxxkfnfmxI4l4zVJQAISkIAEJPDBBLoECE4QzvmWaSnR0RzT3zYa4I+j31flvr+I9r6e0CYi5DGhnlXKCSAsEBpNkTEU4lbe8rol0y1N9Ir9U94d43tj1p0ze5OABCQgAQnskkCXAMEh3WL3AweHXY7fRF7jyfyaAoTQE8ZVexeHRTU3XI75RoiYphNIDvn1PR9pN+MyvcnNa6bvI2uW3E6MkV23Mf9WcEPcffORaYAEJCABCUhAApsSaAuQuc7slMEk5xxHeOkzEk371hAghJzgcD2ngCmsQ/u/KizbVwz2ipBhiJzN4PuB451+XuLP5DMlhAdimVzyfWT3jfVTsiOiADnTSnEsEpCABCQggYkE2gKkhjNbagrCg/5wXrZISwuQtd538O3bIZ7LkHn4ZBHS3MWA5fUNNP2cy/cI9QmR4jtZIjya44HdM3JOhHgF7xFWgTZKQAISkIAEFibQFiBrHMzmCStODk9Yt0w4TEvdgrXW255vMYb/qgjxEW0dRYRcwtbcW+yb5xZS+eYORnNHoyLGwzXFwwB2MkpCH2HWJVConzuHpAA53NLQYAlIQAISkEB9Ak0Bco3ml37rOde/Ejc+9glr/ZF/Z8dS7zlZS4AQm887P2qmvR1MT9fS4viyRhESZFMdAmN2PRC7aeeyq/fcelxrV7AOGVuRgAQkIAEJSGARAk0B8ogexhwoHWMQT6J5QvocU2nhsji0hC8tldZw5K8N43HKyTzhnytKfhptlDwNX4JdesM3Y2uOb4m+zt4mZ5BIr3dO42VueQhAHjPPtHOL/OwBx/obukHPMyBnX3GOTwISkIAEJFBAoClAap0laHfLbgBOyx52Pdq2EQb2ZQGnqUXYZeEJ89op7RbQ/5QwM5xSRMhaKb25HZGK7aYyAinELAmK5/t7NkZUlPX0XalL5FemwiM+73uQoQAZQ9uyEpCABCQggZMSSALkGuNbIvxqrsOBY8oTfexLDhBOEI4WKT3BxeHiae9YkYOzS93cWYI504+t7Ia85jQyoy687pHH7m7NnbucyYqOHKEffs67cVirKafvwLhWli/N9/VPPd2sFZq4/CjtQQISkIAEJCCByQSSAMFBnXuVa9uIqSFIOMzYMuVpOE4+cejkFH6Sg4PDhDOXu8En107ucxizGzJWJOXaLf38GgUfkUvFFnb+uLK9zC1C6BaZP5u6CXDOgjW5d7HRN3+vnnXGd5J1aJKABCQgAQlI4IMJJAGCszMlVKcP3VTxwaFwwobmJJ4UMx5ECD9L0loiBMfsHpnD+Fsl+i8Vm7V2QdjtuEVGVJr+kUBas6xXRAfr5MipL7RRAXLkWdV2CUhAAhKQQCUCSYDUfCfGFPFBKBQhYAiBKQnH5hEZ0TF1h4G+aeMnUwwYWQdHc8uwrNKx4gizCzI1sdtxj3yZ2sBJ63F2gzWQRDKcz5SuMZiukE6+mz8600AdiwQkIAEJSEAC4wkgQPqchfGtffdk/zay4hzxQX84uLUcOGyhvSUPpic8OGM/i8wT760Su02Mdyj8bOyNWDCEH23zZ9N3BAirQnA8Np7zteaj76FG8+KLtWyxHwlIQAISkIAEdkQAZ+AWucbL7AgjGbuDMVV84Mxh93MhloyDMJKaYWldpi5xzmIsEuYAsUDuEiKIpBLOCo9/JP9poqNJgDXT9f1RgIz9hlpeAhKQgAQkcDICOAP3yKVnAoaGX+qoNtvoixUf6gehc408NdRqzBTSD3yWFCK/iPZ5Mr51QkDc3jmFoZWISoXHP84cO3OPyM+tJ3XD/vu+21P+ndhwGHYtAQlIQAISkEBtAggQnN+5L66bEnqFcz/26t81xUeT9SX+wg4BDnrN27I4C8Buy6v2xFZojzEP2aXw+CFk5hKn+7HT+aywJEY1wfeFSyXaSQEyCqOFJSABCUhAAucjgAB5Rp77hJ+DymOdaN4VMDZka+x5hCVm7ItolHyNXHqlbZcdiKlb5C3PgEzho/DopoaQ/+WE78GUOThCHb4fXQ8YFCBHmD1tlIAEJCABCSxIoIYAmfJysT7nZGioU/pZEN3fm0ZAMRYESamISzd2PZY2rnL7Co8yoOyCcH3xGiGCZRZtU4rvRtcLCWtd7bzNqOxVAhKQgAQkIIHZBBAgc6/gnXKGgSejOO5j0hEcF8aURAk/0w4Jux0IDp6Sv8YMeidlOSNESA0ixJQngPi4R+bFk5+cuv5tOcL3+JPnzLFLQAISkIAEFidQQ4Bwr/+Yp72XKP+XCSM7YugGDjv5iKKDKfqU93hwW9WccLq+5Ux4HWFZzwnr/QxVFCBnmEXHIAEJSEACEqhMYK4AKbklqW1y3+HU3ND+Iwo8coX8vAqBTxEeCVbaxbvGL1IuDakrAc66RYiMEeol7e69DAKs/WJPQhBhbJKABCQgAQlI4EMJzBUghJggKMakKYfPaX9KX2Pssuzn7Hi057rvcoMkRvg5V5AgPhDRhOF9Snp2cFOAfMrsO04JSEACEpBAD4G5AmRsPDfhSN9OnA2epuIomuoT+LQdjzbB0pfj1RAkCBCEyCfshihA6n9XbVECEpCABCRweAI4Xq/IU+PfxwoQHLix7/5oQj7iOZA9L5JPFx7MzZzb1aYKEr5zhH0d7QrmsWu5S4AgvDg3ZpKABCQgAQlI4EMJzL2Gd6wguAfnOW9d5+kxjttRU7oZi5/kdKtUOqjOCx3XCNFReHy/gmqeLUqCJN2ENvTSShxxdvQQI2dNXQKEsZbuOJ2Vi+OSgAQkIAEJfDSBuQKEg7W/GUEQ53ruW9fHip4R5lUtypkBHNHL+yfOaUn68UJOKSLny8hep/v9LPD2cuZnqXCoNPdJkDAHzUPZY78/JetnT2WeYUzX2RkFyJ5mSVskIAEJSEACKxPAEbhHnrorMTYEa+oB9CaWV/yFJ8dLOY19U9B3CDntZOBctnc2pkxnbYGFE8z83qYYc/I6Y9fvyXFUH16fAFlKZFcfgA1KQAISkIAEJFCfAAIEx/S/JjY91oGb+9LDZCaODY76mgnBMxRSU8uWvhuZxrZPmBVzex1b8UPKc4U0bNYWsh+C9+/D5HvaJdxri+xPYupYJSABCUhAAocngADhqT07E1PS2Cs1awkQbH1EJn5/rVQjfCxn6zdR4JIrNPA5c0mY1ReR0/mSGc2dtqriY52pfUY3CpB1WNuLBCQgAQlI4DAEUiz2VGHwipESTlGSrlFozg1YXX084pdriZB79DU1VK2ED2WmvOsE0YGTd4vMn4+cnmE8Iox1lULa0njmvoeDdjjzwZkl5tK0PAHmUwGyPGd7kIAEJCABCRyKQBIgfY5CyWBK47mv0VhtAYJ9j8hriBCc1qUFSClLhAYhVux0XEom6WBlXmEvO07cCvY/LdsZbxoza4rU/F3XUFnftLPGDWMHQ72ouXDvEiBjQzcXNdLGJSABCUhAAhJYl0ASIPfodqpzjfP/KDAbZ3EJAULXOJbYsWQ8/5L2Mwac7VsPx7TLgQ3kTwqvwonl6uUl57Zg+VpkAgHmTgEyAZxVJCABCUhAAmcmkATInHMgpS9yW9qB5wk3IqT9xLzW/C1tP7sfONlc08p8XN4/6ffTE1wSn09nsdb4EbnsspEIDZySnlFJATKFnHUkIAEJSEACJyaQBAhDfEWe+kZ03myce0J9jTJL7YA0p+irGQ7T0FTf48Opu0S5JQS7T9rVyPHo+nxoh2hKe9bpJ8Ba5LuazhRNOZtE633Xbpc+tHCOJCABCUhAAhI4IYGmAOFwLjcoTUklYVhrCRDsf0bmJW81d0Me0V56IjyF0VHrcHCbEDfGT+LnVKE6h8HYG9fm9PXpdbmW+9aAMHUHqu9yC+fy01eY45eABCQggY8m0BQgc8KwcPR5f8VQusaHa+yANG1AVHHgNbc7k1sEPBHmae4lV/CEn7ffS/KMMda4kWosKp+ajyU2rXzf95RzOGMP8StAps2BtSQgAQlIQAKnJtAUIAwUIcEZhCnpZ1EJ57Qv9Tk2U/oaUwfxgRAhjGSqELlH3aXCr8aMZe2ybWF5CQP+srYR7/5Kdtk2Mu1U3TK/zHM7TQnD6hMgJQ8sTgXVwUhAAhKQgAQk8D2BtgC5xUeEX0xJz6iECOlL1/hg7R2Qti2P+AVnCbC1NM1hUtrHnsvBjHA2xBvzxzyunQzZWYf40FofOwe5HdX2vz3rjNBeJCABCUhAAhLYnECXE4Cj+c8TLRvaBcFx3VqApGG94g+Ekzwj81Zs/t5OOFCcicEpM33H6LIBCM6gMBddc7SBOafusu/QOIOGPzeRlaZrFBz6vitASklaTgISkIAEJHAyAl1OwD3GODXc6Bl1+3ZBcg7J1mixPSVsNW1PAPHBXNS8TGD7Ue3TgpLv5xjRcIthDu2mjmlrn8S0SgISkIAEJCCBSQS6nAAOXL8iT90F6Tuseok255wfIATkGZkdGnLaoZg0cCvtnsA3YeEXio/V5ukRPeVueRsjGu7R3tCDDHZT+HfGJAEJSEACEpDAhxHocyhyzsMQJpyKvlCNvkOpQ+1xixWHyLsOkM+5OvjDpvpQw+XGq1vPnB9qIAcxlocOPBzgZ19iN6rrc3Y5+HeE+Wqm3Hczd2nFQdBppgQkIAEJSEACYwkMPdF8RWNT3/eAaLh3GDNWgORuPtrqUPRYzpYvI4CTy7rBeTWtRwDxkLt8gssbKNdM1/gL38GuA+rP+P3Qdc0KkPXm154kIAEJSEACuyIwJECSczHV4Pb7I2hn7DW/Q07KV9Her6caZ73dEcDBZU6nXpW8uwEdyKBH2JoLv+oKrUxX9nYJkKED7aBRgBxogWiqBCQgAQlIoCaBXEw3N0X9fGKHXXf9P6OtMS+xwxnFKcU5bSZup/Ip+cSJ2Vk1nFfm2IPm203Mt9H12PCrW9RJuyZdAiS329m3S7odBXuWgAQkIAEJSGAVAjkBcg0r5lyd23YyHtFe7klr18Bf8UvEEBnHh2w6NgFEJevheexhHN76ku94V/hV8+FE+y31l6CSu3BCAXL4peMAJCABCUhAAtMI5AQIreL8Tz0LQv1mqMU9/j71it9pI7TWnghwsxWig8y6Mm1PIHdYHAu7wq+aOxxtMXGNOrkHFwqQ7edeCyQgAQlIQAKbECgRILewLHdAdch4HE3OgxBOVeKYbALCTv+PAAfBU3gboVFTr2NODSI6eFr+iGyY1f4WWu6sBhb/6P39Tda3v8ftyyLuUTD3oOG3UYb1ZZKABCQgAQlI4MMIlAgQYsNfMx1RHFCc2n9tOLcfhvoQw21ff8vcf/HOpWeBOA+A0CA/32vnEIP/QCOZX85/DKU/v7+3zTLtCyDaB8ofUTgXatl1buQDp8AhS0ACEpCABD6PQIkAgUqJQ/F59M414pIn0pcYMrkrITi8wepYa+Ia5uZCpbrWRfvfg/a/I89oN3fZhALkWGtFayUgAQlIQALVCJQKEJzO3KHSakbZ0OoEug4Zr26EHa5O4B495kKl2uFVGJmu3+XPXTskuRuwqKcAWX267VACEpCABCSwDwKlAgRrn5FzTzX3MSqtGEOAMxqExrl7MYbaOcqWXLP94xjqqzHcdthWW7yyljhXkku0SdsmCUhAAhKQgAQ+jMAYAcJZgK8/jM8nDPeXMUjfqfIJM/2PYyw5gN7+N6L970B7h+QW3ZReWjHm35/PnCFHLQEJSEACEjghgbEOAE/J596KdEKMhx5S+wn3oQej8aMI5EKlusKk2tf2ttdPybW+ycix//6MGpyFJSABCUhAAhLYJ4GxDsAY52KfI9aqNoGxa0CC5yBwiWHkznW1XzDIyJvnPwjfo51mKtlVUYCcYw05CglIQAISkMAkAmOdzxKnZZIhVtqMwNg1MNVQzgZwlS9Ore8DmUqxXr1rNJW7Aes/o8y90WX7+98+/1FyrW9zBLwfyLVQb05tSQISkIAEJHAIAlOcTxyGnxxidBpZQqD9krmSOlPKJIf3FZU9fDyFYN06t2gud1ajLUDa7/9on/8oETXNUfws/vKsOyxbk4AEJCABCUhg7wSmCJASx2Xv496DfcTX3wcMucRnZBK7Bzxd7kr8fo4gXNMJJIQPe1lDpm0JsPZyV/C2BUg7vKotXseGaK659ralbe8SkIAEJCABCfwfgSkCZGyYhbi7CbCTxBPkWiEozAtChXx9//yXAvjtp9gFVSxyAgIlAqS5Ni4x5uaZka4D6mPOf4BQAXKCheQQJCABCUhAAmMJTBEg9PGI/O9jO7N8JwFY8qT5tQAfrkwlbGbo/S3PtyO4QPc2uWMCJQKkuQPS/s63r2++xFhzh9rbONo7LDvGpWkSkIAEJCABCdQiMFWA+E6QWjPwfTsIAUJYOKRdOzFfOJB9Vyi3r1Kt3b/t7Y/AGAGCuGB3oxkG2F4zt/g8d6ZEAbK/daBFEpCABCQggdUJTBUgGPqKXBLis/qgDt4hXH8f+bdvxrWGQ2jWs0eE+DLCWpSP006JAGEtEibFC0hZPyl1Xc/LmuWWszHJHZAxtCwrAQlIQAISOAmBOQJk7IHTkyBbdRgIhkdkHL7/rdBzn9OJo+nNVBUAH6iJvrVQMoT2uaGp58IQ2YQImiQgAQlIQAIS+CACcwQIT0QJyzAtTwDxwRNm3rvwnNHdNer2vfthy8PoKbSnhsiageejqk4VIH8NSu0b2QjxSzts6Zazkt2QroPsHzUJDlYCEpCABCTwiQTmCBB4vSIbhrXuyoE5u0+IkbEO+5AAod0td0F4Es64TOsQuEU3Y89sYFnXrgWio70WH/G73EUVCpB15tpeJCABCUhAArsiMFeAGIa17XTi5I25QSvndG55FgTbEEHPbZF+TO/XGGnuTehdMMZcWMB8Dj2gUIB8zHJzoBKQgAQkIIHvCcwVIIZhLbOacMxSGrpCN5VBCCIecin3ngaeYuNgjt1ZyfVb+jnig3CerfovtfMs5f42ciDsut1G1KHs0C7L673eRjRpUQlIQAISkIAEjk5grgBh/DgRZw7DIuad8xc4x4z1f94OMmEnCDDyNXJJzHvJeum6YYh69JNi7+mvmXDYH2+7+vogxOnXBQZseTD4/h5jzYPJScA1RV0Bho8owpouEbgJxpjdj1SH78zQvw81/g36iMlykBKQgAQkIIGzEKjxn/+Zw7AIb2J8JU/kEQiIgJ/MXBxce4pjWDPdorEx8f5THM0a9l6iEV5mV4sB18eyo0Jibjhob/qeQKkopcbUK3Nz/z7U+DfIOZWABCQgAQlI4EAEavznn5zGAw27yNQp5yGu0fKUuPqmQbV3IG7R+BjxgS3PyIiALdIjOuWp/E8jlwi/PhsZM2NvpilzugWDtfpkR+0Vue8FlcmOb+IPCOwp84EARAj2pRr/Bq3Fy34kIAEJSEACEqhAoNZ//jgxZwvDwgEm3GpMwqH7dkyFnrI8mUaIzEmXqEzIVdoBGNvWL6ICoWdrp+SwzhFi1zC6SwjiQP9o7QHtvL+SXZAp34XmsIfOmsxte+d4NU8CEpCABCQggTaBWgIkF2ZxRPJTHPBbDHTsbkMfm2d8wBP7sSII4fFlZGxJZ0am8H9Fpa2u5aVvBO1U5xTh1HcmZ8q8TuF3pDqPMLbvylzC1vh8TmIN94Um1gq3m2OfdSUgAQlIQAISWJFALQFCeMbZXkqIEzwmDAhnNL3grgAAIABJREFUn/MLc5z+rql/xi8ReBxO70uX+ACHm92Da8X1MzXuf64JSdDiuDIHYxPrEW5doUVbjWnsGNYu336IwOULt8g1dsGGBKECZO2Ztj8JSEACEpDAxgRqCRCG8Yp8tjAsHGAcpFzsO6KDkB8c36USNuBUpx2RS/yZTJ+1RU8aA31ucS1vU9BOFQwplKs9H3NCu5aa2720y3qCG99l1lpu3ZfafY+Cv+oprAAppWg5CUhAAhKQwEkI1BQgj2CSe/PxEbHhjBG20xcKhbNM2NWS4mNLblMFwFybcX7TDsbUMKDbe26atmw1nrk8jly/TwwyJufjyDOr7RKQgAQkIIEJBGoKkCEnY4Jpu6tyD4t4et58KsyYER9L7UDsAcJWuyCPGHxT0PJ3zsSMfSqPMCQEKO3O+cR9/VV1jS77bodTgKw/H/YoAQlIQAIS2JRATQHCQJpPrTcd2EKdv6JdhAjnMRAeCJAjJOL5c1etDo1j6g7EHDZfReX2ixPhjwgZey4BgZjm6jHHKOtOItAMqWs3oACZhNRKEpCABCQggeMSqC1AcO7OGIY1d4b/+HaaCeMi4xDjlN0i13qDep+NiI/Lu/8xb71utofNUw6Dz+E25LQiQBAirzkdWHdVAn1X8XomZ9VpsDMJSEACEpDA9gRqCxAc6lrX0G5Pp44FuSe8ONFLHt7/3VvozJ2bqVfizqE49P4Idtt+E7kdFjenP+suR6BvLhHn1+W6tWUJSEACEpCABPZGoLYA4cl+jRfx7Y3THHtyb9/m6t7LnA4ydZMAGtpRKOk+N46SNsaWGRIgqS0E3D0yQsu0XwIKkP3OjZZJQAISkIAEViVQW4BgPOE6fS8dGzM4nmw/I389ptJOyzIOnta33+Vxi98tvWOUQlzm9rVFqMyYtQTjKS9u3OmSOZ1ZzE9XCKA7IKebagckAQlIQAISGCawhAC5R5d9d/6PmY9kG/H+S5+TGGPXnLKEDTEeHOtX5EfkNW7Qoj92QOakLRzFKbtDCD12fcbeljWHjXXzBJ5RpEuAME8/yle3hAQkIAEJSEACZyGwhACZG+oDW5xzXoBHukVeepegxnx+E42k25m+rNHgztpIZ0nWNKskBKvLHtbP0Ltb1hyDfX1H4Bm57xKEJf4dkrsEJCABCUhAAjslsNR//DzVnHPtK7gQIDiS18h97xDYC1acc66NTU/d7/HnGrtAexkfdqx9Fe9cIctc8M4Pdn9M2xN4hgkKkO3nQQskIAEJSEACmxNYSoA8YmRzr+PFcaQdHEl+7jV1hSZdw9i9i6YxPNnduYypUKFsjTW0xa5NhaHPbuKLaAGHf09haNjTJ0AIwdqTrbMnwAYkIAEJSEACEugnsJQAwQE6w+HxkrVDqE8KvWqWnxo+VNLnmmV4jwiCau2dBHZA4Dr1imLsTo74mrz20Nc9jHhFfuzBmLcNz/jZJ0DYqeJzkwQkIAEJSEACH0BgKQHCwerS63h5uj7VydzDFHW9H2PM+Pcwhj4b2N0htGxt8ZHsgSOO6Zhb1f78drxxvj/1qfo1xs5b5Nd+eeTQWmYeFSB7/rZrmwQkIAEJSGAlAksJEMzHac05jil86XVgEYLt98j8TIkn7zjuR05bvPejjxc3W+UO9iM2cLib83Bk/nNsR7jB4fr+Hs5pq1bdZzSkAKlF03YkIAEJSEACByawpAC5B5fcQex0sPkRZeeeGTnwNOzS9LUPnecgIOpYJ0OXGyB6Cef51J2PJkO+f6T0M8d36c+HBAjXJu/FzqU52L4EJCABCUjg4wksKUCuQTd3EDvFfuN85MTKx0/WygDSLWQrdzvY3SU+fUTue5JOZW+/+g5hYsX3cA/pOTBvCpA9zJA2SEACEpCABFYisKQASc7g0BNrDhmTCVfi0LFpHwT2tvvRpsJ6uUfuW1uKkO+IwYi8h/QMI/qEowJkDzOkDRKQgAQkIIGVCCwtQBAXZ3mL+UpTslk3nMchhInzFq/NrCjvmHMOj4H1pQgpZ7lGySEB8qnXJa/B3T4kIAEJSEACuyOwtADhSTW38Zi2IYCoICEs0rkIfjZvtWp+to2V83q9RnVEU9eFB4qQeWxr1h4SIF3v0qnZt21JQAISkIAEJLAjAksLEMKq/rSj8Z7ZFN578XiLC5y915kH2zG221uItMOy4MDtWB5M33ZBKEC25W/vEpCABCQggd0QWFqAMFAcwCO/52M3k9VjCE+P2QEg3O0I6dFaD2lHhnXCOzyauzNTxnOLSvdWHzi/XHhg2o7AX6LrS0/3zD2XHpgkIAEJSEACEvgAAmsIkEdw9Ird+ouJHQ9C3OB7pMSu2DPy0AFyPkdQIa5wTqekW1Qip4PPXS+MnNLuEevcw2jylulvmc7X+Ldoy/HbtwQkIAEJSEACbwJr/KePE/hfEq9KAPFxjTx3t6CqUSMa4wA5uzYlwpQxPiL/IfJrRB+pKH0heo5+1mXC0P+vCvwQdFvukilA5sygdSUgAQlIQAInIrCGALkEL8IvTHUIHEF8ICyYd5x+djH6zl9Q5ovI18glt6U9oxzONGLEMx3l6wnGXAaxZZhTToD8yDktn1BLSkACEpCABI5MYA0BAp9XZM+B1Fkpv4xm2D3Ya+q6+Qwhgs054YAQYbeCzJ/71gzig6f5vD+CtWXKE4AZc3DPF61egl2obzOtppeSVu/cBiUgAQlIQAIS2BeBtQTII4ZdEm6zLzr7s+abMOmyP7N+YBEObt9b7XGCWQu/jfwqGAdj5ek9ue8lds/4DCHCT1M/gRTyxi7I2rtH1+jzvzOTowBx9UpAAhKQgAQ+hMBaAuQWPI92DiQdgMZRxoEiXSJvuZOz990PGCEWvi74/jyizJgdDObgHrlPiDBPfM5L7Uz/SIBdJa7Ehjmc1kzMXU6A/CLKbHlGZU0e9iUBCUhAAhL4aAJrCZBLUD7SOZCco49DlXKfQ7zEwuLp9WuJhiu3iY2lQg1nmB2R0qfyjyg7tJtG37SpEPnHSSUUjnlZexeE70pOgGwhjCove5uTgAQkIAEJSKCEwFoCBFvGOKUlti9ZhiexPJEtScS33yJz9qHU6S5pt12Gd2TwFPsICR5jdrwQH/fICJGSdH3zHjq4znr7j8jPkgY/pEyaF7g8Vhwzc9sXlpfMUICsOCF2JQEJSEACEtiSwJoCBIfnSOdAECE4aqVP5plHRAjOVt87LubMNSFh1zkNrFwXx3/s7hBP6Nl9om5JukSh2zv3iT/aYh5fJQ2evAxiGQ4cCF/zRiy+EzkBgvjk+2OSgAQkIAEJSODkBNYUIDiKY56K7wE9ztrYp+gp1r62/dwgxfmKo6Q5HB4xSITIGPEHG9ZY364ITvCYUK+jcB5rJ04+V/KueeaCA/BfZgw9msAey93yEpCABCQgAQm8CawpQC7R55HOgTQXyfPtEPOEviSxe1LyXouStlKZI4ao4PTnnnz3MUB8IP7GHkzmKT9iBEf7J63GmT/aLJ3HMfNzpLKPt7G3lYzm+5PbDVOArDQZdiMBCUhAAhLYmsCaAoSxviIveU5iaZ44brmbm3CAuW3oUtmYLQQIuxjsWiEGEAJT3kaOs98WAmPQ4LxODaFiDtLOSLKBsfws8ieLENboPfJaIU/MYU6AMB8/HbMwLCsBCUhAAhKQwDEJrC1AHoHpSOdA+mYVh4qwEhzyZsLhxWG/zlgOvOm86Rwnx20LAZLODDTPtDCH3DAFg5IEi9wNSLl2EA2EZNH31MRYEFTYA9+xOytT+7XeP/3T3wohrP3vUaFZFpOABCQgAQlIoCaBtf/Dv4XxRzsHMsT79XZkcWbTk3Yc3ampS2TQHk4zPx9TG55Rj6fknBlop2f8Anv5mUuItdwZgFwbfA7nsRcDlLRrmWUJKECW5WvrEpCABCQggUMRWFuAXILOUc+BLD2x7Crclu5kYvuPqNe3c8VnubA0up0bipVMZzeEA9TPiWOx2roE2HUiJLEkcTPXq6SgZSQgAQlIQAISOC6BtQUIpHAwjnwOZKnZ3rPzxe4LDv/QWY57fD50y1Tawal1OJ/+ED6mfRO4hnmlIXiczWGdmSQgAQlIQAISODGBLQQIYTS1nNAzTc0WczGGX4kIYXeCkC12c/oSoWqEZNUQoeyq4LTSr2mfBO5hVulNaAqQfc6hVklAAhKQgASqEtjC6e07UzB2YBzWxrnB+eRnDYd2rA21yh/lLeclIgQmz8i5m6tuUYa1MOeGLPpi/j/9Vqs565AQKYTcUonvZqkA2eKihaXGbbsSkIAEJCABCfQQ2EKAjIkJH5o4ruxMjlOpYzx2ISByeFr/iPx6V06Hwms9xU82bTEXY3lQvpR1EoaEZQ2lS3x4fWd2R6a+RR7BwzyZxhFABLKWl0rPaDh3BW/qWwGy1CzYrgQkIAEJSGBHBLZyenFOpzqa4Os6sI0jiyCZ025zahAf13ebfVOG41bjdifa32ou2mO7xS+YH0Ll+lKpCKH+M3JuN6TZD/MI95TH7GwxH1zXayonAGfmaKnEpRPMaUlCrCKITBKQgAQkIAEJnJjAVk4vzu2ccyB9T0rv0W5puEduWkufqNcSIc0dnZxtS36OuHhF/joyDIbSIz4sea8Lgoa2hkRNXz+3+IB5LRUi2JSze0l+R2ub+b5EXioMq/QKXrj9MfL1aAC1VwISkIAEJCCBcQS2EiA4lHOEQp8ASc5zjV2QMYLgGeMpDTPpm6E9hZ8QCoUAwSnlytvXwLLC4S8RITRBWXYoECRjE44pT8dLhCv9KELKCfO9mTInuR6Ys9IbsGhLAZIj6ucSkIAEJCCBExDYSoCMdUzaqLtCsFKZWjsSYwTB3PFgO84+omcvKXHEMc0d8sbhLxUhJaJmiMElPkSI3CIPCU1sUoRsu5qYJzJzgcjJhSuy1n60rcn2LgEJSEACEpDA0gS2EiCMa0xoRpvDK37x4x44/xq/L33x2RDfEse7WR/Heu6NToyJse0htc955ELScDJLRchYtn08bvEBuW/3KWfzHjif2YYkPtLuCn//dWbAW/6bdOa5cGwSkIAEJCCB3RDY8j/754DjWAJoyLnEiS89M5Dr6x4Fhl6wl+qXOFe5vvZ2CBcxxzylnQZ2RYYOeT/i81IRAotaAuESbRE2Rm6KkaNcb5xbF2f6PPfd3PLfpDNxdiwSkIAEJCCB3RLY8j97HPs550B4qkrIEg5NO411hHMTRF+/j4xAYKejK13jl2Pi3bvaoB92QZaIx2/2xzkKnPMudm272sKK8cPiGZmY/bnsa4mQZAc7Nwiny3uu+uYrN+d+vgwBROxQKBbhfqwtkwQkIAEJSEACJyWwpQDhaTUHnecknEsclrbDXqPtPrvoCweJvvmJI5/6nxNWlvpbYxcEe9nVeETmrMsrMwmMsyvMiXZwKDmT02yDdkt3QmqFY81ZR9Zdj8A1uhoS6gqQ9ebCniQgAQlIQAKbENhSgPCk+tsKo8bx5Sk6TnJKl/gD7x9YMyFIePJeIy19FqS9q3EPo4fCzODJ+IYOfdMGYialR/yhVITQ9p4O4NeYQ9voJzAk1AnxQ9SaJCABCUhAAhI4KYEtBQhIcTznHtxOU5NCpJ7vX6Sn/EecujUccjg1dzVe8fe2kGuyu8dfciFz2E0bKeyJnajrO+fmecy1x0ecU23+nsDQ937M7XMylYAEJCABCUjggAS2FiC5ePApSHGkESM4v5cpDbzrcL5h7rs9ZnT/9/AonPmlEjtQsGrvajAnOIHtsDbsoHzucH9fSBX9sUN0fc9Lc26e8bv7UgO13d0RYL77vluE8912Z7EGSUACEpCABCRQjcDWAgRH47+qjaZOQ+2bk3CcETPYurYgqX1Au00IQdB1ZfErft+1G4JIyO2C0AciZI3D9HVm3FbWJvCIDvvC8xD+17UNsj8JSEACEpCABNYjsLUAucRQ1z6rUUK3z/HHMcJ5yu0ClPRRWoYdiaGrbxFIHOrlJzs/5K7bqfr6u8UHfSLwHp81z3WMmS/s4C3qJgm0CbCu+oTsGuGHzogEJCABCUhAAhsS2FqAMPRX5DUd+lLcj7fzjX3NhKP/jJw701DaT0k5+kOEpLMVqQ47GIgHfjYTOxDYTzhLu05Xf/f45ZBDiJBIHMbc9OWNRiWz+3llhtYbNPbw79LnzYojloAEJCABCaxEYA//0fOknPdS7DHhyGNf+6raS/xui52b51tQYBeig9CwXEI44PAhRobSIz7sC4tJgiad4cj1mT7HXkSISQJNAqzHoVC+Pfy75IxJQAISkIAEJLAQgT38R/9VjO3XC42vZrMIEZz0P7wbxble+0zInPEgIgjnGrpul/GVXp1basvSVwqX2mG5/RDICRB3zvYzV1oiAQlIQAISqE5gDwKk7yB09cFWajDtitDcrVKbazaD/TiACJF2WiK8zPc6rDm7x+hLAXKMedJKCUhAAhKQwCIE9iBAGBhO8dBL7hYZ/Ic3ytkQxMGzxaG2CPFa1Q9faB3DZ80N7R4qWl0zEpCABCQggRMT2IsA2fM5kBNP/9+HRlhW+5atmiJkyrWq97eDyuF3xKnpXARyAoQzV6wBkwQkIAEJSEACJySwFwGCs1HyfokTTsEuhoRD2Hb2a4mQIQFC+B0C49WicI2/c7UwuzScB1CE7GKZVDMiJ0DcNauG2oYkIAEJSEAC+yOwFwGSHM79ETqmRX99O+1jrjfucvZriJAuAUK7X0dm3hEXP+rAjCjB/k8RITA5ktDiBjZ2LqckbpC7DFScsms2xQ7rSEACEpCABCSwAYG9CBCGPub9EhugOkSXHCwnpArnnYRTi6N4j1wiRpYQIW1nEseT3Y3kgCKWsLOdsDntij3jz2e+zpedoK8i3w6xyr4z8k+Ru84QlQwh911/RSPcnmaSgAQkIAEJSOCEBPYkQHAyj3St7djlgCOOo7nEYfs/v51XBERXwsG/R/6ywOguEXKJevx+iu1d8fzNuUY04Xy3Eza/Gn2e+VzANcbJjlDXTlDBlP1DEdZZ31qY0l5XHUTElOtysQ3xkkt7+rcpZ6ufS0ACEpCABCQwgsCe/pO/h91nPQeSYtpxqgk/6XriP2LaflAU8YEDWxK+c4tyvDk9lx5R4D9ahdhJwUkem7qcVMbPTg02M+99trfXxE+j7NKO9djx1SjP/LErVGN8zBFz1TWHNWyljWRv321VrDEE46ujw1Q3Z4vvj8kR8nMJSEACEpDAQQnsSYBMdXCH0E85C7HEVOKI3SLzpJ9x1kpjxEfqEztKRAiH0tsx/vf43RiR+E2Uv8wYbHsX5BltnTEUKznlc6+fbc/tlB2KkuliHfPy0K5dqfQ97htL6RpayvaS8VlGAhKQgAQkIIEFCexJgOBsflt5rMlBekS7td/wXdnU0c0hrnDuS3Y+2o23HdWuzmmXp9Dt9sewZBeF8nMStrJbksK/zuiYXmN87ID0haOV8msf7n5GxSUEG/NBOF+XAEnroy9krnT9zBVjpcwsJwEJSEACEpDAygT2JEAYOuE1P6nIIDlBiBucsZptVzRzdFOID5zWOeFIyYkc6rzPiSyp+4douNZuzyXaukdGRJacBWG+pwiz0RNRqQJziQDhnBB/npL6zlYsEcrEd4nzWl1zkURQ3zzlbsBKYy+Z5ymcrCMBCUhAAhKQwMYE9iZAShzbMciaTnCfgzamvb2U7QqPmmJbciT76uLE9x2MTucMug6mc+aFMJ0tRADig77vU4BsVCetzTkCJIVFtYdQYxeq3WYSEe1diksU5DNSl4Bofp5DXVPA5vrycwlIQAISkIAEViSwNwFS+xwIOwQc7E0Jp3TMGYYVp6K4q5pPhttnLLqMyImdW1S6Rsa5hPfvIz+LR1O/ILZwPqE57/V7qd9iupp26ncS5l23yC3hyCdb2+Fwze9v1zplrZScP4LuHDFWf3ZsUQISkIAEJCCBagSmOjvVDGg1tMQ5EJ7gN5/Ev+LvJe/EWGqMc9pdwpnEYSf8py8t0eccBrm6aTztec/V2/rzuQKk790aQ7tYU8bc3ElsC5B7NJgEftfOyyM+H3MWa2//Pk3hZR0JSEACEpCABFoE9vgffO1zIG0nKedw73WRTLnxqnQsQ6FvtR3YUpumlkvzu0To0VSbSuohIDjbgwgfm3LhhTXPgTS/P+3vVlNgtD9jTKXnP9L49/jv09i5sbwEJCABCUhAAgcQILXPgXTdLESY0M8PtBpqHDofGi5O7zNy3yH9Lmdyr/iSg9wOv9urvcku7H1FJoxpbMqFLubC6Mb01xQgbWHDGkphYO0dqGa90v6OtO5Kx2Q5CUhAAhKQwMcT2OMTxlvMSmmcOOICMYFo6XOeuxzRS5RPh2WPsAjWcMSGHMQjXYk65CCnuSbkDGeZ9bPFQfmuNceaxJYp9tyj3tDZpprnhrC9L1yMa7QRs99EZjzN9Ii/jAm/om5N4XSE77k2SkACEpCABD6CwB4FCI5LqThIjnnuCX7XeYApDtEWi2LNUKK+3ae576dYk1szHKnL7ubnOPs4uc81DVygr9xarn2gG15852DZTEmYtM8NUZbv9NjwstrCaQH0NikBCUhAAhKQwFgCexQgjOEVueSgeNNBwblht6OrXpcTT3n66bpGdizHpcqvvfPQx7C2A7sUr9RucoT7zq/w++a8fxV/R6wcNT3D8K4bsNJ4aoej3aLha2R+psTaSS8Sba/bVJ7dSr5zZMQLvx/aFTmS8D3q2tFuCUhAAhKQwOoE9ipA+p7EtwH9ruUE4dQ8I7dFRd9NTvcou9dredtjW2Jx4DTiuKYn2Zf4M7/7otXZ0QQIDm4SoqW3MT2iDmWPmFjzQwKEMfFdZ54JVWSeYcT3YkrIF+2xTpp1r/H3dJtaO2Qw9dfF9ha/7Au5PNq6O+La0WYJSEACEpDA6gT2KkBwgL8uoIETxUHYZupyaPqehO91F2Rp8cG4v4zMk//SsJi9rpWuZfKMXyaHvGuN9K2vR9Q7oggpuV2K70B7rvkd70uB0dx0jQYQIFNu8oJ7105I19zNtdP6EpCABCQgAQlsTGCvTmUznCOHCAeKEJNm6tpB6TvQeo+Ke9oFWUN84CimXY8c3/T5XtdKl/3tOe06xI9z2xWuR5gQImTqzkApz5rlUsjZlDZrrbdrdM66mvLemKEHDkdad1P4W0cCEpCABCTwcQT2/J87oqLvZqvmRHWdk0DAPFv1+xytPe2CrBFyws5SO8SqZOFPXSsInbZAbPbHk2/mpma6RWPNsB7WAiKkmdj94Y3pXQl7KX8UETJHgDD+qXPbxbMr5C03t6yRP/UU6hKPufb8XAISkIAEJCCBHROo4XgsNbyuXYw+Z5FdkHa6xi9STDqf4UwSrtXlVD7i92OvCF1y3IiqJdKQo5frb8paSU5+X9305HuK0zpkb9c42ztlOeH5jA7aoiXHaKvP9yBA7jF4dhKnvIG+/V1tcqy9NraaI/uVgAQkIAEJSOBNYIpTuRa8obCMtg0Ii1eHYW0R859RBkepnS7xi9Krf9cYP0/gcbyGdg6m2JGcxCl1x66VJtO+uml+ltj5QWg2LyPo2gHL8Xi852EKrzXr7EWAIPym7K5do17zYUGTXd93dk2+9iUBCUhAAhKQQEUCY53Kil1nm+IJdbrWM1e4z0mhDZz4FOv/ij8jVroSzuZedkGwDwf6Hrnm9bDPaC93W1If67FrBYfy+m6sr27TnrHt59bE76NA+233baGa2wWhD9YFYnDPaS8ChO8XvMamoXC4JcTpWPssLwEJSEACEpBARQK1nb6Kpv29KcRDyTkQHJ8+YXGNz5pPV/sOo88JT6o97mZ7z/gLDjBjnJtoaykBgnjj6TdOPcxT+nP8AbZdqXl7U+1Y/y6ndsouCHY/3nMwl/9S9fcgQODNjtaUNLQu+TegK8RySj/WkYAEJCABCUhgBwT2LkBKz4GAcsiBbT4NH7qlZ8gR2nK6au2GlAq6rrEOrRUOfN96AA09wW46zrVfutgnKKfsgjC0PYcCzREgU67N7ZrqS/zyNeFLUrLTufd/pyYM2yoSkIAEJCCBzyWw9//YrzE1fbHh7VnrerqdyuAc4XynMwF9B2XHnDvZYtUgkObshkwVWN9EvzDsSvf45dA1xkPz0nScl3Dw2+dAsL/LnlKhC/vHFhOf6fMVn3ddKVxi6tYhTkPhV8n+rqu2S8ZmGQlIQAISkIAEdkhg7wIEZGOe7g7dwNN0lIccyTnO3BpTjFON/ezqjE3PqDAlBGvISW2GUXXZMyQsmjsySwgQxELXuZ72LsglypVeQtAXwjd2LmqWnzqv2DDlvR01bc+tH/raI/OaDGxLAhKQgAQk8FEEjiBAug4T903SUBhP80D60FP5ezQ+9ER/LwuEp/Zjr+udOrY+AVISPjMk9pphUlMFyPUtqjhr0hZlt/gd4WHtRDmc2mZ6vtvJzS8CkHA/xNNeUqntXfZO5T5m7Ol8EH01uZXuOK5h45jxWFYCEpCABCQggRkEjiBASkI0EoJX/IGn233pFh/gkOJEslvSlUqc6hnIq1bFmcMZZjwl6RqFSkPamu31CZCS9rDvWTAnU86ApPlMzbfFztBctu1qtzXEE96EBb1KoK9QpjSErMuUKdzHDKn9/W2GU/HyQURoLg09MMjV9XMJSEACEpCABHZG4AgCpO8wcR/KnMOL00i8/FBc+SM+39OVvDlneMwT+TEhbanfPgfwGgVygqbkxXTMMfNSKqSw6xIZBxaRkRL1EaDNdp7x966wM34Pt5RoBxua7w4Z4j5W/A21NfezezQwddcu932ZYxtMCbFqzhGMmaNb5K7dqa7+hkIA59hnXQlIQAISkIAENiBwBAECFhzKMY7h0LWdyfEZCusoDQ3ZYMo6u4QPIUXPAoMIP2q/HyNXrY/VNSrmBMhSa+zr6Jt5aqf2E/2hHbT22YJHNDZGeHaFcuUWSmzCAAAgAElEQVRYLvF5yTz09bukALlHp13CiDn6MvJlBIyl1tEIEywqAQlIQAISkEANAkf5T32sY5gLK+HpNU47jltfesUHU28WqjE3U9oYOm+R2psirobE2tCOytA7QKaMr1mnb37aT8txcvsOmNNGM2SP9ZATVG27eVEkImfLNDTGnF1LCpCSA+Y5+9LnzBPzZZKABCQgAQlI4OAEjiJAbsG5NFyDKekKxWlOVWpvaPxz4uq3WhaMuyQcC0dujLiaKkCWDJ25xhj6xEJ7XhGcfS+0bIvVsWyY6xLht/SaGLNL2LRlKQEyNnQyx8ebsHKE/FwCEpCABCRwEAJHESBDh4n7UPedW0jlcTR5ck0YTVe6xC9Lr2bd03TjiOYOSN+jzJgzA0M7SkM7IEvvDvSFk7XP9wyFYbXF6lThufW7KqaE1i0pnnIc/xqdUwa7r5F/nfkSDYngPX3/tEUCEpCABCQggQyBowgQhjH0FLtvmENPd29Riae0Q+EzU/rcw6J7hhHNA9ZtmxB0r8il52qGOA4xWtpp7BtH295LjHVITDbF6tQn9/BEhCBotkhDImvInpxQnzqWoRuuEB/X93c6tZ8TLEvupk0do/UkIAEJSEACEphA4EgCZIqDlXPEcZ5xOPvSlD4nTMMiVXJhQWPGNiRAYNx1yxSDytlQY+A4su1QrC57czsEzTqvaHNMiFoaR2691RhvXxuX+GDqjt0Suzd9O2Nd4oMx5exH2PVdnb0kV9uWgAQkIAEJSKAygSMJkKlPpoec53vwxDFFiHSlnFNUeTqqNseYhm4Do7PSHZ4cw75wrqXOF7RB3eIXzTNCXQeW22XabbzevHB0H5HH3IbVbGvpXZ+hRVI6n+02GDOClF0GOMxN12ig63xOn/hI/eXsL7nSea7t1peABCQgAQlIYGECRxIgoMA5Gvtk+hl1+sKRLm/HaygMa0qfNabtm2gE25NDyE/sxbnr23Fo99vliDfLlIq6PQgQRA7zRNgVDjMhOzj7Kd3ev4PZFx0TUBJ29oh67NpQn2t+p6a1hFfbPhiMuayha3w1BFTf7lpuRywXhrUV16nrwHoSkIAEJCABCXQQOJoAwUGc8mR66AYd2sRx60s5p2iJhTV0eBsHc8jepj0lDltJKNZQO9fosO82qlpPrPvGzBNzbEOQlKSS9YOTTLucYZiasAfxV2rX1H7a9UpEVq6v3BXWufp83sX5dwXrlnU9JKBqiKMS+y0jAQlIQAISkMCCBI4mQKY+mX4Gw75dEJyeV2TKdKVr/HLsuyHmTlkKA8JpwxnGsUR4IRYuIxovje1/vNvva3qqAKmxvnKCa4wIKd3x+X2A6NpFGYH+7+upb82NaWds2XtUGHPDWbv9EtGas4mxN3fp2M2DfU6Q5ebnDxXmJWe7n0tAAhKQgAQksDCBGg7iwib+oHkc8W8ndtjnWNEmuxy3nnbn9DnR1B9Uw2nDhrEJp+8yotIjyvbtLuWc0r4Dx3PX1z1sKnGmESG58y4JBWX73gkyAldR0VzIUVEjEwq9os7YUMXUTS5sr8Sc9nooFcK0PXSt85h5LrHTMhKQgAQkIAEJbEBgroO4gcl/PzT+8wkdP6NO3xNpPrtFxnHrSms6rROG1lllyovbusLNSt5mvoQAGbvbVfrOEeZ57jmJ0jnaKhQrt5PQZz+HxKeI3XZ7zfUwNmwq91074r9ZpevFchKQgAQkIIGPIHDE/8znOJB9T/LvMduXtwjpmvgux3zPC2Ss09ccyzX+QqhXOk/An3OhM88o03Uwfur6woEm7G2sM5zbqUnjZDyl70CZO881zlRMsWHK9+SP0RHzPydRP4UsloZeNfvrW0upTOkczxmDdSUgAQlIQAISWJDAVAdxQZOyTc8JieqLIb9Erzx5xXniZzvhhOfe1Jw1fIUCPMHG1scKfZU4jVPWF3OBA8vPsekVFUpeBniPciWhXWP77yq/5bmFWxiEeC4VW3OEaxo736EkQLrEAt/fIUGbm5utBF2NtWAbEpCABCQgAQkEgSkO4h7APcOI0qto2/b2xbjjrH35dmDbdZpO1R7G32XD7+KXJbsVS9jfFxY3dn1N3flojqkkFCvt7pQ65nOY1XDq5/Q/JhxrSthe27Yk1rvOIPEde0Xm+9uXKDMUIsc6p4xJAhKQgAQkIIGDEhjrIO5lmHN2JIYc1PS0mMPDzTTGiVuTEU7e451x7LZK9+i4a0dhzPpih4l5rZFKDj3DbcqVzmPs21IUNu3sE4jtsdS4Njmtha6dH+zg865dxmTLNf4wdOscdUsvHBgzV5aVgAQkIAEJSGAlAmMcxJVMKurmEqX+UlTyHwsR/sEuSF8YCA4O74Boi5Ch23kmmjK72uvtzGHzMzIx/Fuke3TaJUBKhAD25q7aHTsmWBD+M5TmrKGhdjm0Dw+c7b2k25txzm6E9tyU1kI7VCqFTpb8m5P7rpW0MXcc1peABCQgAQlIYCECR/6PHKd76nWqQ3HkOKa0zZuwKZeESs4pWmiKRjWLrTi+ZJ5AT004i7C9vsefnljjXHcJt+R0tvtDxD0yRtQWH6k7+m2LyLYpfXZP5Tbl0PXUvsbWe0WFoat5S+aqpM/EtC0+b1GZzy4FjeS+2x5EL4BoEQlIQAISkMBeCRxZgMwJw8IZYxekL30RHyBAKIfTxM7C1B2XreYe2wkpIwyob7enyzYcRHaAECFdibbSjgs/YcNcdO2ADMXr0w+Mazx172P8iA+GRAhjhFOtsyBbHjjPrbNbFOg7W8HlBczHmHXS1989PqAv2mumtCPEdyuXmLeh8Litz9Xk7PdzCUhAAhKQgAQGCBxZgODgzBEFuQO3OExT3jeytwWHU4lTyNmXknSLQmPfk/GKOsxHV+oKw8K5RBz1iZwSO0vL5G5NSmKztL2hciUH4Gv0M7UN5qlrF6TmwW7WGvOKKG2mZ/yF7xTznku3KDC0Bvcs9HJj83MJSEACEpDAxxM4sgBh8nKhGkMTnHNiaj8d33qx4QCyG/DKGHJ5c621K4AAwhmlX3Y7+DN9rJnWEpvsBl3XHNjIvuDP7lYz1dz9oF36YM7b6+wRv7t3/L5rCKyPoYcLtM+BeZMEJCABCUhAAgckcHQBcgvmY5/WN6eJMKy2o9T8HGf5CO//KF16OG6IkBQO01cPR3Gt92SU2j6nHONmJ6ZvrseIzXTI/BntsXsCq7SrcATHuPmdQXxcIyPkl04wHhPixVwNnVkpveBg6XHZvgQkIAEJSEACIwkcXYDg1Hw7cszN4iUhM3N2WWaYtmjVkgPHONhT37WyqPETG2ceh65vxREfuv6VbhEflGs60qxBworSmYWcqJ1oftVql2iN/Hrnqo1Xauwe7QyJ4JI1XMkUm5GABCQgAQlIoCaBowsQWPA0f+pZjZIn1jicOce05pys1VbOgcOxfkaeetPYWuMY00/u8PItGpt6UPsRdREhuTMnY+z95LJd4WJNHjXPrXwyZ8cuAQlIQAISWJ3AGQQIYTDcpjQ15Rxx2k3O5dQ+atUjZAbBxdN88uudU/uIBhy3a+Rb5KEQFurkxk5bz8i1zoPU4jC1nVwoFu3CrUuE5M6RpHWCYPNFeVNn6If1hq6+zu1o1bHAViQgAQlIQAISqE7gDAIEKDiWU51kHOyfZche4vM5N27VmDgOzeMcl8bRlwgz2mLsQ2cAaogQQpf2spNS8uQczoRVpTWVE2rN+YUl9dc4V1FjXe25jVz4IwfRS78Pex6ntklAAhKQgAQ+isBZBAjO4pczZq4kbv8R7Q+9m2BG90VV2fngKXxJYieEsDHEQy6VPEmeKkKaZya+CkP2cqC/ZL7TbtIr7CaXJurdIzNe0zwCue8c4vk5rwtrS0ACEpCABCSwNoGzCJBcvHiOa8lT8Us0svUuCM4W5xiGnK4p79jInY2AX1OEfBN/v0VGFA3tPLUdxDk7VX1zmN7OzvzkQs5SGyXjza2Zoc+v8SHCzqfzcyh+J+SGDqIvPY/zrLe2BCQgAQlIQAKdBM4iQBjca4QD2oaBo8hT8ZzD+Iwye7gZirHi/COccHR56o7w4Kn7ZeJaL9kVQITQ7yPyPXKOR3t9UXfqhQFdw6L/Zvhc6S4L/BivaR0CrEmYj03XqDB0AcQf43PKmCQgAQlIQAISOBCBMwmQUuezb3pK4vy/iMpzDrwvsTSSaEKEzEmlIV7084zMbkOuz7aouUed2u8XwZbfRE5nZErfC+P5gTmrpbzuJYreIjP3YxN1fSHhWGqWl4AEJCABCeycwJkESM5ZyU1FyVkI2nhFLg31yfW5t89LY+qTCMkdLG+LGpzQnAAhpIq5HHupwFghVjrWvc3R0exBfDA3rIUpaegmLNpzHqdQtY4EJCABCUhgQwJnEiBgfEaeEyJV8nblEid6wymd1XXJWZjUASKEnYfcwfzXuxwCj0P0ucsCKI9TSds1w7XaYHRcZy2V4srXd0m+m13pEr9kzvsS9Ya+054DKZ4KC0pAAhKQgAT2QeBsAuQWWEtDcLpmoMQBx2Ha+jD6kqun5CxIs/9H/CUnQsbam8TBNSreMw7o2LZT+RKxObVt631PgDl8vXObCyKWnRHK9CWE6JBo9RyIq00CEpCABCRwMAJnEyDgJ9xjbPhOc9pKzgY8F3KK97B8fhtGcJ5mTLpH4Vxo1Zj24Ns8XH6Lv9NHrdC3b6KtyxiDLDuZACIjhce1G7nGLzhTxXeuL5Wcuzrjv2OTgVtRAhKQgAQksHcCZ/yP+xHQ5zyRLwnpwCGes9Oy53XxCuOm3BBVm0nXpQD0QZ4TZgf7kgsH9jxHZ7HtHgNBuA79O3SJz3M7jiVvqT8LM8chAQlIQAISODyBMwoQror904yZKXHAear77Yw+9l51qkPH0+pH5Dk7UIkNT80Jk2I+2ok5ZpeG/sb2VRJmt/f5OYt99xhIToAwVtbA0O7XlF27szB0HBKQgAQkIIHDETijAGESOPCcu6FpaLJKHHBi15c8JL3lYprjpCMOnhOEQdd4mUdCsfpCeKiDCLm+89Ccc1aA8wRTb2Pacj7O2nf6DuX+HXoEgKFdTdYJYtUkAQlIQAISkMABCOT+4z/AEDpNvMVv54RI4UA3zyB0dTK3jz2zxeEfisvP2Y4IwWmcIwJTH7RDyFRpom92qJoJB3VIxJS2bbm6BJhbhEXu36GS71rJ2a261tuaBCQgAQlIQAKTCOT+45/U6A4q1QiRyt2SVKOPHaDqNaFkF2jIfvg8I28hQvbMVdu+J5AOmOf+HSoJq5y7Xp0XCUhAAhKQgARWIpD7j38lMxbp5hGtzjmMXhKGNDfUa5GBV2q0Rly9IqTSZJy4GUTqtWB87GANnfcp+b4WdGMRCUhAAhKQgASWJnBmAYJT898zAebeicFB6F/P7GOv1V9h2JTbsLrGM1cMpjY5M0A4luFUe101y9mVW0M11+tyo7BlCUhAAhKQgASysddHR4RTMufdEbkreS/Rfu6K0CMzzAmwMWPLOZClbZUcTC9ty3LHIXALU3Pnumqu1+OQ0VIJSEACEpDAwQiceQeEqZi7Q8GTdpyaoSfuZw7D+mWMnZujaqVaIgRhScw/7E2fQeASw8yJfd/v8hlrwVFKQAISkMDBCZxdgJQ4LbkpzO2C4KB/mWvkoJ//IezmoHDNVEuEIApxOL1Wt+bs7LutnNhfYr3um4jWSUACEpCABA5I4OwChClJ7xqYOj25XZCSG3qm9r2HekuskVoiBD73yIhE0/kJ5MQ+39U510efn6AjlIAEJCABCeyAwBLO5Q6G9QMT0lWfc+zK7YK8ovE5Z03m2LZ03aWuN60pQjycvvQq2Ef71zAjd7HEUut1HwS0QgISkIAEJHACAp8gQJimuQIhtwuSezJ75KVS4zreSwD4t8j8ZC4IlYFpTRFCeA7OJ+2bzkvgb5mheR3veefekUlAAhKQwEkIfIoAmXsYneke2gXBsc4dkD3qksGhn3Md76+i/r1j8IiPdMh96H0t30Q5djjIiAxYE/bGnLZfcoio+dm73FF5a/cwgVxI5dz1Kn8JSEACEpCABBYm8CkC5P8Fx29nssztguQOyM7sftPqubfCdxkH868jXwcsTwfJERPskHQlHEr6p2wz0T47T23xQjmEzWNTYna+FIFbNJy7jnfKel3KXtuVgAQkIAEJSKBF4FMECMPGIZ3zZnTaGArvqLHLstcFOiUMi1j9a+GA7lGO8Kn2jkaq3rf7hAh59tTzStZC+Acrdgl7c7uNU9brwTBorgQkIAEJSOC4BD5JgNS6rarvZWc1dln2upJeb4HALk9J4gn1raRgowxtw/afO+qxq8FTbexop2v8ou9gMqIQZ9R0LgK53UY+Z72YJCABCUhAAhLYIYFPEiDgzzkuJVP0jEKcM+hKj/jl3F2WEhu2KFN6vmKpnaCh3SfmpC+Eq/bLFLdgb58/JHCPv3K2aCj5VnRXjQQkIAEJSGCnBD5NgNxiHnLx42mqOPzMrkbXE/m+qz6vUT53TehOl0KRWenMBgeBu9IYvkUdtgr1OZW5fg3HmkJ7v3VKdjMVnvudPy2TgAQkIIEPJ/BpAgRB8eoRFe2lwLkDDjk/I7fPJtBG18Fo2uCzs74TJDFCgBDaBBsSDuGvI18X/j717YKUhL/5foiFJ2fl5nPfsz+usB5XHrLdSUACEpCABM5B4NMECLOGqPiyYPqSs4tzS+hWW1T0HXS9RdnSXZYCM3ZfhF0RGK2V+nZBEEU/HzBi6BzJWrbbTz0CJd9j3orOvJskIAEJSEACEtgRgU8UIJfgn7tFhyl6RU7vv+gL+eAsyLNjPql79l2QrZZx3y7IPQzKnQvwcPJWs1a/3y+iSa55HkqG3tXnbosSkIAEJCCB2QQ+UYAADdHQd2i5CbX5tL3rcDVCoysUa6mD2LMn/CQNdD3ZvsbYSs7f9F3pexI0HzUMdje6zmglCH+IPyBUTBKQgAQkIAEJ7IjApwqQW8xBSZhU+yBrV5jPI9riSWszjTlrsqPlMGjKX+NTwl6a6Rp/YXdoyAlcYnx9B4z/VtCZoVgFkA5ShO/e0K1zzDVi1SQBCUhAAhKQwI4IfKoAYQpekXNhUu2QnT5h0RXqcaZdkD8HK8RGXzw9IuQWmafNOaY1lj9zl8Ljmu0xX30vM2yWG7rSt4Z9trEOAdZc7kGCYVjrzIW9SEACEpCABIoJfLIAKRUIhFjh2KbUFXuOY855kGY5yuMor+GQF0/4xIJjbpC6Rh84hku/D6XrMPpjRL8eUJ64GHZUjQcC32bsMQxrRxOmKRKQgAQkIAEIfLIAKQ2T6rrtqisUC7HRPg+CI557QnuElTjlpW7wReTBYAkR1hWGdY++cgfRE2/Pghxh5eVt7PoutmspNvMcLSEBCUhAAhJYjcAnCxAgPyLnntR3xZH3iRd2QNgJaYYqlYYFrTbpEzrqu+2rtClECOKgphDpCqO6Rh8lB9Gxux1eVzoWy+2LQMlOpi8l3NecaY0EJCABCXw4gU8XIJeY/5IrebviyHGqu3Y3nm8RkpbWGKd4r8uxVhx9TSHS9aK5kpCcJmOfjO91xZXbVfIdVmyW87SkBCQgAQlIYHECny5AAFwSwtEWFWli+H3Xdb6P+H3zZiz+nttpWXyyZ3RQ+9A252h4cl1yFXKf2V0ChLLsPpXeyjXmbMsMfFZdmEDJLuOUMMKFzbZ5CUhAAhKQwGcSUIB8d7tTSdhOlwNzibp9OyhNEUI5nKRSx3hvqxGnnvH33YI11V7Y3yJPEWd9h4uf0V6psPEcyNSZ21e934Q5X2ZMcq73NWdaIwEJSEACH0xAAfLd5L8i584n9O0C3KNu38Hn5pmQklj1PS/FJePoCZ1CiJBLrtGFU9+5lBJnNHGe65Re3uuGd6S0b0Db81yezbZ/jQH9KTMovuNdVzefjYXjkYAEJCABCeyegALkuynC8c3dVtW3C5C7TaspQp7RT+nT+b0tHhy4rre+17YTp54QLXIXK5x9xNyjp+OSuUxV54aWNfvCnmbYXW0utjdMoCT0rn2ltkwlIAEJSEACEtiAgALke+glDkzfLkDO6cV5xznl55FDsebuGExZ4jzdRuSl9Mw0UvI0PDXRd46k1M72ofdah/VL+7fc9wQe8cdcKF/XldoylIAEJCABCUhgZQIKkO+B3+OPuXdIICD6wjhKDsLSB8xz/ay8DIq7Q6TxFBkOe05/KzSuhqBqOr412suZfokCiCwuTzB9T+AWfyzZxeTmM5MEJCABCUhAAhsSUIB8Dx/HruRK3r6bk65Rv+QwO0IFEXPUA+k4vjDYc3qGcSWhbjUEQ3Pd1GgvxzWF/H0dBQ35+p5Wezeqj6M3n+VWmJ9LQAISkIAEFiagAPkh4Ef8NRfGgXPLAeiuVOr4Ljytize/dyeu9CB6rZCpWxC/R75Gfi1O/7u+2EVjvSpCvgdesgs599zPCtNrFxKQgAQkIIFzE1CA/HB+L/HXkl0QdjC6HM3S+kdfVXsPxeIAOzsEudR3k1au3taf87QfkYVYriWith5Tjf7v0UguvJG1axhWDdq2IQEJSEACEphIQAHyj+Ce8atc+M7QU9TH2zGcOCWHqcbTZs6D7DWVnAM5+vrnNjCc7mtkrwEuf6fP3nfw9vqd0i4JSEACEpBAFQJHd8CqQGg1gjOXO8vRdyUvTV0il+yiLGH72m0itvYaAsRZlZ9ngJzBEWW9kZ9rT/5O+ysRnoZh7XTyNEsCEpCABD6DgAKke55x5nK7IEMv5sMxz50lOcMK+yYGcdup84tduVuRdETPsAp/OIaS765hWOebd0ckAQlIQAIHIqAA6Z6sEuf1FVX7ruS9xGdn3wX5c4yR62D3mtJtUUO3jemI7nX2ptt1j6q5cyC0fobdr+mUrCkBCUhAAhLYkIACpB8+AuNfMnMz5MQ8ou7Zd0H2/mbpkjnQEd3wH6DCrtnJ4mIBDt5z1fFQusaHuRBK6rv7VQjfYhKQgAQkIIHaBBQg/URv8VEuhOcZZfqu5L3EZ2ffBYHePTJvmGY3YW+pZA50RPc2az+0pz2Hj/g4d+6o5ByIu1/7nnetk4AEJCCBExNQgAxPLk5K7oWBfVfy0nLJQegzLC848XQaZ/61swHhsOZ2oobmcGfD+ThzrjHi9o5G7urhZ9TJneECpLtfH7ecHLAEJCABCeyBgAJkeBbu8XEunnzoCXqX87SHeV/SBhx+mOAE7iFxFoQraofC6QjrYa5N+yPQ9R0auoWOEZR8bynn7tf+5luLJCABCUjgAwgoQIYnufQgM0/Q+0KQXhnn96zLjHHjCP5hgM1aY+ew/J8GOss5tLXsZEcMIfR85z/ugE2tsS3ZTldI1ZBovIUxufDJZC8vJdxj+OCSPG1bAhKQgAQksCkBBUgeP6FFX2aKDTlDvCzu1/luTlviFSODIc72li/L4xDzI3JfSB3nWJirJdMzGm+HBiFKyDyNH5uuUQGRTP0zJ9ZQewdr6AxHTnA2WQ1dp31mpo5NAhKQgAQksBkBBUge/SWK5A6TDz1BL6mft+IcJRAgj8jsiuBUrp1wTNMuRFffXCjwXNAo2u47m8AawjbEbCkbRNXXb6a5g9kLDmvxplkzXed4hm5hKzmIjuGsSdoxSUACEpCABCSwEgEFSBnoPgeoWXtoF2TI8SyzYLtSf307uOkp+yX+zo5G7nB+zmKYbnVW5BZ9k9tiABGAM/rKGT/xc8LAEEG5BJtSIYLNzAV1zipCmKuukKqhXasx37m9XyedWy9+LgEJSEACEjgUAQVI2XRdoticXZCjhmHxssFr5HaMfElYWhnZ73YcaI9dkbUTT79/0uqUsbITUhIuxrpAxLATAaehs0B0U/pUnrLYcY+Mkz2UHvFh2h3gz2cUIYSZfdsBgbA+uHelMWvUw+iZRebHEpCABCQggZoEFCDlNJuOXl+tvl2QPgeqvPdtSvY9YX6GOSXXnI6x+hWF75GnnIUY00+z7CX+gtDo2s1JtmBXM7GD8fPIiI72bsbQ9bBT1wCsuS62LQKTTe3zDqzTM4qQrjUHEw6Rd6Vb/LL0IDrt5MTj1DVmPQlIQAISkIAEWgQUIOVL4hJF5+yCEMKE43q0hOOH7Tjq7Ijg8Ja8aXrqOF9R8R55LSGSzlH02Ys9ZOafPJSGnqRfZ3CDPaKib1eGOWoKwjMerL7FGLsExdC/YY+ok3sHTJrPIfE4dS1bTwISkIAEJCCBDgIKkHHLosSh6dsF6XOgxlnwOaVfMdR75DWEyJhwnaEZqPVEvquPoaf0XSLqbA41O0isifZuFTsX/L4vlQp/xJ2H0T/n3xdHKgEJSEACGxJQgIyDf4niU3dB+hyocRZ8Xuk1hAhz84zcPg8yhXbf27VriBycZM6ndIVjwal9Ve3Z3vT9iDG2dzTgwdz1pTFzm2trynqwjgQkIAEJSEACLQIKkPFLouSJat8uSJcDNd6Cz6yBg81T/SFncw6Z9lmKqW1xmJ4diXYqvQEr1y/rD2HRTrf4RTtECaFSeqA+1+8ePu+ao9wOCHaXiv++udvD2LVBAhKQgAQkcBoCCpDxU3mNKrkzEH3hMrWc3PFWn6fGM4aCwONn7XSPBn9VodG2U3yJNnM7Z2O67dvZeEUjXS/sO9MBa+a9ed6l9N+w3FmfxL9E0IyZK8tKQAISkIAEJNAiUPqft+B+SKDtBHXx6dsFKakr7zwBOHLYuu9gdr6F7hK0NzcUq30Y/ato89dTDeqoh9DAUW6nW/yi66D2UOhWRbNWaeoavTQfAIz5N6zkuzd0kcAqA7QTCUhAAhKQwNkJjPnP++wsxoyv7QR11e3bBSmpO8aWTy/7CACIPZzyGqnWLlV6uR3hP4RfXWoY12ij65D5UKjRmURICoNMt7KVor1HwdwO19Bh/9J+LCcBCUhAAhKQwAABBcj05fGMqrl3YfTtgtR4yj7d8mVy4K4AACAASURBVHPWrClEahwYx5GlHUJ/EDW10ysa7NoFGXKyzyJCEHOMBSFyGwG2dF77vrcjurKoBCQgAQlIQAJ9BBQg09fGNaqWnAXhSTjOYjPhNJW+JG26hZ9XMzn9vECRP09NpYeWp7Zfq17XWZCc7Tju7J7UDl2rNabSdu7v79WjsALf168jwyeXWDt9LzjM1fVzCUhAAhKQgAQyBBQg85bIM6rndkH6YspL6s6z7nNr1xAit8C3d5HYt7ZwyodewAefM9yOdXmLkKGVjuAg7IpzOGNSV4jbmPqWlYAEJCABCUjg/2fvTWMnyM79rBFLWMO9Q0SAQJIelrAmd5wAISxyG4lVEI9ZxAeW2xcQEmLx+AOLQOi2JQJILB5/AAQfcFtIIAjIMxJSBEhxG4EUAtJcQ9gDbicEBRKYa/bdvM9Ml11T0911zqntVNVzpKP/0lXnvOd5T1W/vzpLPSGgABnWNY5xet8oCDUQ7CE42in13GEW7vvsoULkFvi6u0rVRPTZeoVDGNm36xZtY3RuyEhRTSwe2dIIj5RRj+758Hk0xa32NmufBCQgAQlIoHoCCpDhLkJY9I2CcAwipJuaxbTDrbCEVwRKhcg5Cu1btLw0+Wdb8qb0ra2sCen6gDU3jF4NXXvjKMjSvdv6JSABCUhgkwQUIMPdeowiUkZBHgUzhzi370n1cAstoSGQK0TW4J9n07BS++XWRMgpnM2WxyWjHt0r5Rb/cBTE+4cEJCABCUhgZAIKkHGAXqOYvlEQgplHU17O8f/an7KPQ6muUi5hDovV+xZjI1p+oi7TP2XNqwXT9LmUKWSMljx6u3rFzX5o2jH+m/IwIKddjoLk0PJYCUhAAhKQQAIBBUgCpIRDUgOfR9t78qSWIDglUEwwxUMyCcD+vcgfRH60HuKHmeUtcfizaVgsvE59ASJiLHeh9hJtfVYn1xGjiWOMfLTruMUfW18rU5MftUUCEpCABHZAQAEynpMvUdSrnYeoiQD30ba8x/j/2E9ux2vZfkq6RlPJzajIKX5/ZwXNfzYNi2D8owz71/y0P+X6y0DxqUN9L0gpOc+TgAQkIAEJPCCgABmvWxyiqJT1HM+mu0wZQI3XSkuqkcCraVgpi9GbNlHOGrfnzRVauT6EC2tBHo2Q5Zbl8RKQgAQkIIHdE1CAjNsFUkXEo215nYo1ri/2VtqzaVinAJHzPhNGfxilW1PKmWpW2i5HQUrJeZ4EJCABCUigQ0ABMm6XOERxKaMgz4K8Y5zvVKxxfbKX0ljD8mi6WMnowNqC7ZxRntL+8Gz6ZGl5nicBCUhAAhLYLQEFyPiuv0SRfWtBqPXZfHsWRH95fLOKSvx+nIWoIr0dmSfNKW0rqsyTPkPgu/GfZtoP/Pt242Ka0O0BRwTvT2XyfVZWZjGzHM46l7EXnz8y/Nlam1kaaSUSkIAEJCCBrRBQgIzvSQL2lFGQV/PKSwLG8VvySYndQJT2XSL3bTs8lT17KPc70chT5Funscf4+/yC/bMAGX/lCsdrnMNUwTWkOXcqY3pas0nBGthoowQkIAEJSKA6AgqQaVySGvA92/qUp90EgH1PvKex/tOlPpsultrGOWzcWh19ow+vRskeBciIlpJ3zTxaq1Qb62MYNOe0xTUJs9p8pT0SkIAEJCCBjwkoQKbpCEwHuSUKiGdB3inOz1k8PE1LPikVEYKd3V2AapouNmX75y47JfB/tu7hkWAs9dMagm0EyDkybWz65yF+5/+5oz6pfk7xT2pZHicBCUhAAhLYHQEFyHQuJyhKeer8ateh0sBxilZhJzst3TqFXyYM9KZoxxrKJJCG9fWFsa9ELufhF3zFcfxeukaibzRmaZ60qyuMG5sO8QvrlsZeUwVXuJgkIAEJSEACEiggoAApgJZ4Ss4oyKtdh2paD0Kgx+J5nr43iXZi4xre5M6Ut7btBKjk4/1nbW24hF30jduTPsfnUz3lb6pc+xvSaQc+xu+5C/FfXepfiQ95QGCSgAQkIAEJSCCTgAIkE1jm4Tx9/VrCOQT2j96Qzqk5QiahqlEOIZhDiDRPnk/xey3TxZ418BYf9D21JlB9O/I7kY+RaxEk8Caz1W77aX9q/xri9FcjdEPKXeLcc1SaMiqZYht+oD89G31JKcNjJCABCUhAArskoACZ3u0EvimB7DWOe7brEEHxh9ObmlVDdzSkppGaZw3JnU50uAuRRpDUsCkAQoS+wk5ZiNM5FmDncsvqSDMffIr6GLkYw5f4gqlyJglIQAISkIAEMggoQDJgFR5KwJM6OvDsbdZUnVNOoalFpxEMMx3lGDlltKeokpFOGvo0nzY2YmTM6TwjNW+yYra26BpBT78dQ4Rsjc1knciCJSABCUhAAg0BBcg8fSF1dKBvWsclzJ16zn8pEZ4GE5zXnmDI9LGh6dASI18cWljl528xyB5LhNzCd31T+yp3r+ZJQAISkIAE5iWgAJmH9zGqSZ0q07fo9xpl+RLA136D4TkyQSYZ/m2RcIm/xxAhjRVMhWpGRvg5xpP1eXpmWi1bFCC0/BQ5dXTyFalXm0ikEfYoCUhAAhKQwI4IKEDmc3aOcHgV8BHsUtaepgDleukRP7gRcLJwmzU5Y4uQto3HuyBBjKSs/8lt39zHr30NCL5/tlj8HJ8NXZhO2c82kZjbV9YnAQlIQAISqJ6AAmQ+F+UsJO9bqzDW9JH5Wj9vTX2jSAgR8vcis35lyp2MDncxgighr2105AdhMwH8WhOCE4Hx5osGXOOzoaOKlPFsE4m1stNuCUhAAhKQwCQEFCCTYH1a6CU+SV3D0Tetg2A2dVrXvK1cvrZbmJAyLx+GjFKcI08pQtpEEI/4bS1B/TfD1tPyLi224KM7675RRfrMUHH4ahOJ4gZ4ogQkIAEJSGBrBBQg83r0ENXx1D01Ma2D0ZBnicBwjDnsqfYMOQ5BRZAPgzmmJuUEg4iCV5yHtLt7bs5I2Jj1lpa15ulX7eujT9DTJ79VCul+Hv0bXnOJ2YHmeroEJCABCUhgGQIKkPm5n6PK1DnnfVOxsP69yF+evxnZNXYD2WOUQICYOiKUWyEv7SOorCkhPghyDzUZ9cIWFupfVmLrIzOxvelffQKE86+Rh07Fej/K8N0gK+40mi4BCUhAAtMTUIBMz7hbA1NvbpFTp3ukBE4EPbVvBYuYYhpM9+kwQTkiKifw+34cz9x+yuL8w/1nuww+ezXvf07PYx+i8zRnpQPr6ltHM7D4WU5vpl9RWcp1dIzjHk1r/O69j9JPU67bnNG3WUBYiQQkIAEJSKAmAgqQZbxBIJozdapvKhai5hq59p2xEAUEZ9jaTQiKc2KAd4vjnq3xIIgkUxcB45IJUYivaxuJecWERef4YWl2Y/iNftLsQpYiQKjzErk7Ktdcf4jda0IfdSrWGN6zDAlIQAIS2CwBBchyrm0HR31WpEzFOkQhHJfyhLavvqk/J8h7tPtUaoCHfZxfY5BMGwhgT5ERhmtK37nbTd/cQkLUfu3ekNT+gv8+bDW+uwsYfk15eOBUrC30INsgAQlIQAKTEFCATII1qdBjHJWzi1XKE9xu8JRkyEIH8ZT4HJmpPu2UM5pT0xoFRjsIePHrmhIBNsEyvrityfAEW+lLiHJGQfpGEdvFXeOPZjofoqzrU3ilTHl0KlaCkzxEAhKQgAT2R0ABsqzP24FOiiUpQdQpCkp5QptS3xzHEPQS/LLda5PagWOfDUuLEGxlYXk3SO2ze8nPCarpe01e0pap60aUc00gDlNT+xp6tBYGn9Nv+0YbnYqVStzjJCABCUhgVwQUIMu6+xDV52zLS8DIQu6+xNSkNeyM1W4HAd05ciNEcqZjLSlCGMU69jlk4s95ys+uX88SbMkcR1Bsek0AgcECdtKzkUd8njKC6VQse5sEJCABCUigQ0ABsnyXyBULqXPZCTZrX5T+iD6B8iUyT54J8lLfzcAT7u50rqm9e4gKcgTklPbA7Ry5PZI0ZX1bL7uZZvVqGlXqtZt6zW6dqe2TgAQkIAEJfExAAbJ8R0idztFYyhNspmIRcL5KueUuT+LTFtBOgkB2u0rdovcSxzIaMmfCD81OS3PW+6wuhCcB77UGY1ZswylsZyojI46vWKYI/dRrdsW4NF0CEpCABCSQTkABks5qyiN5et/s1pNSDwFRylSsYxyXMk0kpc61HHMJQ+cUITlTxeZkyNN5hIipjMAhTmN0q0+ApAp9hAoPDkwSkIAEJCCB3RNQgNTTBW5hSs6T9NRpHecoN/XN610aPLmlnlPk1FGIGogS7BE4zrXeARHCaE2O/+bgBAemENG3TPkE6D+HhH6UKkJTdrLLt9IzJCABCUhAAisjoACpx2HHMCV3tCJlVyxamDJN5BmJ5gkw9l0qDLKf2T23COFJ+DlybYv/CaLxITxMeQSucTj9PiWd4qCU3edSr9mUOj1GAhKQgAQksEoCCpC63EbAkzPSkDqt43APQPu2DX1EgwCWdRj8JMjmSX+OjUsSTuUzpo08DWf6U22MltwpbEy+c5aFH5kemZpSRMgtCkOEzDU6l2q7x0lAAhKQgARmI6AAmQ11UkWHOCp3V6XUaR3nKLt0KlZ3NOESZfG27zUkbJ1zTUjD5Bi/wLwmIaIIyeux+I+ck05xcN9ICCKeqXEmCUhAAhKQwC4JKEDqczsBT65QSJ3WMWQq1ppFCCM4t4VcXZsQcXF6ekfAd9f0w390JCIEzq9GHFPXcBVU7ykSkIAEJCCBugkoQOrzD9OcCPZzFjQTXKdM6yCgyl1n0iaEXTxFb9YTXOL3GkZCsId3gMCOKVCH+08CwO9GficyjMZK1MOuZU09/N0kptY8Wm+BXe3jxrKlpBz8tsSoUImtaz0HfzPS8ew6pp+4Nmet3tVuCUhAAhIYREABMgjfZCcTMKe+gK8xggA8Zb46QdEXB1jeDpwIqK+Ra3jhIXYRVNO+qRPB5YdTVzJx+Zc7r4mr2XXxXB/nyM82JuiOKu4alo2XgAQkIIH9EFCA1OtrAvvc9QN97yygtYfIuetMupQI9plCQhBbWzBOwMe6mKkTba9h9GdIO2mDIyFDCKade4zDmJL1SKjrgzSGHiUBCUhAAhsioACp15klQuEWzUmZijVW8MyICyMvBFc1bT/LKAiBNUJpynSOwnPX60xpT0nZPoUvoZZ/DiLk2fRHNwfI5+kZEpCABCSwYgIKkLqdVxLgIi76nmqPOWpBfYiQ2qYk3cImdhp6tB5jTK8TWCJ4SrY4HtOOIWUpQobQSz/3mVB3PUg6Q4+UgAQkIIENEFCA1O1E5pATHOYsSKdFBN59ayEI0HPLfUYLG7H1UBnO9lSxKU2j7ZfIQ9bWTGlfStkGwSmUhh1DP+G6eyRWFYHD2Hq2BCQgAQmsiIACpH5nvRMm5i5IJ5hsXh74rIVMn2Inpz0kxEHfqNAYHE5RCE+51zoaMpdgG4P1Wsugjzx7TwgPDXw/yFo9q90SkIAEJJBMQAGSjGrRA69Re+6C9L5g5hBlDl2MviiUzMrnesK8hdEQBBubDEy9hibThZs5/NX17PtBNuNmGyIBCUhAAs8IKEDW0TdKxULf4tZbNH+saVhrIElAzRNmAsCpEyNXBPJrHQ2hb9B/5mA1tS9qK79vDVbqi0Vra5f2SEACEpCABJIIKECSMFVx0DmsyN1xiYCbYIZg8lFilGTN6xZKHcP0MxbOT50YDcFvNe0QltvmS5zAtsbP+lBueR7/CYFnC9L5LGUKpRwlIAEJSEACqyWgAFmX6wgCc0csrnEO7wd5lNb+lH6I9wis55pmdLwHnDW8sLGUGbwUIqX0Pnte3wYTr67b8aywJAlIQAISkMACBBQgC0AfUCWB7LN3Cbwq9tW88kOcSHCZu8ZkQDOqOXWudSFNgxl5OUde67Qs2kFgTH/5IPKe14jgyx9GHjKS1rfBBGVTj0kCEpCABCSwKQIKkPW5k+Cv5A3cffPKtzYa8v3gxFx7Ajjys6CfIJoRIsTI1Imn3uxodpy6opnKhxn5FvnaqfO78feWBQrtRbQPFbFNOc9c1reOayZXW40EJCABCUhgPAIKkPFYzlUSQSwBX+5TdAIlRMirtIUdnJr2wYitiEm0q0+IzBHovZr3P1f/masexMc58pARgrlsLannEic1DwLoa4hYfuamQ5zwaje6OQVyru0eLwEJSEACEigioAApwrb4Saew4Nm7BF4Zxxx+gsK+tJVAuTvq0ydEYAOjqRJTdvaWEL5MAbxurOHd6VNDRkLod682mLjF5/TlLY8obax72BwJSEACEnhFQAGy3v5BQFeyboMntSnB4CmOKxE5NRF9FhS+EiKXaMAULy2kzo9qgjOzLVNxnbkZn6oOYdDeFILr6tmGD6/spG/QV19tMFFa9pJ8rFsCEpCABCTwkIACZL0d43APWnKnYhE0pT5NPcax70fOraMmqq+eTD8TIlMFywSRJaKxJp5DbMEXvIeFPriFdI5GdEcuUkcZu+3vjqg84uOi9C30GtsgAQlIQAJvKEDW3QkeBUApLcoJZN6OAgmc1y5C+gLfU7QRns1T6ClEyBZYpvSvV8cwjWiul0EOtbXv/EMc8Gj9Rt+GD8/K5TrrE6hzrFXqa7efS0ACEpCABAYRUIAMwlfFyTxVLnm/ROpULBq5hcCZwJfgjRGdV4m2nu5t5udtZC9T5tqnto2BZCuB9CVgdHelu8b/SqZiHeK8VwvSG+6lAmcMv1mGBCQgAQlIYDABBchghIsXcAwLSt4NQmCdOhWLRqZMEVkcRoIBBIcEv7R/qXSKihUhn/jhspQTRqr3EOU8Eg3swFbSx85x3qsF6ZiNmKZ8F6WP5ESLkYAEJCCBeQkoQOblPVVtpbtWMRrAdJjUtKXAmUCPqWhLBXHHqHvt62tS+82r47YgQuhL70ZuT1PMGWFs80lZkM7xQ3bdGsNvliEBCUhAAhIoJqAAKUZX1YmpQcsjoxEgfdOS2ueVip2qgN2NQXwQOH5zIeOY7nWJXDKFbiGTJ6m2NFifxJjCQrkGGSU8RKZf4ddScZs62kgdU+zYVojA0yQgAQlIQAJpBBQgaZzWcNQxjCyZipU7nWOI2KmV4y0MO0deQojAEwHYt/i4VnZj2EUfZDogfjB9QoA+8cUEGKW7biUU7SESkIAEJCCBaQgoQKbhulSppaMTuVOxeHL/4VKNnLBeAuBz5CWEyCXq7S5mnrCp1RXtlKJPu+QQf8IkZfe53FHM6pyvQRKQgAQksC8CCpBt+XvI6ERuEEOg3rdYdq10lxIiexchtN8pRT++alKvMUaQmMaGYDFJQAISkIAEqiegAKneRdkGHuOMOaZiYRiB+qu3N2cbX9kJBHaMKs25WH3vImQLi9LH7MaIipQ1QlyLObvajWmjZUlAAhKQgASyCChAsnCt5uDU+ePdBuVOxTpFAXvYTnZuIVLqv9V00BeG5q5J2kKbX7Uh54ECYgURYpKABCQgAQlUTUABUrV7io1jKtYtcsr88W4luVOxqGfLoyBdPpf4Bwt/afdU6RAFp87/n8qGJcvNFcJL2jpH3Tlru+ifTmObwyvWIQEJSEACxQQUIMXoqj8xdSvPbkNyn0Afo4CSKV/VA+wxcGohkhN0PjL1+/HPNQvDLWzNO1Yfz13b5c5YY5G3HAlIQAISmISAAmQSrNUUWjqV5xotIABMTbeVB7up7Xx03FRCZIiwa6+jIHilrCanrCdotxMhc77/A1FUMqpWwje3D5bUsaZzcvuDa2nW5F1tlYAEJLAzAgqQbTt8jKlYlEFiZORZejc++Nq2Ufa27hJHjD0164e9tT4+4FXwfohTGB07RU4RI2+2fJ8bBBea/6PTtjgKAnf6SknivNStmt0Zq4Sw50hAAhKQwCwEFCCzYF60ktKpWLew+q3IPPXmJXmvFrcOETqLwhm58maxOkJkaILpRwMKIVj9SuRXwvEQn5/u+dl0rbYAwRz6xVxTu65RV85I3ABcs51Km46FteVeZ7nTKQvN8jQJSEACEpBAHgEFSB6vtR5dOhWLaRwEnKzx6JvScYljUp/OrpVjqt0sIGcxP+xK0ylOHLrDWI4dBMXU2fUhbcC3lNUIrLdLG1VwHsKXureSrtEQRgxL25T7QIF6EHGvhOhW2NoOCUhAAhJYCQEFyEocNdDM3CenTXXNE1RGQZiu82oUhKB0i29HL0UPu3Nk3iFSkmA5RqCPHYhHRGhKOsRBp8gEyXOt93hlF/ywZSvpGg3hekr1x6N25z5Q4HgEsUkCEpCABCRQBQEFSBVumMWIY9RSslsV04kImG6RCYj5+Szx2VzTc2aBNkIl1yijGUlKLe4cB479lnl8iC9Tn4QjWnnaji1L+pQ+xVTArST6AxmupQnfMLKR45etCblSdp4nAQlIQAIVEFCAVOCEGU0gCP1yZn3NKMghzuN3AsJnqaT8THNWeTjcGgGQ0oDT/fixRyDwHWLommJE6xjsOUfOCXgzq3h5+JamYTEagXiA55B0jJNzHyj0TaMcYo/nSkACEpCABJIJKECSUW3iwJInpzT8m5EJQvuS07BeEyLwZGH4tQ9kfA5LgtUpgv7L3Y7U0ZDGXPrAeSKbXiHZ0nstYEg+JvSBvkPwRe5I2RZ3Fuvj5OcSkIAEJFAZAQVIZQ6ZwZxSkcA0mFuCfRwzRdCcUPVqDrmEpSlb9iIYESHsQjZ2QnywtgJxmZsIfDm3b4Tmg3ufyR1169qzJQFC2/Ap09vGSIjalO2Um7rwOyKE80wSkIAEJCCBRQgoQBbBvnilBJC5T06v98Clz3inYfUR+uTzZloWc/P7RiIuccxUO4zhV0ZlcgNSxBG+fmVXs4Uvwfa30rA8POo78d/jgPO3fCoPFPBhnxhsM7jFH0xr6+t3W+Zm2yQgAQlIYEECCpAF4S9cde6TU8xNmb5BoJg7N31hFItWTzB4jtw3EnGKY4Zuy/uqoZf4MGVUplsG/ubcR6Ne7VEzRkxKX1apAHndRUvYcv2/2tVu0YvCyiUgAQlIYNsEFCDb9u+r1pU8OU0NWniymvNEdr9e+HHLU9aHIEIYdZiSLdODGJW5ZjiF0ZBz5O5UK8pqb/96eyJU+qpSgPQR+kQE5o6ScQ4L000SkIAEJCCBWQkoQGbFXV1lJU9OU3bSKQmGqoOzkEEE/oxEPBMAJcKxpCnUjx/7RmbaZTPVinPaAglhhRChvHPkY4ExW1sD8gwBnFjvwzXG7zkJEQjjnPUglL8XtjksPVYCEpCABCYmoACZGPAKiidoyVnkzOgGU2tezR8/xedTThdaAdbBJuKXZ0JkLhFCI26Rz5FZUJ6yZgDbGKXJ6VN9sFKm/vWVsYbPPwojERKkFKHfbdMh/oHgyx0hK6lrDTy1UQISkIAEKiWgAKnUMTOaRcBDkJkTtPQ9NaVMginTcAIElAT03ZEIRhuGLOzOtQzxgR0pi+Yp+xj5FDl3WlDXLoQPbd1DukYj28Kt5P0npf2ipK49+MQ2SkACEpDABAQUIBNAXWGRJUFLe4HxoyYzheSLK2RRq8m3MKxZn8HvpMsIAX5Je6k3dcE6YpT+Rc7tD9+Nc46RU0ZeStpR2zndawY/l+xWdY7zcne5gzF1NX2rNjbaIwEJSEACGyKgANmQMwc2hafbOe9ruMbxTI15lk7xgdOwBjrlyekEieTDPU9TS3+p9IFX61W6JTRihGlax8jP1isgPOiPl34TNnXEOVrTFQ6IkvZC/tQGlzwAYLSNa3ovgi+VpcdJQAISkMDIBBQgIwNdeXEEIDmLWF/Nzd/6NKxu2wmqaTM/m5zDcs1d5xbGEzynrhNpt/UQf5CbRB/cawBMv/nwQUdAgCAochJ98Zp5PVM+57x6sJBjg8dKQAISkIAEHhJQgNgx2gQIgAhAUteD3OJYpmI9SyVPYdfkEZ7SsyYCDs/SMT5opiBt/Q3xCAeYsF7lFZM1+XhuW+HW7SdwRRQgznLS4X5O6vXclH2JX1iYbpKABCQgAQlMQkABMgnWVRf6blif88K4VwvSCbznXCi9FHiEFkEbIwCv0ik+JEDPDQhL2vWDOAlfkg6R8cWcIzLwQIhcS4zf8TnnaPuz9Rslu1XlPlRo0H/l3ld37AqbLgEJSEACUxFQgExFdt3l5oxc8HT21eLVW3y+9Sf/jbdhATtyV4wgAtjhCAHC9Jg50ptRSXs6E/UiRE53W+aw4RqVXCJ3d/Gao+411kE/+d4Lw0umYz2b2tXHp6SuvjL9XAISkIAEJPCGAsRO8IgAgSrTPVKFAwH3s4Wy5/gsd0eeLXiFwB+GBJTkJdI1Kn02nx+bTpEZJZljROYW9Vwip27juwSvWup89QCgT/A/awO+zt0UonTqVy0ctUMCEpCABColoACp1DEVmHUMG76dYcezBemIGYLPOYLcDHNHO5Qdm2hf7hazoxnQUxBBf998foJT8pgvD3xmVjNKlLqN71ycaqqn79q7hrElC8XxcYkIYZ1XeyStJlbaIgEJSEACKySgAFmh02Y0+Rx1pY5eEIQ/W5CeU86MzRtcFdOKCOpIpdNcOBdu8KMMBNvxnscSBNcojxGqviCSevHVWPX2AcYupqT1rZ3pK2eLn8PmlR9K12jAO2e7bdgykuf2vFvsZbZJAhKQwEIEFCALgV9RtX2BULsprxak3+LA1Clda8HTnXp2CcNL3vxNgMcoBT+7iTUbTR4yivSqjm6dx/jHuScAHtNH9A3qK9nGd0w7aiqrT9AiJktHJkr66atpljVx0xYJSEACElgBAQXICpy0sImHe2CcGvw2T/MfBbU5U7oWbnZy9QTPBGcEhASNiIXSRGD4bGoSIyOs10gdkXpkAzZe7/amBPvHOPYcea4REezjCb3b+H7ivb7RivYIXG6fo6/limXO6ZvOl2uHx0tAAhKQwA4JKEB26PSCJhOIpooHAtxn89MJt1arigAAIABJREFUZocE0AWmr/IUAr1nQuQUn+XO438GAV8hnhAjtxekqJNgOFWEjgEdBnvfxjdl/dQzwZ/iAwRtzpbblIkAwTcmCUhAAhKQQDEBBUgxut2deI4Wp4qHV9t3EvTO9UR97U5qB+GMrvAeD4JGfh873aJAxAj+ebQmg2CYz+f2HfY0HMZu8xrKY0Tt1bt0hoyC0P5T5FxBqwhZQ8/RRglIQAIVE1CAVOycCk0jGEwJQF/NT18qkK0QZ9Um4Wsya0eanb4w+BZ5ibU81NtMz6J/7Sn1TcUaMgpSKkKe7Xq3J7/YVglIQAISKCSgACkEt9PTUqaENGj6Fq1e4sDcOeg7xW6zWwQQH/Qd3ieCKNlD4rq7Rn72JntYMDI2JJ3i5JyREPyACEGgmiQgAQlIQAJZBBQgWbg8OAgcI6euB+l7SnqOslKnda0F/vfvQdmrwAyGpJTRpLW0ewk7L1Hps7UyS9gzZZ2IEPrUo9EnxABvvR+aTlGAImQoRc+XgAQkIIFeAgqQXkQe8IBA6uLVW5z7ucivpswc4nMCybUH4wgPArhrZo8hsGRNx/H+k9/HmuL0nQ1wTcEJc4RILvuUsms6hr5BGx9tBjDWuoxzlJ/zUIBrm2uca90kAQlIQAISSCKgAEnC5EEPCDDFKuXt36nTQ05RHsLm2TSTmp3wgzCO4HCsIOwQZR3vmXJLmWAPgWnqiFXNjFNsu8ZBl8gszN5qol888icbB7BgfYwEw5zpkYzMMNq5t7U5Y7C2DAlIQAK7JKAA2aXbR2n0qykh3Qr6pmK1jyfgRogQTBHQENw0owRzbgObA4mRBgLDqdLhXj5MUkRf2w4Ywm9P6RaNPUfeqhA5RdseTZViGtZYIoDrLkf4KkL2dIXZVglIQAIDCShABgLc+emIhQ8TGBAQ9k3F6hZD0NwOpviboPLLCfXNfQjBF+2bKyFEyDlPqUts46k6bSMdI485TY4pa/SLdsLHOUFvX5voP+9FZhRurMC8r865Pj9FRV0RkiP0++zEF/gnR/QrQvqo+rkEJCABCXxMQAFiRxhKgNGKlJeZXeI4pgMNTY8Cr6FljnH+0K1QS2wgSGzESO7ISEp9jwLaY5yID6g3JzilPqaq0V/oC30JcXuIzE/qHCJ+tipEutcC62DOfWAzPod77vQ9RUgGYA+VgAQksFcCCpC9en7cdhNQpjyNf/WCwhyLeKpd20gI030ICJdKBOvUTx5rEXtfMIkIob5U8YMQGLJ1ayO2SsQPftmiEIEF1x9icGwBArNz5JxF6ZzT12+WukasVwISkIAEKiGgAKnEESs3gyfx18h902cIABkpGGM6DEFOX31zYx1LYA21G1FAHjJq0NiQEkwe4mBGNqgzZVTkEscxLaqZ3pXb3mbk5xwnloitrQkReMD//QFMX/mg5FpL6Te5fvd4CUhAAhLYCAEFyEYcWUEzCEIJOvoCUIIkAvWhiak5KetPhtaTc/7QJ/w5daUce4yDCNKHCpHb3Wd9gqEJhAmG+/oB9lMe/eEamYX8JWnIaNjWhEgJv5Rz6Ee5U7Ea/7o7Vgphj5GABCSwMwIKkJ05fOLmpgYqY72zYEjwORWKMUd5xrIRsYZvmpwiDrp1066vRL4kGIUQOUU+R06ti/IRJIyMIEpyUmq/e1amQqSfdskoCKU6EtLP1iMkIAEJ7I6AAmR3Lp+8wTz97luUPtZIAYHuLSPInbzx9wpqD7oQJO/cc+40tkuchxDBh32pGRHJXUOAAEGkptTR2HCKXxCkqYLnke0KkccePca/vxUZf5Ykrgf82TeCVlK250hAAhKQwAoJKEBW6LQVmHwJG/sWpY8VpJ+jrtwAdw6Eawm6DgEDMUIAnypGbveA8poIkjoQB6mL1SmWOvBt7rs8CJIRWGTq5WfuFLTSuhNxrOYw+DH1ip9D01gPHYba4fkSkIAEJFABAQVIBU7YoAkEgdfIfQFt6lvS+xARMJYsRu4rd+jnawu6jtHgU+Q+8dhwQVSw81LqSAVC5xI5Z5QC354j5wqRru8aUcJP2tnXNzl/rLqH9qOlzk8ZzcyxbW3XQ07bPFYCEpCABDIIKEAyYHloFoFDHM0oQF+wOcbOUaeo59GbobMMnuhggq7UtRMTmZBdLEH6JSNIZ3rNNbEWxCll54yGUDQcmZqFEEmt65VJ2HGMjCgiv+qn1IfQGqPeRExVHHYIK743siWKkJGBWpwEJCCBNRJQgKzRa+uxmQCvb/ccAhLeIn4b2CzOr3EUpGnW+R7EDmzmrKdforbU0ZDcd1DAo3TqXCNGEATsnjW07wD1FJkn/q9GRqhvb0KENudOYevrpGsU5X1t8nMJSEACEsggoADJgOWhRQRSpnEwUjJ0u85jlNEndooaMPJJtJVMYPfd++8jVzFacYwS3CL3jWI1FfKOF45PTYw80D8OkYeIR+psc/1+ph2NvbT3owTjL3EMQiSnrQnFVnkIo2FTbXc91m54VYLTKAlIQAISeE5AAWLvmIMAAVvfk3SOISAZkq5x8thPa4fYk3IuT4Oxm2laNQa0BJ8EoSlpqJA83uviJzlV+DyzDXvgS+b3doL1ofUP2kidiJCURJnvRWYdE79vOdHOL0/UwEuUO/S6n8g0i5WABCQggakIKECmImu5bQIEddfIfQt/hz4RnfJp7dQeJYg93wPaqetKLb+EJ4E+Ygp/D02MkDR5qBgZasuz82/39r4/VQUVlJs7EpZr8uXOcOtCLpeLx0tAAhLYLAEFyGZdW13DUoNZ1oN0n1bnNIZgpm+0Jae8uY8loD1H/iDykgEZT7yxI3VEoMsJP4y5YBwhgj1DpmpN6cvrPYge0nentG9o2fDnXSAliXU6pFejk0NHz0rs8hwJSEACEliIgAJkIfA7rfbdaHfKSwpZS1AafE/9tHZO1xHE82QdMTJHOkQl7E6Fn/h9jHS7t4GpSvw+JOFbpgPVLDDxWeqLGoewWOLca1SaM8XxB3H8MXIjys7x+6uNBziOXfGG9pMl2FinBCQgAQlkEFCAZMDy0FEIpAQxQ5+GpgidURozYyFwI8OGxetjBGmHKIdpcQSJZEappkzYjoAY+k4PRFnuNr5Ttqtbdo3T6cZoP/0FH6ZOh2NjCfpskxCQfYv8Ycd5Wx1JGsMPliEBCUhg9QQUIKt34eoakDpCcYmWDVmcSuCT87R2dSBbwR3BWnfEiPYfO42CfSMyup/N2f5bVIaIwEam5+SOdp3jnNItfOdsJ36hD28pmE4V94jkR4I29bocuh5sTj9blwQkIAEJZBJQgGQC8/BRCLwTpaTMJ899t0TbuMM98Et9WjtKwyykiACChCC9yQgSAtiuMCGgbaaIIabWkGjD2l5E2cc1ZQSKaYNc593ECFjqjlqXOHbIQ4i+dvi5BCQgAQksREABshB4q/14Kk5KIDLkSegx6ljDu0HsDtsnQDC9lbUhiD/E4qsNAZ5NpTrHeTmjV9c4nnUhuaNk2+9RtlACEpDAigkoQFbsvA2YTnCRMk1qyM5YqVNGNoDTJlROYEtTshiNSnlBIdd4kzinZORqS9wq76KaJwEJSGAeAgqQeThby2MCBCO3yH3TpJ49TU3leokDa945KbUdHrd+AvRlnui3A/O1tmpOcQ83RkOZ/mWSgAQkIIGVE1CArNyBGzA/9UkqAQgjIQiWkqQIKaHmOVMRIHhna+K1p7mvK6ZuMpXNJAEJSEACKyagAFmx8zZkeuqTVKZisEVn6XzwU5z7jQ1x20JT2ovNU6bjbaHNTRsI3rewyDplUfqYfrtGYa4LGZOoZUlAAhKYmYACZGbgVveUAMFYyjSpoSKEEReeoq4l2P1+2Frr27/H6M5vdgQl/mH3JDLvKNl62kIwzVRK2jGnv4ZOy9x6v7J9EpCABKomoACp2j27Mi4niBkqQgBLgHuKnPJCu6VEwC3sY9oZwRZ8jq3gvG/dzFo6zytf0ubGT2sRjCXcYbD2N4DnXL8ljJ6ds5WpbGMysSwJSEAC1RNQgFTvol0ZSBBDMJbyxH8MEQLcJsg93EnzBJ6ySfzkc7YNbT6f2yGID0ZsWC/QTD3DJgIv8pxC5Af3Om93Luf4OcZT7xRfwv90zyn9Y24/Da1vC0/0uXauM/dJuL8fmalszfUx1BeeLwEJSEACExNQgEwM2OKzCeQEMSmBa7YBrRNYL0LQW0MiuCLQ+uY9yMOmHFZjtIG62zzGfOpN+1J3OWJUBPG1tVERRUh5L73FqYwiNQ8PykvyTAlIQAISmJyAAmRyxFZQQIAAM+VN6RQ9lQghwP1age1znEKwhRghcw3P+bLFa9R3iczicdgfR66f0Z6vRk55mn2I486RU9YOzeGXMerYigihby4xUkV/oP+YJCABCUigYgIKkIqds3PTTtH+1B2rphAhH0X9POGvPRGwrsHOHI63OJitVgliUxIjQQiXrYyIbEGEjDk6ltIH2sdc4w93ycql5vESkIAEZiSgAJkRtlVlE7jEGalPt8cWIT/MttYTxiaAEGmmnaVMral51CqXzd5FCOuNuP4bgX2K33PWO3HeVl74mNt3PF4CEpBA9QQUINW7aPcGLiVCCHjHWGC9eweOBCBVjCBYUnY2G8msSYvZQhBdOhLC7m9t0Xm4i9Hca5KRMV9cOGk3tXAJSEAC+QQUIPnMPGN+AjligEB1jMWo5yiH3a9MdRKgTzTrRNrT0I51mlts1RZGQmj8JXLqaCbHvxWZa7mdEDP4PXdtCeewwUHKKFqxozxRAhKQgATSCShA0ll55HIEcp+ijhW05Qif5ehY89YJjNWfl+aUM0WONnP8B5EboYn9p8ipa8O67T3HP1ygvnQvsH4JSEACQUABYjdYC4ESEcLUi8uABr4d514j58w9H1Cdp0rgKYGtiBAEBNOicq4pHgTcIjcjGAiJ0sT1zGgI5ZkkIAEJSGAhAgqQhcBbbRGBEkFAsDLkqWdJnUWN8yQJ9BDYigjhmrpEzl3PMVYHgSP3BV7uaZKABCQggQUIKEAWgG6VgwiUCAKCHZ56lqZTnFg67aO0Ts+TwCMCBM+sj2hPS1ojKUY0GQnJWRcydjuv9/vCbeyCLU8CEpCABF4TUIDYQ9ZIoESEMH2DxemlwQYiJHfqyBrZavNjAmwL+36n/9APCaTnfv8IffkLGxAhkF76unI0xCteAhKQwAIEFCALQLfKUQiUiBCCjSHvBiipc5TGWsiiBHjr+7En4D/E5/QPjuPn1KJkSyJk6SlZdK5rZNeGLHqZWbkEJLAnAgqQPXl7e20tFQTnQFG6LqS0zu3R30+L2MyA0a/c1IgRfpJzFl6n1MWIDIJ6K4nrcsjW19+P89+J/G7kkqldjoZspSfZDglIoHoCCpDqXaSBPQRKBcH1HryVzKUvrVNnrpNAqQDptpZ+04ySIEhy32fxiN4l/jlkfVNtHhkyGsKoEC8wJHFdlwo+7g2OhtTWM7RHAhLYFAEFyKbcudvGlAoCghQCDZ4k56bD/byldvLJtbfG45nahA+mnq40tO3fjAJOQwt5cD7rRxpBwpP70r7EaN55AvuWLJL2lIyGIELoU3CFb2miDEa9SkdKS+v1PAlIQAK7IKAA2YWbd9HIUhECHAQIQiR3NIQA5zogcNyFY540EvGBz5rUBOKnEXl+J8q6RT7cc+mIA/3izZGdhU1fjHy85yHBMqbRfy8j27h0cUNGQ8ayHUHDCBjXuUkCEpCABEYioAAZCaTFVEFgiAghyCxZoK4IKXc9Qf0j0UdwzojAu5FLRAPCg/O7ZZ/if6XbKY8V4LM2gXa1xVc5wU+fSf8tGc0bq/6pysFvjEaUTqkaw65mNCT3IcUYdVuGBCQggc0RUIBszqW7b9AQEQI8Ag2eeOYkRAhPSkuC5Zx6tnbsNRrEdrKv0jE+JADNWVT8akrSOcoqmdpzi/NYX1AagNIvvxX5MKETsQ2e9MWtJa4xfPflBRtGH+DesEWRtyBWq5aABPZIQAGyR69vv81DRcglEOUu7B1a5/a98riFqawJ3Bk5OEVOeRJOubzpuhuM46cPC2GXrrXAduocOs0qxewtixDaj/94SLDkuqHr/f5wS3GIx0hAAhKQwGcJKEDsFVslMFQQpAbGbX5Dgtut+iGlXTmsCeIRIuQUIUKQyBNrhAjrTkilAoRzGQXJHWE4xzkloy4p7B4dgwh5K3LpaE1pvXOed4zKECKlC/eH2gpb6neR+lCSni8BCeySgAJkl27fTaMRBJcBQQrn5o6EEBh/bTeE33jjg3sgRlDeDnhhTz5FTnlancs6V4iM5RLa2Wz1mlrmOQ6cU4BgF3YyHWvLIoR20r/gu9T0x9v9HnFN7QweJwEJSEACb7yhALEXbJ0AgSrBQemT0tzAGJ7UlxJ0b4E9QW5f8MUIBDs+9SXK4akyoiY1NUJkzgA/dyrWIRqDIEgZsUltd8pxexEhsDhFPkdeSojQx1kfcktxjMdIQAIS2DsBBcjee8A+2j+3CKE+ApG5A84lvMkTdgI/3pXx7Gn7JT7LWUQOu6bM1DYd4kDES4rQSS3z1XEpwqt9PqNB1wX6xJ5ECLxP976zhBBppmWx9mjrI09jXEOWIQEJ7JiAAmTHzt9Z0xEFPKUsHZkoeepNUNykY/xCEMrPLQoTAi74dhd+ExCWbn3bBHSIm1tif30njrvMwBjbctdZ4H9sKx2NS0TwmcNgxxa9iJG9JPrdOfISQgTe7pa1l55mOyUggSICCpAibJ60YgIEgDlP49tNHetdEARH5FIxVDv+Rozw892RjL1GOfgOMdKXEJscO/VoCAE9fSI3sMf358hzBsf4AlsRiXtKxzvrJa41+ixCJLd/7Mk/tlUCEtgpAQXITh2/82YzVaf0fQJjiRBccLgHR6WCaI9uJJAmsCOQ/k7k2wsIl/hsarbNFDRGfnLTKU5AoM05IgI3+vDepgg11xojZHOPQHK/YQR1b8xzrwePl4AEdkRAAbIjZ9vUTxEg+CudGjT2G6cJjghSpn5iv8UugAC5RuYpMxlR0k58PsdIAzYQZPIzNzE1i/5IcDy1rT+IOi6Rz5H3GBAzOgZrhN/UrNv9YIhQze1PHi8BCUigegIKkOpdpIETEiAQIfDPfSJKMMEi5LGnVhzvweGcgdGEeBcrGv/gG4JNgvs5EyMMQ3ZDOsT5CBH6AraP0RcQHdfI2Ebeo/B41AfgzD1gTuF/u/cP/GCSgAQksFsCCpDdut6G3wkQ5BGc1SJCMOscec5tZe0MPybACAp9Irc/dBnSpy6RU9asvOLfiChs4vfDPTfn8Dfp1iqE35vcjAzp4+cElhgVoX+4PsReKQEJ7JaAAmS3rrfhLQIEdwSLuXPxpxoJwbTj3aYxnoDr7HQCBO7NYu2hIqQRBjztRoiMPWKW3iqPTCXAvYDpWYyOjOH/vnq57zB1j35nkoAEJLAbAgqQ3bjahvYQ4CnoNXJNIgSbCFDmnCJiR/kkGERcjj19i3IRI/QzRlqcClV3b0OENHlKMUI/eC+y7w+puz/s3bpmZLgZjW3z4J72Xe9pe+8iee1XgOTx8ujtEyDgz905acqREIjzRPZr20e/uxYyIsIXd/PljUAx1UlgDjHCfeR8FyJ1UtCqPRHgARgPv46R6f/83Zeaexpi2vtZH62df64A2XkHsPkPCRAE5K7B4MbLwvSpnmqfomyekk75JNbusCwBvrDpR02mL3V39VrWQmuHQCNGCMymmCJJP+AeNHT9kN6SQAkBRjjYpp7vnCHpcu/D1yGFeO52CShAtutbWzaMADff3ICfwGHKN07zxcDNXBEyzLdrO5t+1c4IFMQJu1vxu2k5AlyTjSDJnb7ZZzXXeunWzn1l+7kEugSO8Q8evPFzzMT3qO/BGZPoRspSgGzEkTZjEgIlAf/U07FKbJoEjoVWRaARJRjV/p3+2BUpjqpM4zqmqCBGCODIY42OXO8BHD9NEhibwCEKZIovfbc0sf7j3Xu/fzR74BafTflwrtRuz1uQgAJkQfhWvQoCBBV88ec83SToa3ZSmqKRipApqO63zLZgIVAgmOCppWkYAa7T4z3z+1BBcoky3DFrmE88+9MEEB4Ih6Hpc1FA86Djh08Ko++eh1bk+dshoADZji9tyXQEECEEZLmL0xEhBA1TJEXIFFQtEwIGCtP0g0MUe7wHYUPECPcUhcg0PtpLqXx/fCMyP4cm1iqdWoXwAO7RNGHvK0NJb+x8BcjGHGpzJiVwjtJzF6cTLPDCMW7KYyeCmW+PXajl7ZoA60oOE/XXXYNtNZ6g78MRYPBQxN2GRgC5syL4DuO7bKzUfdD2URTMQ7tuYgrW+2NVajnrJ6AAWb8PbcG8BJgne4mcsxCcoWlu0t25+GNYzvC5W/SOQdIyIOBTynn6wSmq4Qn0GIn7EUJkivvLGPZZRh0EEAXfinwc2RwesLWnbD6bgtWepjWyCRa3RgIKkDV6TZuXJsATTJ7k5EyjYATkfA8Uxrb/GgV+fuxCM8trFjYfMrlkVuPhExJg7ccYUzImNHFVRRPoNSOUj57+XuLz3GmdrwBwHyAQ/GBVlDR2DgJc1/TFRyMTQ+vnu40HYfQ7fn8kQBhZnaLuobZ7/oIEFCALwrfqVRPgZooIyQ38CRLG3lrzEGXy9DNnVGYIfL5MaAft5+etU9j34m9smiMRNGMHNrTtON4r54uX3+diM0ebp6rDJ5Tjk6Vvci2cIj8aoeD6yb2H9FnJdXCO7HtE+kjt43P63lijbaXEuutESsvxvA0RUIBsyJk2ZRECPHHkpU25icCDaVkEC2MkAo7c9Sm59X7/HtgQVPGk61FiihrD/HOlN1/Y0rbBqWqvPeLUq7l67Kfr4UEG94KcXfZSLeUa5f7E9Kxn12tqWR63TgIIj1MFpn/h3s8rMEUTaiGgAKnFE9qxZgLc4PmiL3nKfonzCOiHTps4RBmMPEyVGGk49gQycJj7SVtqkMVIyBgLf6fiu2S59D2Eo2kZAvTNa+H9I9Vi7jPunJVKa/3HIWxZG8g9eenEg6vD0kZYf30EFCD1+USL1kmAIAIhkbMupN1SAmmCkEaMlDyxZIrHFE9SsRO7GLF5ZBdfdoy+MMqwZGr4sR6lme6CbYxQYRu/mz5NIEVYymx6AnOIEFrBNcLDkqEPPKYnYg2lBLjPsd6DPlVDmnI7+hrapw2FBBQgheA8TQIPCHDjJ1AfY0435VwyAwWe8E/9pXOLOsgIkSbIP8Xvh8p6RGMfPHKFBwKmOZ92kSmnZISrMiyfMoe1PMeWH2u2dQ+2MQo11/RFrmHuL8zN53fTNgjUJj4c/dhGv5qkFQqQSbBa6M4JnKP9Y63HaEZGrlEmTy2fBQun+Gzu6U9bc3N3O8lu+wjW8e0YArMGds7LrsELn7Zhieu45GFHfeS0iIckY71ccCyavvtjLJIbLEcBskGn2qQqCPA08xJ57KfmzZN5hAiZJ14ExlOPfFQBdUIjYPlWYvn4dcztUxOrHfUwd6UZFeeohS0hQmgA1wB921GRUd05S2Hc/6faZre0Aa4tKyW3k/MUIDtxtM1chABfCnyhT7UuY5FGbbjSc7SNhbopiWCtdL1PSvlTH9M32jN1/Zb/msApPl5yRNNRkfX00BrFB9M7sYv7pEkCDwkoQOwYEpiWACMUl8hfnLYaSx+JAOtazpH7Fule45i1T8WirQSaBAlNoMD6F1MdBE5hxpIiBAr0C+5fjorU0Se6VtQoPrDRhed19peqrFKAVOUOjdkwgXejbWyLaFoHAQIvgnMCr2axfdvyORb8l5JqL6Jvl9FM13s1IseTS/oqQadpeQKnMGFpEdJQuN77RfPG6+Xp7NuCWsWHU6/23S+TW68ASUblgRIYTOB4D2rHXhcy2LCFCiDYvUWufYoaNiJGCMAI7gnkp3znSq47sKmx75FY6pb3Xvzj0cszCRwIeFlnZKqHAD6pRYQ0VC73Ptc3UlgPxW1ZUqv4YNcrbPMesq3+NklrFCCTYLVQCTwlQPBKIFt70D2HCz8XlRAwk9fEgy9X/FhDyt1lBrsZvTm0jHfUowZPvraBoI77Rm0PL7gWLpGfjRTWT3Z9FtYqPtzWe319aVGLFSCL4rfyHRN49hR6L0gQHQgQAuJa3ti7RvaNiEuxnZ276Hdd8ZRTRko9HjMNAQJPRrpq3fzg1hIj/G4anwDXbvOSQUY+EX/0iWbE4Z34fa53yXRb57qP8f296RIVIJt2r42rnMDpHhDW9lRzLmw1jSTM1eax64EhouLVImGExzny4UHl7PrFZ6Z1ECAAJeCsfQMEHjAQHL96d9E6iNdjZVt8PAv2ucaXmB769aj33XpQackaCChA1uAlbdwyAZ5q8kW9pilIW/bHmttG0He9Z+Zis/PaKTJBybPkywjX6fE1jaAqRob3se7Ix/FJkUv0CxedD/fvLktQgOzS7Ta6MgJ8uSBCat2qly8YggjEEsGsYqmyDjTAHN8HMgDewqcy3Yb7xppGULmPMILT3FMWRriK6tviA4MZ9eTBASzb6RR/zL1ZwXejzuPdplXA1Mh6CChA6vGFlkiAIezaturly+6tzhfMkvOM7SXjEngWzIxbi6VNReAQBV8i1z4l61H7b/FPxIgL2F/3DtZ8EOR3E35vxNwpfp9bfLDonP7XrD+Zqo9b7kYJKEA26libtVoCfNHwpVLTU02+YM73QIHf+aLjC8+0DQKNf5nHbVonAa5PHmDUdN/IIXm73/e497G42vQJgVrvte54ZQ8dTEABMhihBUhgdAIMuV8j1zbViUCVfBi9xRZYAwGmdBDI+m6HGryRbwPX5SXyGkdD2q3lHsP9rxEjt3wUmzijVvEBXNeObaKLLdsIBciy/K1dAq8ILLGgUI9IgIAPIcLUGNP6CJzu/uvbrpeRBu4xBPokdk86VNhchPH1budeRkdqFh9ut1vhRbJGkxQga/QlFwXZAAAgAElEQVSaNu+JAMEEQcJap1bsyVdba+stGnSJzNQs53mvz7vnMPnZtKzuzkVfvt9nam/lHkZHalwL2PQLt+2u/QpZkX0KkBU5S1N3S+DteyBY25SsXIewY8pBMdWLrZkKxdPeduBPP2B6XpPafze/8/nY/aRvjQh1s4PbMXLbpmv8TVsQMLfeVnvAFAToDwS0j4QIviFzzDtTVD5DmdjPCA59bQujI6dox9yLyVPdxIgo9pkkMAoBBcgoGC1EApMTIEi4RK51q94+AM12rwSoH/Yd7Oc/InCL35pAkZ+834OffYn+AmvyWDurEegx/aIRRTw1J7A99Blz77v0gbagSjjNQ0Yi0IiMc5TXNzVrpCoXKeYatTZ5bYLkFLbXKj7cbneR7rztShUg2/avrdseAQK+sQLKuegQNLeDVALZtQqpuZj11YMIeRbMt0ch+srJ/ZzRDAQkgWzbpynl3OKgL0VOEVAp5Q09hjfEvxn5vaEFrex8+gf3EUY9tj618xptJNf+3pFT2Fir+HC73ZVd4GsxVwGyFk9ppwR+TOAYvxLEryV44EkkNjfpHL/8rA7dJQFEEzvoLClCmlGhz4Ud/H7bpSc+aTQihGuTn1ONjBDAXiMfIo89PTDHdfQ97CBzT1qyD7btPsUftYoP7HTHq5xe5rHJBBQgyag8UAJVEeDL/BJ5qS03myeKzVSfV3bwxc+XLIlAp/m9KqAaMxsB+sNbkZeYjoXwPd9bymgMQt70CQHuKc20veP97xJR0gT3tyjjGpmfBNhc+zUl+h8iBBvJTDOau0+e7mxq4tK2xUXntXpmA3YpQDbgRJuwawJMpThHnns0hC9snoy10xxPU3ft7A01/lH/mbJ5h3ugd7xX0qxJGlJnI7qbMp+V1UyXYyribUiFC50LO3KTeOhAagfrTTDfNZFjeZM3wmYNCV81ogRBMuUoyeneJ2vlQn/Fb3OLslp5aNfIBBQgIwO1OAksQIAv+UvkuddVUCeLkh8lvrj4gp1yakdTb3uxKfXOLcYWcPkmqpzr6Sr9kHVTTeBcspvP4X59NSMEQwLqJsi9RZnXyEs8eZ+rA70XFbFZwVrTVKMk9Mmap13hL+7tl7U6TrvrJ6AAqd9HWiiBVAIE+3zhl0ybSK2jexzBFFNZCKaepSnECPPKz/cvyPYTOoJMGLDA2FQ/AdZhTPmUuftCN4L9VPFAX6IfnTLOKSXePHW/RgEI6q08df5hKZCKzxsqIOlPtYuP7sYhFbtD09ZKQAGyVs9ptwQeEyBoIjCf86kjwRJ1skNSX0IkvRt56NqVvik02ORISJ83lv+cgLs7lW8sq7qBXupWoocwgBET+upS6f2oGDastbotZcTAerkXfTSwjLWcjo8aYYLfno1q0a+4/9Weui+qrN3e2u073q/n2u2c1T4FyKy4rUwCsxHghsdIwJBdZ1goTBBxikww1jeyQtDEsH3K01vKxL5SkYDYefVFvsUnr7N1npkr6hOTJebQv9pPmRkx45p4NdpCX2eRem0BIjZfIq9RjHBPmHtqaEl/meKcWxRKvt77XXMfnaKuscvsu7+OXd+Wyzvf7ytOaet4WQGy5W5v2yTwychE6Za3BD7t6VUpoxc5oyEEfAR7pfY9u6FT5trelbLnvkqfGXNXrLejPBY+07+a1DfVqxEe7XNq9MnaxAg8CcCHPAip0Q9bt+l2vya33s6p23eKCtoPQhQhLeIKkKm7n+VLYHkChzDhErlk2hPBISKEIKJJlHeO/GqdBcfzZPvVE+d2eYyGlDwp5Qkr9dzuhT0KPpf3gBb0EcCP9LOh6ZH/X42wHKNCAgT69NoSzMgsqq85IUKws+T+U3O7tm7bJRr4bJORrbd9jPad7veWbll817EBR8pMgTHsqLYMBUi1rtEwCYxOgBti6bSn8/2m2TbqEH/w/1dCJOdme7zbV/K0lC/L6/382p9ij+7YjRQ49L0cj8THsx2v6LuMenBNrD0RyND/mTZzq7gxjKByP+ibyllxE3ZnGv0Jn401/Y9rFP/zk/s0Px+l6/2f9G0eYrV3OlyDE1iDCbdniTbxYKRp5xraNLqNCpDRkVqgBKomwE2fG2PJLlHcNHki1h3VOMT/zi/K5Evk3cipT2pPdxtL14dU7QCNe0qAflI6FYs+095ql0qevcdgLdOtSroKAc0l41orqWPoOfiK+4VCZCjJec+/RXVk+hiJ74GUp/iIjOM9D3k4RN3USf0Iku730Lw0ntfW3XnvlV20hdGQhmktbZjFDgXILJitRALVEeALASFSMtpwjvN42tr98jnE//jsmbjJudnyRYVoKV0fUh1wDUoiQFDBeo2c9OxpI7trtb/Y6Zf0T/ppTYmny00wRb8/RR4qvm9RxiUyop/fa0yMiDR5aHtrbJ82TUuA7x+ub/JYIzRDLOa+8q3Iz0Z1XpVNG7heaUeKqBtiZzXnKkCqcYWGSGARAgT558i5AcAtzmEI+f0HVh/vZT6b882Nlqc+lNGXuKkjlErWh/SV7ed1EqB/pMw9J1jnaSNBbDcx+kHf4Rj6zvn+dy0tZlcu+jX5kZBHkORek8/aBk8eGNT6xBgfNULkOGK7a/G1dsxDoBkd4Ttp7ilbPNzgWh4ywtNQwv72SM889D5dC/fO1BFK7mVF9xYFyBKutU4J1EWAm01pkH+NcwkWbw+aRDBB8PPoRkbQRZ2PRlIe0aGsc2QXstbVd6ayhn7FmpBnTwNTvvApg34zV+KLOEU00Ofpy6+edBKQ8zR1zAQPrsfUqZBj1p1TVluMpAZBOeV77PYJcG0RyDdiZKpRBe4vjNJPeZ8huMd+rl/S7Z5zvIgwert1Qt/fOWW3j8VG7CX3juYoQEoxe54EtkeAm+glcsmX/jnOeyYm3o3Pnm2Ly42Vz1ODImykLoXI9vpft0X0DfojQUSTmuD0UEnzm5EM7DxFfjVl8Lv3Y1KfFt4Kr8U+NJSL+Oeamyow67Mh9XP8jM+57skpAi+1bI/bD4FrNJXcnu44pPWMqvK9RZ80PSfAvZu4APafSQoQu44EJNAmwJMRbqwlay9eiQmevhD0PBMOt/js2ZSuRx7ixn9+UZ5elcDUBAjguVbo96fI7f3+u3WXvNjtEoWUbBaR2u5G4NW+e1a7PdxHuPabrCBJ9bbHNQTo9zwEuN5/Ml2z76HA4f5dQ79DEPM9aUonAOvPzJRQgKQD9EgJ7IkAN1wEQ8naC27mz7YY5OZNuc9GWbhR5ewKwhfC+f7lsCf/2NblCDCSgfCgr5JOkZ+JD0ZI6PPNsTlWvyo3p5yUYy9xEIKqxM6U8qc6RkEyFdl9lst3V3tUEKFBHzMNJwBXptX+6B6jABkO1RIksGUCx2gcwUnJtCyGXxEitweACODOkZ89weQmpRDZcs+qo23N1L/UkQb6JP22Sa/2+0eocP2UTnPi3G/PjInrjus9dUrkzOb1VtcWJPxect/qrWSmA+g/7b7TPLmnetr26Cn8YeVtngmt1SxIgF0OPx5xUoAs6AWrlsCKCPQJhmdN4UuTEQ8Ct27iC5Ryyc+EyOV+7i2R1TGOO0d2jUgisB0fxujEITLBXF+g/2gk49V+/wTwp4Fs6ct9dr2qgp2Arq0DaGuq0OJ647pdwzqRVwxoMxzJjETVOGWLKUA8rIE5gVnbZ0O6EG0nkxrB0jzR52fJFuxD7PFcCUCAmOAtfipA7BASkEAqAb60CEpSg5h2uXy5PlvjMZUQQdiUTCFL5eFx6ybQjGYcoxmvAv3uSEbfAlTmOl9GQvPDzHJYZEvdBLSP0jX+mSPOCRYoq+ZtfHMQNSMkiJEcDjl1pByLoMVP5I+fBi+UGkFC9cfIzd+H+H3No0cL4fxMtdxjbpH53qxR/C7F6eM1cQqQpfBbrwTWS4AvcW6oJV/g1zjv2ba9fPkRGJxffPld4rPmpp5CkC9Syqv16WdKGzxmGgI8hSM4QHwcX1RB/yFI5Bj6EX3qURqy3uNZ9SkCpNmJi2sSwfAqfRgfcv2WpGucdIm81ulZ3TY395vGr3MFiNy/UnxV4qOxz2lGTmCkOMmjywM3/Eziuil5cJdX43qO/ngURAGyHodpqQRqI3AKg86RS56UcWPmi/hZwNRXNjf0HCHSjLJQbom9tbHXnuEE3owi2B6aPjE0MUqCOLkNLahzfp8AYcQD+/uEB8UyIvhsO+wcs6mL6w8hsuTT+xyb+47l/gBHGE11f0AoHjfErC1O4Evb4LjU1C6uwaXq7vYvpj/Co0nn+KVkZ8m+frvmz7+kAFmz+7RdAssTaAJ7vrhznyASyDRC5FlLCOoo+9loyyU+yxEi1HO6l1nLl9XyXtynBfQ/+u/QNHSx+av6nwmQ3NEWgkVGesZob9veW/zBNdgk/iaTuouoh3Ke6/xzVDR2sIi/8EHDZq62LFXPISpu52b0BHtKRs5ftaMt/vk+YWOIpVN3GuYxDBqynqukPd3r73ovhD7Y7oeNkHxWR9t3YwrMbypAStzqORKQQJcAXzbnyCXDzNwMOffV1A5u4KcX5V/is9x56pRJvWN/Ido79kNg6sDykQAhsOBaSB19mEp8pHiZaxs7ydfIPBleQ+K+MKYIYfvR99fQ8Jlt5B7cpG/FL7kCuSv+KW/uQP8Rsi/c+3vzGX2JPlWa2Kjg1sqUwzXVHvm8lhZecB73FB4MlnzfN9V9RwFSQN5TJCCBpwQO8cklcklQzw2Wm/QrIUL53PhOkR+NuHATZkQk52ZMmdQ75GZql9gngWYh+1St7wqQZueuduDxqu4lxccju7Cba5NgHDHCNV9jIhhm9HWMRJCMH0zPCXD/LRF8P9rS9V50aTlj+wZxQB9HUJ3uP3PqaDYpoAyul5rSIYxpNuLg99LkLlil5DxPAhJ4SeAYn/JlUCpELnEuIxrPAi1u7AQI1PFozjZfAAzH5yyYpcxG3JTOA+eLo3kyzc25tBy7V/0EcsVASYu6AiTnSfopKvxGSaUznsO1wrXOWpbbjPU+q4prlnUyY4kP6plapFaAbZAJpf30kbCjL23hQdI12sEoytKp+Q47hiGIaDL/GyU5AjIKRguRgASeEODL5Ry5NBDnC6VvahU3R4TDoy13ETCNELlleAm7yakCChuxtREfTVXcrPl/ajkZJnrowgQQt/SRV4lgiL5JP0Q8pI5cUCZltwUE0zDoTymJIJp615SWEiM8eODeAe/jBMDwA30lx/cTmFFlkUOmJt2iRYyAtLl+FH/jzy0k2td8d03ZdxAVzCbg3kLmbxhOcS18yi8KkC10U9sggfoJ8OXOzTR3oXrTsmv8concNz2LevjCf1TP+/F/Mk9bU2/o3JDPkXki+sz2lECU+krbXr9392nhq9EIvsCZxtP+EkekpooC+nF39CKln9FfqZcgYqzEVCnEAW16dR2MVR/lNGKkqXvMspuyEIe0hzxXukZFt3tu6qSt3fsRrPEh/iT3pW4Z1NOk2tbdNILvnNi2V22HG21v0rEP1Eo/x59N7vMnfNsbrLT7UPv3xVkpQFbaGzVbAiskwI2RAOyZQEhp0i0OQsj0PVE8xTHksXbPaoIvbO/unoVNBKPtL8JuW/jycBQkxcPrOaa70LSxnC/5RyKAYOnNhObRbx9NnSLweBU0EEhzHn11aGJ6GdcZuR0cn+Pvkrn6Q+zh+uL6eT8yDLrBek7ZYwa/OfXWcGw7WIcpmQRbUnv66Nj2HqJA7n/HyPTTMfro2DZa3swEFCAzA7c6CUjg4y8fApshc3X5MiUgYX5180X6CC1ffIiGU+TuCARlYAdl5CS+RCmva//lbhMjLO1Ee5kaYCoj0KwPqGF7zXYLHgmQPhHQXTTbJUK/erVu4634/Pagfz17nwnTthDG9MFUAQxv7HgU6NPHh1y3ZT3g02fRnnamjV0mzRmH+IXpn8fI+ObtMQzYQRltsUJz4f2oPzT/p3912fI3/4e9SQJdAu6CZZ+QgAQWI0BwcI48NKC5RhkIiW7g320YAcgpcnetyC3+9zORKScn8eVKeQic7hoXyiLzBX28H5NTtsd+QqA9bQmWNb27BQHMyBcJHzMywM9XCbF7fnJAynx4GCBimkR9CJZDp0xGCLkmOL5J3QXtj8x4Nc2Lur7d076lPyZIJnd5LG2X9UtAAp8m8IEjIHYJCUhgaQIEC+fIQ4XI7R509U3PQjggRhAO7YCWgI0A8dGTvj5Gz8RN33l+/pwAghKuTbrGL6lP8efiSl+hP6Um+iijGO3E+YiIdltflQcHBDMjQvThdmKK0iky9bQTZTMt7FXq8m4fy9NsxEdOW3uq82MJSGDHBL6qANmx9226BCojcAh7zpGHChGCwktknp53A7Fuk6mT4IxMcMsTY6bWlIgQyn41KlIZ7urN6U43YsTh0U5n3YawPSd+rXXRP0L3K3ej6ev8PTSwZ/4+1w5lPUqIh+MLj7/aUphrY6y1JdV3Og2UgARmIfAlBcgsnK1EAhLIIEDwSDA1VIhQJUErQuSaWD9BGiKkVIC0q6Gs00jtSDR/M4d1pwLxBJ4n+PSNV6k5j5EB1kXsISG46Gf020cphcWzHbpSpoXlMmbNBtclwqY7dTG3LI+XgATWSeAtBcg6HafVEtgDAYJNgieCq6FPs29Rxjlyzha8YzHm6TbBFm3JXcOA3awzaJ6QH+N3uBCQ55Y1VnvmKKe9xS1BMOxSRgmaURM41b5eYQyOiA/a+kwwp06d6i6op4+NvZ0vtnINIj6w68MxAFiGBCSwOgKMuP6kAmR1ftNgCeyOAIEnASh5qBAhULtETpmeNQVoAi/agSBJbQtPtpmyc31g0PEezFEuv2/liTJtJZ8iHzIcQXALL3jAeMuJL3HaeXvSSK4bgvwUfmwPzLXBOYw8nu+/P+OHmMA/sMZHr9bmMOJBeZd7Yal2cR510D58uWXBveV+atsk0CXw8XozBYgdQwISWAuBRogQ8IwRaBPcvBe5b/esKfjQFoIqxEhqYIW9LJLn57NEucfIjSCpbdH2FCz3WuarHbVggvigH6Qkrin6Y59oY5H7udMHOffZ1sHYyDWGuCFhD8c+swtRdblnxE2TuE72MqUuxV8eI4E1E+CB2nsKkDW7UNslsF8CBD05wfsrUrd7wMP6AX6fOx3ubaFNKaMi1ziuT4i023CMP8iNKEmpY24G1pdPgJ2wLk9OI8inP42VEAZcb4/qeyR0Hq1Lof8920mL8hEqbbHS2I6o/l5kfpokIIH1E/h4qqwCZP2OtAUS2DOB4z0wStkdKYUTARZC5Jpy8ATHnKJMnkKntIcnxARs2JuTGiHS/BxjNCmnfo8dhwCjCogCRiVurSKnEB9cZ+0Riaa6R3V1NxDgWPr0s520mA55jtyMkrTpIDoQLakjOeOQtRQJSGAKAs2DBq73NxQgUyC2TAlIYG4Ch3sQQ6AzxhN+AjpukkssWocd7Tndc59AIHBrhAh25ybqOkZuBEnqlLDcejx+nQR48eEj8fFoWtTHUytazURIc03Sl7uJNR78//oEi+Jjnf1FqyXwiAAPJrhn/OhBgwLEjiIBCWyJAEELNznyGEKEm+X7kXlK+ygIm4MdARw5ZVtigj+mZz16mpxqKwwbMXKM311Hkkpue8d9vFj0QbNO8b/uug/6HMe2+w596VEaa/eu7RG3RRLYFgGExznyrdssBci2HG1rJCCBHxMgSCKPFUAjQAjwlxoVIZijPYirV6MiBIKXyGPu9NUElfwkO0qyjyvtkQDhDeztUY5cEn3igz7OgvNn4iW3Po+XgATmJfBqTdePLFGAzOsUa5OABOYncLgH7Tyd7ZvOlGodAT4jI0vsoIWNiACECG16NdKDjdg6tp3tURJsgbGiJLX3rOu4c5jLqBpp6PoSApNj5EejifSp5p0v6yKktRKQANc23zdN7iWiAOlF5AESkMCGCBCwnyKnLPJOafYtDrpEXmoHLYI22oQYeSUAmlER7HwU/KW0NeUYgktS85PfEShj8U6xwWPGJ0D/oa/jyyHp0QL1po+82p53SJ2eKwEJTEOgeR/QNYpHeGQlBUgWLg+WgAQ2QuAQ7WgC97FGRbgJXyLn7ko1FtLUURECyeYLY+yRkWdtSZ0+NhaLvZXDdDsCgFPklLVCS/F59O4SRj3OSxlkvRKQQDIBdtzju4OHWPzkwURxUoAUo/NECUhgIwSOIwdu3JQJBpdauJ46KtK4D1v5MkGM3Gbw6di8ZzC56iroZ4yAkQ6ReWdGrYm+9qW7cQhmRz1q9ZR27ZkAO9TxXcD3AmKD30cfOVeA7LmL2XYJSKBNoAncGRkZa8oQN26CrqmnPj3zZOqoSHN+86XDF0/3/RJj9xZ4EziTx9ixbGz71lJe08fwNRmuNSf8jY3nmo3UNgnsgEBzj+ceMpnQeMZRAbKDHmYTJSCBbAJTiZFLWLLEepHcUZEGWPPFdL1/QfGFNXZSiIxN1PIkIAEJfEKgPZrB/by5pw+aPjUGXAXIGBQtQwIS2DIBAuRjZEZGyGM8redp0yXyXNOe2v6hLafIpWsFrnEu9pNZhDjW0HzzVJxtXk0SkIAEJJBHoLkfN/dnfi4uNJ41QQGS51yPloAEJNAIkbWLkcNdiIwxBQpRcusIk9IvPsRR9yV39joJSEACEvg0gVEXhc8NVwEyN3Hrk4AEtkRgCjHCmhFGRsYaWUjhTdCPEBn7XR4IE4RIM78YkcJ+8a/adozPv51itMdIQAIS2BGB5l0b3Ff5nih9yFMFMgVIFW7QCAlIYAMExhYjfLnwJUPmSdccXzZv34VI6fSsUjciSKjbJAEJSEACnybAA6nL/btgM2wUIJtxpQ2RgAQqIcBahkaMjLWbFk27tsTI1KMjtIERkVPksd6TUol7NEMCEpBA9QRYPP7eXXjM8fBpdiAKkNmRW6EEJLAjAlOJkdtdjCBKph4dQYQgqI6Rx1iAvyP321QJSEACWQQQHue78Mg6cW0HK0DW5jHtlYAE1kpgKjECD0ZEECP8nPr9HUyVoi0IEn7y9yGyIyVr7ZnaLQEJLE1gN8KjAa0AWbrLWb8EJLBXAs00LQL5sYP3W0uUIEimnrLV+LARI81PhMnn9+pg2y0BCVRPoHlPBvfMdn5kePPAhc+ae9wYG3d8NcpjutUmp1o96wEKkOqvDQ2UgAR2QIAvs1NkxMgYX2iPkF3jn01mv/g5v+yaL+6uQBlbeO2gq9hECUigkABig3sgD2SaPMZ9kPsamYdKOev+eDjEWru5HhAVYpvmNAXINFwtVQISkEApgcP9iwwxkvNlllsfX7zNl/Dt/nvzNDC3rCHH086uQJlKhA2x03MlIIF1EWhvW3sN07nPzZGaNXOnqOzZurmvx2eIj90mBchuXW/DJSCBlRAgQG++0OYKzJsva76w+X0JYXKIesmOmqyko2qmBCogwOgu96xL5KVHFniwwr37HLkZ7UUUnSK/XwGrRU1QgCyK38olIAEJZBHgC+14/1Lj59xTmPhCZ+SEL/hmBGUJcYIoaVgAEBb8PZdAy3LaCAc3jGm3O5GNANQiNkUA0XG5B/W3SlvGPeoU+b3ISwujKhApQKpwg0ZIQAISKCJwuAffzQjJksHpNWxpRAlBAHnutSZAhEk7N9O7+GwNAXyzi1kzPa4RfdhPW5i2QV7S10Wd1ZMkMCKB5j0ZjCRwrzGtjIACZGUO01wJSEACLwgQeB9bee4RkmemXeODGsRJYx+cyCR4Pfo//xtzBy+ERZMaFs1P/g+jnHSKgxGeU64TyrHHYyUwNQFEB4LjEtlRhKlpT1y+AmRiwBYvAQlIYEECzTSlY9jA0/8xA+oxmtUVJQQVBBlrCC4OYSe5m9ojFmMw6isDG5oRMMVIHy0/XxuBZiE5ouO6NuO19zkBBYi9QwISkMC+CCBGyAgSci2jJF0v3OIf5CagJ/hYYr3J2npH49/GxzVM1SKIfCYqGz83nLG7m9YwdW5t/aR2e78ZBjLaQTZtkIACZINOtUkSkIAEMgg0oyQEeTUFra+a0BYlzSiK4uQxsUP8m9wE9vgZn5NyRsQe8b22qrzF7+QmTTES1Nje/KRNOW3IuCw8dAECH0SdjejgujZtmIACZMPOtWkSkIAECgkc4rxmhIQgb01PoAl8CYSbn/y+xGL4QvSeVkCAPtr0U34OHfVhvc61ZQfXw08X2OUp/QQUHf2MNnmEAmSTbrVREpCABEYnwFPzZpSEgIy8tqfPTVDJT0dORu8i1RTImphT5Jw1MYzwnCNfnrSCPrO2/l6NQ1qGNGs6nF5Vo3dmtEkBMiNsq5KABCSwQQKIEsRIW5zUuq7kFf5bfEhuT+/i+PbuVRt036abhGhGiJD73hHz1t3/j4Ac45/f3jSpaRvHNYTguN6vr2lrs/RVEFCArMJNGikBCUhgdQQI2ppRk2bO/pqfIBM8kbo/nd5VZ9ekzyGE21MJm7Uvjyx+L/75lQcfnOJ/X7v35TpbWpdVjHBwjZAR8831UpeVWrM4AQXI4i7QAAlIQAK7InCI1pLbIyf8vcZRk7bjmpGTW/yznV0cP2337gqNpm+V1Mq0vOZJPU/tvxz53ZKCdnBOMzLYXnPVXAM7aL5NHEpAATKUoOdLQAISkMBYBNripBk94eeaR04eiZRm/QmfNWKF3x1N+WxPajZAaPpGu1/wmSmdQLMd8jPR0IxUPiux3W/Ta/VICTwgoACxW0hAAhKQwFoIHMPQJgDFZv4mbUWgNH54JlD4/HbPzbFrHWFp++yRqGh8u5a+WZOdfUKjJlu1ZacEFCA7dbzNloAEJLBBAs0T3EO0rZ0JcPsWIW8FR1eg0K5rRuP6jm249hXZFRAKij5i+Z8zDaoRq43fnQaVz9EzFiCgAFkAulVKQAISkMBiBBqR0h5Jaf9vL0JlMQdYcTKBZiRDkZGMzAPXQkABshZPaacEJCABCcxJoD0fvv178yR/T12bPhcAACAASURBVKMqc3LfW13NYu7rveHNCEbz99542N6dEFCA7MTRNlMCEpCABCYjcIiSyaT27+1RFgXLZPirLbjZVKARFbewlOxi7mpdpmFzEVCAzEXaeiQgAQlIQAKfEGgLE/5uj7B0BYxTwurqNe1F/+31Fte7mYqLuvylNZUSUIBU6hjNkoAEJCABCXQIHFt/t4UK/25/1mxdK8B+Au033d/icHKTFBX9/DxCAkUEFCBF2DxJAhKQgAQksAoCqaMtNGZN2xk/emdKV0DQpu6IhLtEraLbauTWCShAtu5h2ycBCUhAAhLIJ/BqWljzAsAxphs1owzPLHwkKvJb4xkSkEBVBBQgVblDYyQgAQlIQAISkIAEJLBtAgqQbfvX1klAAhKQgAQkIAEJSKAqAgqQqtyhMRKQgAQkIAEJSEACEtg2AQXItv1r6yQgAQlIQAISkIAEJFAVAQVIVe7QGAlIQAISkIAEJCABCWybgAJk2/61dRKQgAQkIAEJSEACEqiKgAKkKndojAQkIAEJSEACEpCABLZNQAGybf/aOglIQAISkIAEJCABCVRFQAFSlTs0RgISkIAEJCABCUhAAtsmoADZtn9tnQQkIAEJSEACEpCABKoioACpyh0aIwEJSEACEpCABCQggW0TUIBs27+2TgISkIAEJCABCUhAAlURUIBU5Q6NkYAEJCABCUhAAhKQwLYJKEC27V9bJwEJSEACEpCABCQggaoIKECqcofGSEACEpCABCQgAQlIYNsEFCDb9q+tk4AEJCABCUhAAhKQQFUEFCBVuUNjJCABCUhAAhKQgAQksG0CCpBt+9fWSUACEpCABCQgAQlIoCoCCpCq3KExEpCABCQgAQlIQAIS2DYBBci2/WvrJCABCUhAAhKQgAQkUBUBBUhV7tAYCUhAAhKQgAQkIAEJbJuAAmTb/rV1EpCABCQgAQlIQAISqIqAAqQqd2iMBCQgAQlIQAISkIAEtk1AAbJt/9o6CUhAAhKQgAQkIAEJVEVAAVKVOzRGAhKQgAQkIAEJSEAC2yagANm2f22dBCQgAQlIQAISkIAEqiKgAKnKHRojAQlIQAISkIAEJCCBbRNQgGzbv7ZOAhKQgAQkIAEJSEACVRFQgFTlDo2RgAQkIAEJSEACEpDAtgkoQLbtX1snAQlIQAISkIAEJCCBqggoQKpyh8ZIQAISkIAEJCABCUhg2wQUINv2r62TgAQkIAEJSEACEpBAVQQUIFW5Q2MkIAEJSEACEpCABCSwbQIKkG3719ZJQAISkIAEJCABCUigKgIKkKrcoTESkIAEJCABCUhAAhLYNgEFyLb9a+skIAEJSEACEpCABCRQFQEFSFXu0BgJSEACEpCABCQgAQlsm4ACZNv+tXUSkIAEJCABCUhAAhKoioACpCp3aIwEJCABCUhAAhKQgAS2TUABsm3/2joJSEACEpCABCQgAQlURUABUpU7NEYCEpCABCQgAQlIQALbJqAA2bZ/bZ0EJCABCUhAAhKQgASqIqAAqcodGiMBCUhAAhKQgAQkIIFtE1CAbNu/tk4CEpCABCQgAQlIQAJVEVCAVOUOjZGABCQgAQlIQAISkMC2CShAtu1fWycBCUhAAhKQgAQkIIGqCChAqnKHxkhAAhKQgAQkIAEJSGDbBBQg2/avrZOABCQgAQlIQAISkEBVBBQgVblDYyQwiMAhzv5i5J+M/PORP4h8G1SiJ0tAAhKQgATSCPDdw3cQ30Wka+TvpJ3qUXsjoADZm8dt7xYJ/HQ06t3Ibz9oHF8AX4n8c1tsuG2SgAQkIIHFCSA8vnz/HuL3duJh2Dny1xe3UgOqIqAAqcodGiOBLAIID27sh56z+AL4giIki60HS0ACEpDAawKvhEf3zEv842cEKoGGgALEviCB9RFIFR7tll3vImR9rdViCUhAAhKojQDfQ+9F7o54vLITAYIQMUngDQWInUAC6yFwDFO/EflQaPLn4jynYhXC8zQJSEACEvh4qu/XIvN9lJtuccJbuSd5/DYJKEC26VdbtS0CCA6ER8kNv02CObisFTFJQAISkIAEcggw0vGzI3yHfCnKeD+nYo/dJgEFyDb9aqu2QWCsG35Dg91IhoqYbZC1FRKQgAQkkEqA740ho+/ter4af5xTK/a47RJQgGzXt7Zs3QRK5tf2tZjF6G/2HeTnEpCABCQggSDAQzCmW51GpOGDsBFhrrkoBciavaftWyQwZH5tCg+v+RRKHiMBCUhg3wTYVvd8FyFjklCAjElzxWUZjKzYeZq+KQJjT7d6BsdrflPdxsZIQAISGJXAMUpj1OPRe6XGqEgBMgbFDZRhMLIBJ9qE1ROY6knTIzBe86vvLjZAAhKQwOgEpphu9chIBcjorltngQYj6/SbVm+DQMn7PIa23Gt+KEHPl4AEJLAdAjkvExyj1QqQMShuoAyDkQ040SasjsAxLGY7Q37Onbzm5yZufRKQgATqIzC38GgIKEDq6wuLWGQwsgh2K90pgSWFB8h/EDnnrbU7dZPNloAEJLBpAlPsspgKTAGSSmrjxylANu5gm1cFgaWFh0+equgGGiEBCUhgMQI8fEJ48DLaw2JWvPGGAmRB+DVVrQCpyRvasjUCS6zxeMXQG//WepjtkYAEJPCaAGKDjU5OkWsYAfd7yB77MQEFiB1BAuMSWGpebUorvPGnUPIYCUhAAusncIwm8BAM4VFT8nuoJm8saIsCZEH4Vr0pAl+M1rxT4c2+Ddkb/6a6nI2RgAQk8CkCzTQrRMdU7/EYitzvoaEEN3K+AmQjjrQZixDgBt88YaphaLsPgjf+PkJ+LgEJSGB9BHgAhujgIVjtye+h2j00k30KkJlAW81mCByiJdzsl17IVwLUG38JNc+RgAQkUB+BtT0Aawj6PVRfX1rEorYA+dpdQXef5F7vlvHzds/fjZ8/v4jFVlorAW6GP9Ex7tj5m771aFi46WM/F59zc6qxbyE8eHfHqVYHJNj11TjmnHCch0hAAhKQQJ0Emp2sap1i1UdNAdJHaCefNwLkvWgvuyTkJgJGgkUyv5Nu99yUxbsHms9yy/f4cQgQ+P/Ui6K4kT2aQvRMMDw7fhxr33iD/viVsQobWA4MEB6MeKw9KUDW7kHtl4AE9kqA6VU8KD6sHIACZOUOHMt8BAid+XtjFZhRzi2OJT9LbVGTUezTQxuxNLSsZ0H50HKb8/FHzg1manvGalduOW/19I/c8kqOxw/firzWJ03dNitASnqB50hAAhJYjgDf8c0MleWsGK9mBch4LFddEgKEJ7t0bpMEaiKw9Pokbvrf3pD4wLcKkJp6uLZIQAISeE1gi99DChB7/ccECPI+3FiQpWvXT4A1RkuPOlzCBubabikpQLbkTdsiAQlsnUDp9PiauShAavbOjLYhQH44Y31WJYEUAt+Mg04pB050DE+dPpqo7CWLVYAsSd+6JSABCaQTOMShS0yPT7ew7EgFSBm3zZ2FAGGtRXf3os011AatisDPhLWXBS0+Rt1Mv9paWprr1njaHglIQAJTEdjq9HgFyFQ9ZmXlIkCukT+/Mrs1d9sEPhfNW3LntHPUz85XW0tfuF/vW2uX7ZGABCSwNQJb/R5SgGytpxa2BwFyivyNwvM9TQJTEFh6AfoxGrXFERAFyBS91TIlIAEJjE9AATI+U0usiEAT6F3DJkdBKnLMjk2pYQE6a0Bukbc2NVEBsuMLy6ZLQAKrIsBGLGwStLXkCMjWPFrYnkaAEHC9rwgppOhpYxL4IArjhUtLp2MYsLVREAXI0r3K+iUgAQmkE3AXrHRWHrkyAt2pLlvs7Ctzye7NrWmnJkQIwnwrIyEKkN1fXgKQgARWRuAc9m5pTeLXoz0ssDftnMCjufaHYEKH39o7EHbu6tU0v7admhgd5GZJXrsQUYCs5jLQUAlIQAI/IsB0LL6DthCX1fSQ0S62IIFXi32PdyHi2pAFHbTDqmsNkhEiTA1DnP/ylfqlVrYrxanZEpCABGYlcIjaTve81u8hBcisXabeylJ2G1KI1Ou/LVr2ZjSKd9PUnLgmeBr1xZqNfGCbAmRlDtNcCUhAAk8INKMiPBhb0+i8AsQu/TGBFAHSoFKI2GnmIJDTJ+ew51Udh7sQ+fLShiTWrwBJBOVhEpCABFZCgNH50/27aA2jIgqQlXSsqc0sCfZ48ntemeKemqPlj0Oghi14S1rCkyg2cKh9uqICpMS7niMBCUhgHQTWEJ8pQNbRlya3skSAYNThHnCtbQrK5ECtYBCBte8PzlMohEitw+FvhW23QR7yZAlIQAISqJkAIyLnyLWOzCtAau49M9pWKkAaE2sPuF6h/EF8eI38c/fMugOCszkDNG4UPD1PSYc4iNxNj/5f+5P4Z+2t5R0gKf54dgw+pV/91JBCJjp36PU+kVkWKwEJSEACIxMgtrhU+F2kABnZ0WstboyAhE5OwFXrU9+ubwhyeUqNzXtIx3sj8VMjePi9xrmiW7kxwZkbf20jhGNc73u4ZmyjBCQggS0QqPG7aCvf81voH4u2YayA5BCteL9Cpd2FW9s7JpZ0PjcmxAli5FSJINnajQkRUtO+7WNd70v2W+uWgAQkIIE8AjV9F23tez7PEx79IwJjBiQ1Tz2hwWtfXzB1t0WMIESW3NLvS3chO3Vb5yz/GpXVMiVuzOt9TobWJQEJSEACwwjUIkIUIMP8uJmzxw5IECGsqahxes9Xwi6mXpleE8CH7KTxswuA2uIuTTVdE2Nf7wt0EauUgAQkIIFCAjWIEAVIofO2dtoUAUmta0K2GNxO2R8PUTg3qzmf3m/VR7VcE1Nc71P2QcuWgAQkIIHxCNTwQEwBMp4/V13SVAEJ03i+VRmZrQa3U2M+RQXfmLqSe/lreAt6KYpznLjEqFLb3qmu91ImnicBCUhAAvMSOEZ13563yk/VpgBZEH5NVU8ZkFyjoXM+Pe/juuXgtq/tQz/nhsUmA1PvdDZlfxzKYOj5PHm6zcDwlZ1b5jvUP54vAQlIYC8E+D5fapdGBcheellPO6cMSJZW2d2mT9nWPXSnOaYRbd1H5+goS46CbJ3vHq5D2ygBCUhgKIEl4zMFyFDvbeT8qQOSa3CqZRRk6rZupEu8bMbUImTrPjoE3e8t2FG2zndBtFYtAQlIYFUEePny1LMaHgFRgKyqm0xn7NQBSU1rQaZu63ReqqvkqXy6l22Slxz69hqo61rSGglIQAJLEbhExUu8p0oBspTHK6t3joBkKZXdRT1HWytz72TmnKPksacS7UWAnILdXIv6vQYmuwQsWAISkMCqCSz1XaQAWXW3Gc/4OYLypVS2wdd4/eRRSdf455jT6/YiQA7BbalpWHNc79P2OkuXgAQkIIExCCz1XaQAGcN7GyhjjoBkqik7ufjnaGuuTWs+nvUgH47YgL0IEJDdIi/xsk6vgRE7rEVJQAISWDmBHy5gvwJkAeg1VjlHQML2ox9V0Pg52lpBM2c14Ry1jTUVa083pUtwW2LurdfArJeHlUlAAhKomsA1rBtzJkNKY/f0XZ/CY7fHzBWQLPXEt+3Yudq6p8405ltV93RTGlO45fQ3r4EcWh4rAQlIYNsElngYtqfv+m33noGtmysgWUJld9HM1daBLlnd6aeweIxF1Xu6KR2D2RJvovUaWN3lpcESkIAEJiOwxMOwPX3XT+a4LRQ8V0CyRCdXgMzXQ8cQmHu6KR3CNUssRJ/rep+v51mTBCQgAQmUEng3Tvxa6cmF5+3pu74Q0T5OmysgGesp+RCvzNXWITau9dxjGD70if7ebkpLLP7zGljrFabdEpCABMYnMMZ3d65Ve/uuz+Wzm+PnCkiW6ORdJ87V1t10nk5Dr/H3kMVsPxPnX3YE7xZtnXsnLK+BHXUwmyoBCUigh8ASsZkCxG75MYG5ApIlOrkCZN5OPtTHXwhzETF7SUMFWwmnua73Ets8RwISkIAE5iUw9nb6KdYrQFIo7eCYuQKSQ7BcYs5724VztXUH3eZpE4cE1QqQ6XuO18D0jK1BAhKQwJoIzD0dWAGypt4xoa1zBiRzd/IutjnbOqHLqi76FNaV7oi1NwHyfrD64sze9BqYGbjVSUACEqicwNyxmQKk8g4xl3lzBiRzd3IFyFy96NP13OLPkrUNexMg5+A01kscUz095/WeapPHSUACEpDAcgTmjs0UIMv5uqqa5wxI5u7kCpBlulrptn4KkOn9Nef1Pn1rrEECEpCABIYSmDs2U4AM9dhGzp8zIJm7kytAlumkvB2dUZCfyKxeAZIJrODwOa/3AvM8RQISkIAEZiYwd2ymAJnZwbVWN2dAMncnV4As1+suUfVPZ1avAMkEVnD4nNd7gXmeIgEJSEACMxOYOzZTgMzs4FqrmzMgmbuTK0CW63WHqDp317M5++JyZH5c8zl+dQ1IDZ7QBglIQAL7JTB3bKYA2W9f+1TL5wz65u7kCpBlO3nuKMicfXFZMp/UrgCpwQvaIAEJSGDfBOaOzRQg++5vP2r9nEHf3J1cAbJsJ89ZC/JBmPrOsubOXrsCZHbkVigBCUhAAh0Cc8dmChC74McEFCB2hCkJ8JbVa+S+Bel7W/8BcwXIlD3PsiUgAQlIIIWAAiSFkseMTkABMjpSC+wQQIS8F/nzD8j84B6I8/nekgJkbx63vRKQgATqI6AAqc8nu7BIAbILN1fRyENYcYzMT9LP3fOtCuvmN0IBMj9za5SABCQggU8TUIDYIxYhoABZBLuVSsApWPYBCUhAAhJYnIACZHEX7NMABcg+/W6rlyfgCMjyPtACCUhAAnsnoADZew9YqP0KkIXAW+3uCShAdt8FBCABCUhgcQIKkMVdsE8DFCD79LutXp6AAmR5H2iBBCQggb0TUIDsvQcs1H4FyELgrXb3BBQgu+8CApCABCSwOAEFyOIu2KcBCpB9+t1WL09AAbK8D7RAAhKQwN4JKED23gMWar8CZCHwVrt7AgqQ3XcBAUhAAhJYnIACZHEX7NMABcg+/W6rlyegAFneB1ogAQlIYO8EFCB77wELtV8BshB4q909AQXI7ruAACQgAQksTkABsrgL9mmAAmSffrfVyxNQgCzvAy2QgAQksHcCCpC994CF2q8AWQi81e6egAJk911AABKQgAQWJ6AAWdwF+zRAAbJPv9vq5QkoQJb3gRZIQAIS2DsBBcjee8BC7VeALATeandPQAGy+y4gAAlIQAKLE1CALO6CfRqgANmn32318gQUIMv7QAskIAEJ7J2AAmTvPWCh9itAFgJvtbsnoADZfRcQgAQkIIHFCShAFnfBPg1QgOzT77Z6eQIKkOV9oAUSkIAE9k5AAbL3HrBQ+xUgC4G32t0TUIDsvgsIQAISkMDiBBQgi7tgnwYoQPbpd1u9PAEFyPI+0AIJSEACeyegANl7D1io/QqQhcBb7e4JKEB23wUEIAEJSGBxAgqQxV2wTwMUIPv0u61enoACZHkfaIEEJCCBvRNQgOy9ByzUfgXIQuCtdvcEFCC77wICkIAEJLA4AQXI4i7YpwEKkH363VYvT0ABsrwPtEACEpDA3gkoQPbeAxZqvwJkIfBWu3sCCpDddwEBSEACElicgAJkcRfs0wAFyD79bquXJ6AAWd4HWiABCUhg7wQUIHvvAQu1XwGyEHir3T0BBcjuu4AAJCABCSxOQAGyuAv2aYACZJ9+t9XLE1CALO8DLZCABCSwdwIKkL33gIXarwBZCLzV7p6AAmT3XUAAEpCABBYnoABZ3AX7NEABsk+/2+rlCShAlveBFkhAAhLYOwEFyN57wELtV4AsBN5qd09AAbL7LiAACUhAAosTUIAs7oJ9GqAA2affbfXyBJYQIG9Gs39++aZrgQQkIAEJVEJAAVKJI/ZmhgJkbx63vbUQWEKAfCEaf60FgHZIQAISkMDiBBQgi7tgnwYoQPbpd1u9PAEFyPI+0AIJSEACeyegANl7D1io/QqQhcBXUO3bYcNPRT7cbbnFz+9G/rkKbNuDCQqQPXjZNkpAAhKom4ACpG7/bNY6BchmXfu0YT8Zn3wt8unJEQiRS+SvR3a9wHT9QwEyHVtLloAEJCCBNAJzC5Bvvog/0iz2qE0QUIBswo1Zjfh2HH1MOAPx8TOR30841kPyCShA8pl5hgQkIAEJjEtgbgHyncQYZNxWWlp1BBQg1blkUoPejdIZ/UhNiJDPRb6lnuBxyQQUIMmoPFACEpCABCYioACZCKzFviagANlXD/leNPeQ2WRGQS6Z53h4PwEFSD8jj5CABCQggWkJKECm5WvpTwgoQPbTNRAeCJDc9NU4gWDZNC4BBci4PC1NAhKQgATyCShA8pl5xggEFCAjQFxJEbnTr5pmfSV+eW8lbVyTmQqQNXlLWyUgAQlsk4ACZJt+rb5VCpDqXTSagYiILxeU5svrCqAlnKIASYDkIRKQgAQkMCkBBcikeC38GQEFyH76xjWa+vmC5s7ZRwrMW+0pCpDVuk7DJSABCWyGgAJkM65cV0PmDC7n7uRdT8zZ1hp7QckC9O9HQw41NmYDNilANuBEmyABCUhg5QTmjs3chnflHWYs8+cMyufu5AqQHxPg5YMfFXSaD+KcdwrO85R+AgqQfkYeIQEJSEAC0xKYOzZTgEzrz9WUrgBZjasGGXqMs3kBYW5yB6xcYunHK0DSWXmkBCQgAQlMQ0ABMg1XS+0hoADZRxcp3QHrS4HHN6FP00cUINNwtVQJSEACEkgnoABJZ+WRIxJQgIwIs+KiLmHbTxfY5w5YBdAST1GAJILysFEINPf6Jtjo3vvnDkJGaZSFVEGAvvSsXzUGPvrcPleF+37ku7mscQrWXKQrr0cBUrmDRjLvwyjn7YKy5uwfBeat+hQFyKrdV53xf1hY9PtH/n0j/7LIvzjyW5FZ//UrI//Cu8V/wP3v/6/Tgv8u/v5d9//9V/Hzd0f+nff//dw9wOScH1TXcg2aksAfEoX/gsi/T+Q/IfJPRP4lkf+Y+89f3qr8V7T6Wdem/zf+8d9E/r2tD/63+P23Reaz/zPyf3b/+XtafbERKe3zpmzvHsueWwgqQPbYyx60ec4Ac+5O3m3unG2tqXuVLkB3B6xpvXiO4n922io+U7ojWjMDn6g6hMafGvnNyH9c5EPkPynyr7n/PcW97r+Osn9r5P848r8T+b+N/F9M1D6LXY5A068+d+9Lv+jer/6U+IkImTP991EZgvffj4wooc+xmyNCmf/zHfW/zGnQRuuaOzZTgGy0I+U2a4ovqmc2zN3Ju3bM2dZcP0x5/DEKL1mA7k1iSq+88cY5ileATMt4S6X/adEYRjF/deSfisxTaILCpdJ/FBXzRPs3Rv5NkRkxMa2PAA+oeD8UguPPjPzHRv5VK2gGo/r/Q2R2d/wvI//2yP9uZEbvGFExpROYOzYztkj3zaaPnDMon7uTdx03Z1tr6jTnMKYk0P1mnHeqqSEbs6XUL0MwOAIyhN585/KkmalUvzbyXxn5GBnB8QdGZgpMTYlpNDyF/s2Rf0NkRkiWvtfXxKc2W/ge/EMj/8WR/+rIf969XzHSsebEiMj/Gvl/j/w7Il8j/1uRGT1BkNgnn3t3bja1CBDE9zciHyPze5PoO6TmJ1NQf/7+P2w3jURgzqB87k7eRTRnW0dyzyjFlK7/+GrUfh7FAgt5RAC2JcJwCE0FyBB605/7S6MKRjn+wsh/WWSmV63tvvXPhc3/bOT/PDIBoakOAr/fvT/9LfHzb43MmqG19a1cksQcrB35lyL/K/c+6VqSz1KcOzarQYAcAgOxUVt45PavtjDh3O7f/O92z8/KRjhz3i7TnDeguTt516FztrWWzsRFxpzZkvQzcdKl5ETPSSJwjqMUIEmoNn0QgeCvi/zXRWZq1Rqmv/Q55P+KAxAi/0hk5u2bliPAyBmjHH9NZB5ArH2ko5QkGyj8lsj/cuR/OvL/U1rQBs+bOzarQYAQ25TsDLo299/CYPLYiTKZJXMdUvCcQfncnbzLZc62DvHJmOeeojCGGEuST8tLqKWfc45DFSDpvLZ2JPPtf/09M+/+D99YAwnwWCT890T+VuSl7/8bw9vbHL7v/vLI/2Rkdq8yfUKA6YL/QWTejfVdoXxMYO5rc2kBUroxj93lswQu8S8eVhelOYPyuTt5F8icbS1yxgQnlU6/wpS3It8msMkiPyFwjqwA2VdvYP0GwuPviExwyDqPrSemYdHPvx7Zp87Te5ttlv/8yP9AZEY+mHpl+iyBfzv+9RdFZvvfvae5Y7OlBcgxHF6yMc/e+8mz9nNvR9BnpzmD8rk7eRfGnG3NdsQEJ7wTZfLksTTtjVcpp9LzznGiAqSU3rrO4wn0XxD5r4/850aeezvTpWmxUP1fjfw3RXaHoum8wUMj7ilMt/qDp6tmMyX/2dGSf28zrSlvyNyx2dICZInv3nLvrONMtoRvFuonWzxnkDl3J+9CmLOtyQ6Y6EAWsqLwhyyw2hOvidzwstglboJOq5vX01yHLPrlSeufOG/V1dX2f4RFH0RmrYsiZHz3/I1R5N8bmfd4mNIIMBL5T6Uduumj5o7NFCDb605Fa4bnDDLn7uR7FSDHaDgjH0PEB3NjS96cvr3LaroWKUCmY7tkybwk8I+O/PdF5qbM1rmmTwiwOP1fjMwuTP+3UEYh8EdFKf9o5L/WvpbN8x+PM/7u7LO2d8LcsdnSAmTo7JDt9YDhLfpqFEFMk5X2JEC2/vQXwfDlyKesHvD44KVvECM0ofoiuFidglW9m7IM/BVx9N9+vwbZ3cr0WQIEO1+JzLxh0zACvyZO/8ci891myifwb8Qpf0n+aZs7Y28C5BAeLN0ddHPOH6lBRetA9iRAioaIRnLOmMUwssF2nSREB/kYmYtqrMRUCZ4SmKYjcI6iFSDT8Z2z5F8Zlf1tkf/Ska/DOdswZ128wZqX4F3n0KOLeAAAIABJREFUrHRjdbHO4x+O7A5X5Y4lCOVdO3tPexMg+Jt7z+f37vgR2+8ISA9MFsiwSC97ocyITqKobqc/dIIWBEZ7+lP375HNeVhcUWeaw7AN1XGOtihA1u3QXxzmIzzYAWTIlMd1Uyiz/j+M01iYjxgxpRNgAwNGkP7ByOyqZion8Hvi1D8n8m8vL2ITZ+5RgBzCc7wA0GtonC7MPem93KL2NAICG8QHkK6RWefwSIz0qeLjE8iP/o+QWGNgogDJvZLyjz/HKQqQfG41nME7O/6KyCxi/TNqMGiFNvBiOPo/U4jcCjXNgWyxy05iLJye87s7zbr1HcUW0X9zZF5OuOe0RwGCvw+RiQe/uGfnj9T2otc2zHkTm7uTj8R1l8UoQKZ3+/kegE1f049r2Po6qDlYwvA3RP61kZfcTpcAfsn6x2DN6Mevjvw7xihs42X8gmgf4uOf2Xg7524eL8pEBO85zR2b1bbGFCFyjNxMaefvX77nDpHZ9qL1H9ShAMkkvZPDvxTtfH8nbV2qmeeo2BGQpejn18sTHvzFyMcSby3nDc7/WmTWZ/3OyOwixYsM2WWLAOIXRf6lkbGTaSV/8t3OOe/x+VTfeOMfipOYTmR6TYA1jP/8QpAYKfhPIv/WyL8r8u+O/Hsj82LJ/yky4qid2GYZgczoPzvC/bLIvyryr4v8RyzUhmfV/gvxAVsY7zntXYA88/0xPmjW2PJTUfJZUt+Mf51KL545v5zm7uSlTDzvk11VroKYlMA5SleATIp4lML/oCiFIfp/IvIvGaXEvEKYJvobI7Nd6P8cmcDuVUKUMDJCZoEttrPTz58eGZFSW/ofwyBEE4Gs6TEB3iPzm+4+nYMRfe63RP7XI//myAiO5t0tJX5i6hjbU9Mn2TaYac5s2MBLOX9hZK6xpdI1Kt77LmJzx2a1jYCk9r1GjLDmb+9ihAdhzXKGVH6fOU4BUoxu0ycqQKZ37zmqUIBMz3lIDbzU7e+PzMvzlkj/aVT6d0YmCBwaJPxZUQajN78+Mk+ja0kIqr8rsi+Ee+yRPz7+zchXs/PhVH5DCLIxAGL334w8x8LsPzLqQRz/VZFZS8VoydyJhch/Q+TfNnfFFdU39N6S25S1CpB2O4/xxzly35rhXDY1Hf/9MOZ2N4jrhAcT/Lzefx9sqwJkMMJNFqAAmd6t3LwUINNzLqmBKSVsE/v/t3ceULZVRRp+SzCLLh1EHFQaRccwZszitIoJMyYMaJsjyjjmtK6KjphFxzhqgyDoGGYMjAHxKuaEYhZ12oSOqCxhREV0zf+9dy/cd+n77gl71w6naq1a/V73Prt21a5zTtXZFShzmupL1/Gi/TjhKV0Y2ME1K/rbfYUvFM6HzgQm1Xg6vravCj0ZfXuRXUL/5SsjidKxAAdwPNEHDENrY3TKFzlV5LhQ/p3qclZAGNl+QngfKljveQ0OyFRXOA15VaGK83ute+pQTB2MDf0ONAF3QEzEXByRS2vFm1UIK46RjBc80trcAclvg8jvOEz4IGGKLuYYhKcKV4U/iiSenTXvHkISmgmFSQ3wi1P02dQLyYz+o7WeN0Zc0x81N6F95EF0Ca0KvTTsEUK0yAt6gOH99xDROjI0MwXN5w5Iv80qxQkhbGre4ejHec+r3QHpKcBKL7fUi0pFuJStkUa4A7JUTKYDyEXAELmlKdXtif2v/ktsfCznY5YajsgLhPQySV0unDCs1yaUe26kL6YFfUV4jUgLowIZRj7hVjnCvloU1Rgt8jP4gv3kHIVgtCZ3QPoLekNTpDotX7R6QqjGQgoKZVlUyNLQtFby/io13Bks9WKoUh6JcXdA8tn9W2kpbxem7IxMpSvWcZKxWGgixVdnjN5U8G4Rvl8q4hnSfanWxOlEDKCYAYb9V2NMHnBOKmaRf/VMYcywrI9ofiph0ZhwiGBtm9UUgjXVl7H+kUM+CE4Hzsa6kNOOrMHS0LRW8qwFn/niLPUic1FEW95IM7sDEk28jSemMs8BwsOFKZJgpwsl/4GeBITcnN149eEGPkZTpewx8XnRx9j8n3AsFTsT5WoxImIY3X/SvFRGo7AB+Q8lADkazxHGMvCIhacww1D70VjbZjU6IDy3VhLeTMh0fYIJl9GOtKWhaa3k7STho2clYKkXQ5X8SIy7A5J299Hzu0we2il6e8xy/0n9h3yMlInYNFik6lcK4P2AETjkakRTuVPyOVZI0Ic1N/k2Z6XY5B40yQ1BLoSNxQCqjf04xsQFzGltm9XmgKxqj3l+WwOO87qQQhUb1sRD0LM0NK2VPIR8hjqHpV4MVcYjMe4OSNrdv4PIHy1M3R+D0A9K5H4xrTi25oG8U5gqMX1/0abfxZDhqmKe/htXiyCE0zUnOv/lCHNbTEm/EJ6b5CzRPyQkUO76dSEnLGgua9usNgfk/dprqrdZAY4HTgdYdLEgS0PTWsmtlKE2OrU9HHLdH16k7oCk2x2qQH1amDLnY8o9Jw+EmOQAt9MiPiBMUQHsKaLLV+4hw6PE/JsiCQDnDievdHiuGMBhCNlVnf4n5CAN0U6x5rkmGwPHAwfEAsjvGAnXLYhZ0HAHxELKZdGo6eGQs+R5kLgDkmaHLiWy7xHeRkgOSEr4pojfUPiXlIuYoc1X5tcLKU1q+X5gCW8VUg2rtPCgUFtH3w+MGXIeYgCJ1pTcrQEw/N4i3DUQMz/XPFcSWhvjgZbfaxprnmuxMVYkdQqGxK4gyInHSMiJR1Vg+YKxVvKqNsqQmVoeDoYi60SKB4o7IJ1E1/ui22uG44Q79Z6p/wTEtB/Tf5qgM1BO8ntC61MQ+oCwN0N1QDCAN4Qx3st/1bzMT8+VWoDqbZSRxnHrCyTnE/6GIzI0sLbNarAxcDrI+7heZGV5jeYfCYsOtVokoxgPukW0rJU8sl5UO30ND4cSNoeHijsg9juF00FDpjvbkz4fRXI+yP3Isfzn+7SuexrLaEP0ri2kHPEQIWb4Ff1lVoQY2jUBz9CnCzm56wOcQK4JyYEaGljbZqXbGBbOBzJCH3kmVgtDc0CmredDbygKed3Qkyaar/SHQyKxtSY70hXugLQWW+8Lrq8ZvtZ7lv4TYGTzgnlv/6mizHBTzUppXEugOR5f6Yd6AkLuDQ5pDKDC0z8K6X5eG7xSDHEa0hdohEkI4NDAHZDmOx7b+cBGXRNm2TiwuZiajRySA8JXTzY2xVHW6tx2oMSzR3cr+j8I8JMQiFTgDoiN5Eci4w6IjaxnqTxI/8khDp4u13RcT1l2d0fSpzLY8XPPqdi7RV8K6J4Rm1CG89ME8lfC0NWdpqzS8ZwTrRqdO041yQd5aM995Z68Uc85SrzcHZBmu4bNRo7WSrPhrUcdoSsOEaawUVsvNsQFQ3JAbi2BjUMIzWiOqZOyOjEC+EnybGxwByS2hLfNPxK6A2Ij61kqh+k/NPxLCZx+UA71cykX0YA2ZUkf32BcqCE4IFQ2GswLeEZwt9W/MW5iOSAf1dz3Ev4h1GZlNg/vSwpLIMeucIoupCnp0HrRuAOyXGNwPsj5iJFwTnWrNeF4+TLqGjEkB8SS1xhaguLjHYMxHRF3QGLs3vnnHOlX7oDYyHqWyrP1n0PtyW5H8c36H53HrV/8bdm+ty6gPKkVDNkBIfSHhNNYQFGBfYS1OiDIjbBBIh36dJAnBI4+LEMC6+dQaTbGmpTh7ZEUImVkTiSWmk9raZRbK/m8FCx5bb4D7UfiiFCOjTKZMaC0h0MMGVjMORIRd0AsJL09jWfqvy+2J3suxS/oXzT6K+Er/820zqOEVr1ShuyAvExypg9KLCAHhDzF2hP818Tj24Rd3/dP0rWHx9qETOe1ts1KsjF4R/OuDg2DyvVYJLyuN2mXzbBW8vk1WvLaRT5tr+FBiyMS+jSkpIdDW5nlNJ6Hmjsg9jvyCJHkBCLF84Aka3JQPmLPdieKlDc9QWgVFz9kByR21THyanYX1piEPqvc3NecJNGosAtQBeuBXS4s+Bpr26wUG4NTD+ys0DCICldNhGb5ErZW8nn+LXltIvsQY4hLHAtDOiGlPBxCyC/lHCMRdwfEfgeuI5LfsCe7leK/Cp+ViHZXsjhL5KtYwJAdEHqg3DyikHn/7i3kJKR2uLwYfLeQIg9t4TO64P7CIfUDsbbNcrcxYla6wjkmjN5BErA0yq2VfH6DLXm1VC46wpK8GApyfziE4jP1PCMtwB0Q+12gX8DPhFRbsoRXidhThTSEKwmO1WLvZ7TgoTogvJswfGM6IGzhM4QUYRgC3EZMUtb44i2ZxU65gfDrLa8rebi1bZazjcFHXU4+QjcY9JCrTe4QS6PcWsnn2bXk1fphtDa5aULQzfnhEIK/XOYYaSHugNjvxs6Te4VQKCs4UoQeLSyxCdzzte7nGQlqyA7IiZLxLSLLmUpYd4xMI5fpL6SFEKL8MOGFWy7qxhr/5ZbXlDzc2jbL1caIVemKE3dstCE5tY3uB0uj3FrJ5wVgyWsj4QceROOauweYM9eHQwDWsppipNW4A5JmS/YVWXpcYKTEBpKL+epM/keJ8AQtmgZtFjBUB+SSEu7HhRi+MeF0TU443VCMa0KTCW27Vguh0tSQZ/OZLa4pfai1bZajjbGmTYxR6eoIzTuo3h5tbgZLo9xayeflYMlrmz0INXZFE+Fh980HyfHhEEpGOc3DS87aAXmoaK7nJIREayHGl6TfW0ekf7bmptwveR8Y1qWCZePGoToghF69SUin8tiAQcRzIPX7ODaf0/kpzUti+V5LCH5afz96Mrb2SmHzorDWhdxsDMJjY+RlcHo8slL0EulYGuXWSj6/H5a8ptIFlL2vUZvbwyGVLGPTDbFXbdfoD8TzJEacN43LlhkmbWXMeErtvkRIjffS4cFiAKPVAobqgOwn4RIedQEDIZ8qGtD7rgGtHEjw3ueE6cnCA4XkgGGLIGsaDn5tcp+erJ8lhkiGkLG1bZaLjcGHKJyPtRBCnJvDP/Y1EKqlUW6t5PPsW/LaQPTRhmxo5j17zJ7Lw6EHC0VcOtIq+zqLbRl1B2R7ie2v/xJeFKrPBcbdMUJiz2upouMOSNu7rP14QgLRQ/p0WMCHRYRKT0MKM5qVK3lgJZ9KhtYRa9ssBxsjVqUrks1XhZ7v0UBLLY1yayWfZ9+S1waijzZkTTP3iWXM4eEQTTgZTTzSWtwBSb8h9EYgRIOSnRfssJy/TAw5wq3eJfyV8G8d5sn1EndA4u8M/VbGwhvGJ7WVAu9iPkYQHkiooMOwJWBtm6W2MUg2p3LoSuBtJ9mcqqQbgeetdjpLo9xayec3zZLXlAqDZ88N0DUXJPXDIaXsLGmPRMwdEEuJL6bFF1G6k/NVmK/QuwivuGA4Hcx/IjxLSKjVfwuJH/9zHqwEX4U7IMFFer4JeTdZlOGdJYy+0nn99cKaHOb4u1UfBWvbLKWNgYPAB1rspJCA87Eq5P3g0FAClka5tZLPi8CS14bijzZspJm7GrcpHw7RBJLhxH32qCs7HoK1XHKcghASQxjjTkLix6ehKjgdnHDggPxw+VRVjHAHxGYbcUBil+Gd54QwJBpjvnFGx224dSo5ScDaNktlYzxJQic8NjSQ67cmdOejpWQtjXJrJZ8XhSWvLbch+HC8e0oudoFUD4cuay35mpEW39VJ7Mq3OyBdJTfc69wBsdn7T4rMqg2p7ahw+oFRRtGE0xLQd5LpJWBtm6WwMTj1wEkIDRToiDFv6HVmOZ+lUW6t5PMCt+Q1h83u2hckxcMhB3lZr8EdEGuJO70uEnAHpIvU2l9DHhIhgCkAJ4QTPSpFHSdM/a5OIYMh07Teb0sbI1ayOfrizkfPu8bSKLdW8qE7IHjlXZLRqd5w/Z565Zcvl4A7IMtl5CPSS8AdEJs9oFnl02xILaTyB/2FQgr/LDwj8VqcvJ0ErG0zKwckVrI5O8M9EiOcy27XM6DkDkgGmxBpCX3CsCz1IhL72U/rDkj2W+QLlAQeKDzKSBJ/FR2eW0NrBId4DxK+QXhxI1nviMwP9Me3Cikp/bMM1uNLiCuBGh2QWMnm7MRDhetxt2QYs1samtZKPr+Dlrzmoj1dw7CGKCvrPXMHxFriTq+LBA7WRYd3ubDDNST3X1NIsv/QgF40nD5TgS0X+PZk79+tn55gm8uuhF+HtW0W+wQkVrK5Ox+Bdc/S0LRWcndAtmw5REKg02dbsNSLtmurZfxIjHgSei27WS8fLxRrzzFib0N0CP8cqrH7Y/G+l5Gsm5IhP4TKb48Rflw41G7hTeVV4jhr2yyWAxKzs7k7HxE029LQtFZyd0C2bCEG8qQOemOpFx2WV8Ul7oBUsY3VM/EicUipVgsYugPy7xLywy0E3YEGJXvpeUPfkI8JvXdIByFmeom1bRbDAYmZbO7ORyTFtTQ0rZXcHZBtEuBrYtumhJZ6EUm1s5/WHZDst8gXKAm4A2KnBvcWqf+wI9eJ0m91FaFiJKt/SPjLTrP4RTlJwNo2C+2A8KGVMtahmwtO98gTziNpq6Whaa3k7oBsk0CXPBBLvYik2tlP6w5I9lvkC3QHxFQHLitqXxNewZRqd2K/0KU8xyghPMS8ne6Sy+tKa9sspAOyJlF2qfbZZgfcHmojrRZjLQVrreTugGyTQJc8kEvruqHGYbe4fXoNdQekl/j8YiMJeA6IkaBF5gJCqk9hVJUEP9JiXyt8h/B3JS3c17pVAta2WSgHJFZzwVm12NB/csvLqkZt3QGpZisXMtIlD+TWmm1cv2iScugOSFLxO/GGEnidxj2+4di+w3jZDzkJHfndTfhffQWZ6PqTRZcQMtb/zURrcLLtJVCaAxI732Negv5Btr1ONbrCHZBGYip+EC/2PVtwgcfPNQ7xJDDS1F4FK558feYwEqAE633CTLV0Fp45Q3dAdpsY8DddKq18B9A75H3CI4WElDnkLYGSHJCYzQUX7ZLngETSX3dAIgk2s2np2Elt7Cbwew2KlczVhP5QxozEqDsgQ9ntcvnkazZf5S1gQ0SG7oAg50cKXyO8qIXQI9GgatYfhZ8QvlL4lcn/I5HzaXtIoBQHZE080lbA2j7hueRhWD0UbNGl7oBEEGqGU3LDchM1qYb1fI0bZchDbUtCxu6A1LardfHD8+J44T5GbPGMcgdky5ZLSg5fFF7dSO4WZNCjI4QnCmk46ZCPBEpwQCzyPXa0Iw/VH9fz2bI6VuIOSB372ISLe2jQ+5cM5KsbSesO8SUwEgl3QOLL2Sl0l8BNdOl7hXt0n6LVlRsa7Q7INpHdVUgFQxLTawJyQzAm0auf1sRYwbzk7IBY53ss2kaeTX4KEljJ3QEJLNDMp1vR+gjHIo6SnBDCrajpDvJ7bjIHGwmMRMYdEBtZO5X2EriILqEi0wPaX9r5Cp4/7oBsE99OQvJvDugszXwvJDSLalk0NOSjF06JNzZMt1/WDgicNrE9VzWOj6bWIVeLdsJPQQLraBMlCEUyhZLPrt2S11Ay83nqlcBIrLkDUu/+lswZz8r7CY8WWn6B3xA9d0DO0xz6gtB9/IYlK9OStWMXfHDiiJykn6dXzGuurKWwzZbZY+Ss8lE0J6A1Aacg3qIg0K4sU4JAZLZOk0LJZ9dvyWtIuflcdUpgJLbcAalzb0vmiufkQcK3CC9kzMiG6LkDsr3Q76n/vk2Yy1fgWCqBfUB+CP1EPio8MxYhn/d8Ekhhm3GfE3kxDyv6BSF6q5nuk4epB9wYS6M8hZLPisqS14Bb5FNVKoGR+HIHpNLNLZSty2ndBwufLtw5AQ8boukOyPkF/0z96kXCIbzDzhCf5IaQsI4z8ucEejg0kilsM/KbcK6ngIPNqQc5qLk724ucp6HpTW9+LR9oKZR8VkCWvPbeGJ+gegmMxKE7INVvcxEM7qJV3k74VGHK/hPugCxWl9frT48tQpvCLPKvE0fkZfpJwvqvw0zrs2wigVS2GScgOCKrEyxlc8ZaKM2aHXpKwNIoT6XkUxFZ8tpzW/zyAUhgJB7dARnARmfKIicc+wnp8XF74a7CJmW6Y7Kzocn9BGRzCVMU4MVCmqINDeghsi4kKf+0oTFvwG9q28yAxeAkvDlhAJFaGuWpldyS1wBb41NULgF3QCrf4IzYu7TWQj7HFScG/m318zZCTj4wbHOBjcn6PMlz8x1hv14gHGKp9LPF93eE7xQSmvWnXJS2gnWkts1KFCHPKD6W8Mxy6CgBS6M8tZJb8tpxO/yyAUlgJF79BGRAG27I6rVEixMNKrZQcntv4c2FOCI5Ay9z1kt5cIfNJYAj+WQhjsgFBygkSvieKqRC0huEhGo59JNAatus3+rTXT0WaQ/F6iF/S6M8tZJb8tpjS/zSgUhgJD7dARnIZkdkk+fajYTXFVKu9SrC3SY/Lx6RboypT9akOEp/iDF5ZXM+QvxQLADncqjwGTF+qPALQndau2tBatus+8rTX+mhWD32wNIoT63klrz22BK/dCAScAdkIBsdkE3CpWhQdyUheRs3E+4jpGoM4TnWZXMDsrZ1qg8I7y88K/TElc53K/F1mDBl4YDUouUE5BNC8mM+lXoxhdJPbZsVKraty/ZQrB67Z2mUp1ZyS157bIlfOhAJjMSnn4AMZLN7sLmnruVEA2eD8CTyN3BAaoT/ElNrk5d6jfzF4Ann8xXCA4UXi0GgkDmpknWs8GlCL93bbtNS22btVpvf6LGW5KFYHfbF0ihPreSWvHbYCr9kYBIYiV93QAa26Q3ZvYXGXVtIONI1hIRXDSHe3x2QhgoyN4xu9QcIKVm70m2KKq7CxviJ8HnC9wjJF3FYLoHUttnyFeY/wkOxOuyRpVGeWsktee2wFX7JwCTgDsjANnwBuzyXpgYkpxuE1fBV+/IDFI87IP02/Zq6/HDhPwlTNJLst/qwV69rulcJySty2LEEUttmNeyPh2J12EVLozy1klvy2mEr/JKBScAdkIFt+Ay7GIdXEN5ESDnce0+cDhyRIYM7IP13H+eVcD1yIgjZGzJwGvIs4THC1PZHzvvgsgmzO2NN46FYLWRpaZSnVnJLXltsgQ8dqATcARnexl9HLO8rvOXE+aBMrsN5EnAHJJw2XEZTPUN4sDCnXi/hOGw20zka9iYh4a6/bXbJ4Ealts1qEriHYrXYTUujPLWSW/LaYgt86EAl4A7IMDYe44/KTg8XcupBUrnD5hJwByS8ZuDsPlWI45t7H5jw3J834wn65+OE349JpNC5U9tmXcVG6eWvTy5eyeTZSigWpyDTdXXlbRDXWRrlqZXcktdBKI8z2UsCI13tSei9RJjtxfTfIB7/scI7Twy/ISSR990Qd0D6SnDx9TjBTxBS2GCogPPxSOGJQxXAAr5T22Ztt4NyyzSi/M+5Cw/R/8n7SQ04H3RJd1giAUujPLWSW/LqiucSWCaBkQa4A7JMSmX9/WpaLvkcdxLy5bkUoJcCpUvJQUkZruMOSFyN4QTkvkLyQ/j3EN+Jp4lvDNV3Cb2L+jZ9S22bNdV6HA/em+MdXLCmv7296YQRx71momcRSZQ/teUDKLWSW/JavmY4B7ElwIPUHZDYUraZ/44icz8hX5dxQnIFnsH0S/i08BThSULCGM6cLPhs/byo8OrCg4RUU7IEd0BspE0o4JMme3w5G5JZUSEXhEae3xC6E5K/A8IzCqdxvaEWcTJy94ZjYw4jFGsck0Dpc1sa5e6AlK4tvv6QEhhpMndAQkrUdi4M9dsJ6TmAwU7YVU7wf1rM34RfE35BiNOBwcVJB78/fcliL6G/H2X8IncHxFaDriVyOJr3FObsOMeQym80KeGRX4oxeWFzprbNdiSuLs+EFU1IGNSlEu8D+SAUGuGnwyYScAfE1cIlkEYCI5F1BySN7PtQ3X1ilN9LPymhu1OfyQJf+z3N913hFyc/j9fPs3rQuIqu/aiQnxbQxdiwWFftNK4oBh8jJEmbMr5DAU4D7yocuhOSowPCqceacD7Po6lu5pIPwvpx8B02kYA7IK4WLoE0EhiJrDsgaWTfhSpGGvHzDxDeoMsEEa4hZOo44eeF3xT+SPiDwHSIp8YQsAB3QCykvDkN8n92FVIx69HCXdItxZQyTvt+wl+YUs2LWG4OSKjnAKcg181A1A/VGtYzWEd2S3AHJLst8QUNRAIj8ekOSP6bTdNAvpL+mzB1d3JCp/4k/LjwPcKx8IwJxpLkozQxfRQsIJThYbHWmmlQwe0hQgoqXLlmRie8UTnpmULCE4cIuTggnHrcY/JcC7EPq5rkkyEm6jmHd0lfIEB3QHpqll/uEugogZGucweko/AMLrvQxPii3CO5Him7lP9S9L8lPEL4QSFJ41ZGw4NE6x0G8oaEOyBGgm5I5qoatyY8QEieU63AvbS/8CO1MriEL6tnyY6WQX4azsdG4D1Y13w406nBS/NusgPugKRWS6c/VAmMxLg7IHnu/t5aFl2kMbxSNW/DKCA2/WjhZ4RUrEoBDxZRHB8LcAfEQsrtaGAjcA8cKKSr+j8ILe2GdqvtPprQRUpnU6Z3aJDaAcH5WBXGSNYmp2lDmDohHZ3y0rxzd5blgyS1klvyOrQHmPPbXgIjXeIOSHu5xb6CeN2nCVN+8cXpOFJ4svBXsRleMr87IIk3ICPyl9RaCMtCJ64tvExGawuxlBdpkueEmKiwOVLaZoRdrQhjOB/TbVjTP3LoDcJ6SEjvmlhfmFotX66lUZ5SyZGEJa/LJe8jhi6BkQTgDkg+WkBvBE49qAaUorIV1ao46XiWkOP6XPoTuAOSj47mtBISt58o3FdYS+UsqmLdYXL/5STr2GtJaZtZ9coYS4jWfY022zfPB5mRiqVRnlLJ3QGJ/Qjz+dtKwB2QthKLN/5umpr9uH48EgtnppIVjgdfX09IQH8ZSUsHhO7UjxROGyMuW5v/Pa0E6BVDn4OHCSnhS95U6UDO15OFqe3NbzVOAAAcgElEQVQVSzmm4pXQzjUjRq8nOqnCWOdZ9HyQiUTcATHSfifjEpiTwEj/9xOQtGpB80AM7OcLL5tgKZ8SzRcLKaObq9Ft6YDQ1PEwIU6ZQzkSwI64kpDwxQcKyaEqFTa0cL6U/7RUBjqsO5UDgvOKvK1gJELW79xFvHk+iCTjDoiV6jsdl8D2EkjxMMTQhq7Dtj4HLxXS88DyOYjszxESavVaIWV1cwZLB4Qk59flLAxf21IJ4HzQL+c+QvJEUoQzLl3kkgGElnFvDgVSOCAUnKDqlTXk0hsEvgefD2L54k2h5LPKbcmr9U3l9MqTwEhLtv4a4w7INj3hay0GBqFX1sBpBz0HOP0oAdwBKWGX8lsjOVU3EhLORHWpkoDeEbcX8qFgCJDCNkvVnC+nUCzyQciBwSkaJFga5SmUfHZTLXkdpDI5060kMNJod0BaiSzIYJoJvlFo7XxgzNBPg30vKbzDHZAgajfYScgLoZz1c4WcjpSQJ4KtQg+UHw1k11LYZuTbpTK8yfN5UiZ7iwxwQmJWAcuE1fMvw9IoT6Hk7oBkq3qDX5g7IPYqsLtIHiNcNSZNRSu6LVPeN/VzsC3r7oC0lZiPXySBQ/QHigzQaT13wGE6NPdFBlpfimeSpe05LyaqtmH47xlIfn2noSwv4ViDA0slSKHksxtqyevgFMkZbi2Bka7wE5DWYut8ASEhbxLeSWj5LPij6L1E+ILOK097oTsgaeVfG3VOQe4upN9GzuV7h1SpKIVtZvkM3uweWtUvCbXLBQYZHm2pBCmU3B2QXG4vX8e8BNwBsdMJDJ2XCx9uR3IrpT8L/134BGO6Icm5AxJSmj4XEiAMaw8huVCU8M0xUf1Ures2wu8PYMusbTM6n5OLkRpyCsVCFoNLSncHJPUt4PSHKoGRGPcTEJvdp+IUfTasgb4WB1oTDUyPsqpHBZ5z0XReBctI0BmRIdn72cJbZbQmlsLJ5UHC92a2rhjLsXZAKMCxGoORlnPmFoo1uKR0d0BaaqwPdwkEksBI81g7IKlKHwYSWadp7qirPijcudPV3S+i6RVlJktKON+M26frl4SQWYA7IBZSzo8GuVmUw+aE8ooZLQ+955SmdhiqA8K+rgpzCsUaVFK6OyC1P1qcv1wlMNLCrB2QXL48We0Jja44haAcqDXQB+E91kQj0CMRly/UFuAOiIWU86Vxcy2NRpS5lO3l/uU+rh2sHZANCZRncy6QWyjWYJLS3QHJ5RbwdQxNAiMx7A5I3F1HvsjZGo4VQb7onmFNOAI9QtcIYbMAd0AspJw3DfJDaBC6JrxU4qV+RPQpWlE7WDsgyNPS9myyfzk1KGS960J6pVQNlkqQQslnN8+S16qVxpkLIoGRZnEHJIgoN51kN/32S0LrUotniibJhJ+Ix5rpzO6AmIrbiU2MU8Kx0D3u41TwBRF+hPDbqRZgRDeFbZabPZZTg8Lptqdq1mikdrZeaAoldwfETJWcUEsJuAPSUmAth1N9yrrqFUvEWLmx8KyW6811uDsgue5M/eu6oVgkb42KWSmARHSaxH0xBXFDmilss9wcEMSd4p28bJvRv/GyQaX+3VIJUij57L5Y8lqqPvi67SSQ4mE3lBwQDJZvCVP0GfgX0X2lnRpFp+QOSHQRO4EFEqA871WEnCbSxycF3EFEP5aCsCHNFLZZrvZYbqFYVVfGslSCFEruDojhU8xJtZKAOyCtxNVqMF2Maexk+XxjgXQ8v5rwx61Wm/dgd0Di7c/FNDVVny4iPF1YesW0WJLCCTha+HexCOxg3jvrb8cloGtJMoVtZv1sbirPFQ3ECUmdfzS73g395/pCnJGqwFIJUij57GZZ8lqVkjgzUSQw0qyeAxJetBfQlP8jvFL4qZfOeJpG/L3wnKUjyxngDkicvdpf0z5OeFXhZYTfEf5MSAL2yXFIFj3rC7R6PixYg5+AxJF4zvbYIWL5VXHY7jxrleV5LZXAHZDOuucXViiBkXhyByT8xlK15kjhruGnXjrjZzWCmN2/LB1ZzgB3QMLv1Yqm/G/h1TeZGucZY3s9PNmiZyQci6pU+xlzcS/Re58xTWtyKWwzS9uzizwphXv3LhdGvGY8eb9EJGE7taUSpFDyWWla8mq7i06tRAmMtGh3QMLvXMqvV+8WOw8R/ik8W8lmdAckrOgpM4tBS2jPIvid/vAE4TFhSRc/2z7i4MvGXDxY9N5hTNOaXArbLHd7LLcu6VOdWNc/qinPa6UEqxJa6m6TVrxaPzycXpkScAckzr69U9PeP87US2eF9qOEf1g6spwB7oCE3StC9H4i3HnJtDghnOZRStphmwR2ER4hpMy1FdxDhKjEVTO4A7L57q7q16nt1s1Wtq5fVuGEWBnlOWykFa81P6ict3ASGGkqPwEJJ09m2ktIsurNwk7beDZ3QBqLatOBOG9v6TdF9lffVyt8V8NVEtJ3G+HZDccPYdgDxSQhluR6WQBOIKFfNYM7IIt3N8V7uomuUWSFtRUNVkb5qqSU2pO04rVohfDFm0kgxYOt9jK8N9DunSikulAKcAekn9TvqMs/2m+K7K9+s1b4yIar5CQNQ+PVwpryihqyv+mw6+i3hDr+Q59JWlzrVbBaCKvF0JLssbH4+qcWvFkN5RRk3YpYDDpWSpAyLnsqNyteY+yTz1mfBEZiyU9Awu7rTTTd54Wp7nUcEF4KNX2xtgzBuptk98GwKpHdbCSf42g1hV9r4C2EP2x6wQDGfVw8WiWj3060jq9cpilOQCgrS2WnEoB8kA1hTqV5p3Ir2gmxelGnMLbmFduK1xJuKF9jegmkuCdqPwG5qbYVByQVnCTCrKEmB+RQ8fNsI4E+UXRea0QrFRkaZF6rJXGSoNeEf2t5Xa3D0RGS9GMDfRdwdL4am1Di+VM4IFQLHCfmuw15coHe3+YCw7HFOiFWRnkOJc2seDXUOydVsARGWrufgITdQGr2p4zX3hB9QkNqckDo6v7PYbdp4WwH6y+vM6KViswvRJhE9DaA44GRQe6Dw5YtT5MQDjMQxFg0CJer/fTJHZBmykQo5JOaDTUfVaQTYmWU82XweuZbsj1BK14Ts+nkC5HASOu0dkAQTc33AQmjKbsW43hcTlhTx1pKwR5odE/R/yLFPWHE3tZ7j2aDe3QgeIau4Wu8dRnaDkuNfgmlrtejU9my5UOicVcDOilJrIg4vWesobQTkKl8CBu7rrWwGtIrzgmxMkZSeNjze2bFa0Nd8WEDl8AokbFV831AxaBPJNSrv4o2pzAp1xCa/fdoQpqxWQAhDpRQ/rMFsQQ0+jggLJcE/QcJf5Ng7TmRfJgW81aDBRHqRVhgzbAq5lIUCCrVAck5HwQ9LcoJsTBGOPngBCQ1lJT0lFpWTj++BEYikeJrb6kP/iY7kjoHhDW+WGiVM9FEJn3HWDogv9diryTka3+N0NcBQSYvFz5TeE6NAmrIk4UDwkdTiucc3nBNpQ5LldtQ8ntoVZudwmlrqmPFOCEWDkgOFbDYuJIVvqni+bhyJJDKASGen1jWGoFqQZThtXiuLZLfyfpDrkf0Xfbc0gFhfbcXUuWoRgjhgCCXxwnfUKOAGvJkEYLFKdP9hCc0XFOpw1K9h54vgUG7VMjFrl0kvyKcEIsXdQ4J6GySOyCl3up1rnsstlLUFqerL1+9agT6gHxFaPFcWyQ/yqbSqflzFQiY0wjCopCrFfC+sOx0bcUXdEI5IOQaYYQfa7n4jGiRK/TcyOv5sebfW5hD+HhMVlMlVpfugLAnudi2i/RjXX/AEckWLF7Up4t74uZSQ81fflPL1um3l0CqwgwkSF+6/XKLuOIqWiWx4Skcu1kBvUz/oVJP6XAfMUAS+k6GjJwlWo8WHmVI04pUKAeE9W4InyrkhGpogOPF6URMWNfkWRtvgZgfJ3pefkp0VwPxkGoa7FqS0vdMtYAGdLPW49gOCAqWS6zcEVrLWoMN8yEuAQsJpPyyxhdmvt7UBjzP3itM/QWdr6dULEpRXSbUnnL6QVNAOk9bw/dFkA9GNO2rCUI6IMiFilqEY1GtaSiwqxj9sPDGkRnG+R6Cc5fqPbQh+e4VeQ8tpifHeSzMsUnhlP/1yfM0u+qMsR0QGOeoOAeo+ctvDvL1NTSXwIqGpjROeWASklgj0CvhoAwY49n3CCGVsUqDy2rBrH//hAv/iWg/R0h3+TYN+DitubAQwwpjlZ4bNP6jPwvlb0l0x7Eiz8R6b0I7IGwPIX+PEhJaOQS4iZjEMY15ivs7zb+78C+VCzR1gSD2MDujuMOer+mat3e4zvISTmp452cl75gOCMdTGFk5hF9NN9rzQCxV3mktkkAOCWy13gs0isohyR7jlpKppcXpk8j/UuHNM7l9cRTeJaQb9ZnC04RUyeLddTXhhYQXmbxnrq6fVxVeWbiv8BIzPDB+9n33Mf2fkr8Ym1YQwwFh7acKaeD4r1aMJKRj0YTwReKPHJNUpwNW4l0ToZSGcxGJ0g03I1UuTcPlbR2G88F7H2ckC4jpgKRW7s0EPJ5sQBbC90UMVgI5JK/Vei/cRVqFfC3zFhYpMh9gHiukf0PuQANF4uqfLmzbqduKt8+IEE7IFC6uf5AgP+totFkLX9LRlzYnLG3mnx8bywGBDnIhzPiFQk5FagQ+Zn5EyClILMC5vaXwm7EIZDRvqjzEqQhqK4gyFmOp8w+bqBcfQF/TZGDsMTEdEF6+K7EZ6DB/rfHvHUThlySQQE4ngzVUIpnfwmvoFxiWuSQG/khrIak61+aEnCA8XPgvQmKyL5DgnkhFki+C9xValv0lb+MKERnmZOcZwhx6b4Vm8wmakOaAMQEHB52YdXRj0ks194oIpwwDnvJdSxgW/PBuHwtLKMPORzpOoJKGZMVyQHIIMVl0Y2d3DJXqCeR0k0hgJKopGhAuYramY/ApjySppsxfmJf1T/WLxwtzSRa+mNayi5BEW9ZFfkSsd0GSm6wF0Vdo7FNajO879POagIaZMYETEBxKHPHfxiRkOPcVRYvS1jGdNyp24nwcb8hXKlIjEc7hPVTbR7ASktKnOoctzAf5cSoljPHSyekL7yK5uhOSSuOGTZd7gy+TK5mJoTYn5JGS75uEMZ5vXbcO4+Z9QjpZf6/rJD2vIxmbHAleOhha5E4MHcgvIRfEKt4fp+COBkKHny8JCan7tCF/MVgjxI6GgDeKMfnMnFTQu3dkGjlMn5ONhi12feFGDoIJtIZ7aB76J5UCnIZQddB8D2K8oBE8G5A7oPgjYRaxcLkLy9cXRAI5J6qxNr5GJT2SDSLlbV/3ScztmhsQaBmbTkN1J4zetwh/GJPQZG6+yBEzfwchDgiJ2w7nSYCQJUrZEioXG3jfHie0cECmvFD1691CTkRKDCu6pNb9AeHNhIQLxgLygP5R+N1YBDKad6S15HD6MRUJBnDq0umhtyc3GS/jj/f+1AZYNjbY30M7IKUJHUFSEQDBk8Dn4BKIJYFVTZxLT5xFPG7oD5yGjGMJwXDeN4sWJyG5AsmunxJiHGJgkXvRx/kjlpo5qEePw3ErIb1ISC7HEQv9rM9Vrm3XxZd19ITeLbEhhQMy5emX+sfbhDTqzCH2v4msKYZwtHC1yeCeY6h6dWjPOUq4nA8SvIc4BckJ1rUY3j01ATzl0oaiqVw3NHAkNLGHQ76U1rTolCXdmgp40TgEjycOYhg4uARCSYB741XC3B76i/gb6w845SX3FsAIJ94+5DMulD7Mz0O/AWT+HSEnN4Ro/VFIKd/NksIZT68Lvg6TbE/TwN2EfCXOJfk+lqxCz0v52oNDT7qD+axCsBYtgZOerwnXhYRm/Z8h701Jcc+yJ+DeTS/qMQ4nlDC8WquHTUWTawjwdH1ZJEb30KP5S5H3WFhCUvr82jcmzwgcEf4dBUK9nHOpvR9KSHyJRHFAnBFOSRxcAl0kUPK9wYOHlwIPodLuAUq08kGERGsHl8BmEviBfknpYUvdprv2vTLYDt5xPxfSlJEPDeSLWOXBLGL/ovrDXYVUu+JLPaGUsQEZEDJOn5maAXnyPORnzjANBYpq+BoKACdkQ5hzp/Rl4pj9MA8vwaCvA4JwUWpu4NphLAZ5UYFsgp+S1L7j/fhb1eXE2fKzBkDneRCh/+h+0AdRJAERhkR4U8kP/0iiGfy0nCLx1ZvEY0vgmTCyJNiA1jkac8pEFifqJydxfxL+psG1fYdcdnJ/HqifhODsJexrlzRd0x80kC7y72x6QaHj+AiGzpVyAj8VM+8a3jljYcn2Fk4fPNTwHprawNOf7BV5Zp0+4nS90VFklPqQApU65DNkQ5OBKBeeO5tAkim/cxieBFbE8t0n9wX/rhlmdR+9R/9ze0lcUGsiF2St5o1w3lpLgJOP5wkpBmAJvG+hO7Ik2oHW2bqGfhjc4yRl804jgf0rQhyTrgD/V5kgYYP7COlez4cCa8ABfZbw1UIcsNoAo5f8gzVhaY7Hor0Y6w+lfgTmI31JlbFC3Q/sGcDPDeF2uSVtHRCMKwQJ1qLUoQQ9Pw/CBmdPTDp5ibEW6PMGkQD3wdTp4KE/dJg64ug6D53UeSTEkLOOPYa+MR35x+CsqVwvoUYYnqkaQ+Z4AtJENXBEcEIonkDFKHJHyE/itARjfjNbgn4zVxZi4O8qJG+J0Eh6evxdE6KRxrB+cvJIPCfXqhZYFSM4HfxcqYWpJXxM3zfzP3P8ELwmXkrOkw6hUuzTrYVbbeFFDgiGFC3lMa74N8rsxlV/8W9oipHQpMJA/+X6DDuQgJ8CNlMPdJ4a4//ZbHiUUcSU86Vzpyiz1zcpX7rpWQLyjqCSFn1VaFhYMhyrxdN48XcJmaAEL4noDmkkgENNyNWThYSO1AA4HSPhSg3MBOaB985YiM2F8ZsaeA8RPTRkwPmg98t2DsjUoFpzRY6uG9wQ1L3O4YaIzmyFBDgB5EuGnwI239x1DSXGOwVgRNN34+EpiBdCk0aJnA5QFYreGIThzAKlfDnNuoWQL9klASVoDxMeLkydaH27iXxLkl8ta/2zGHmH8InCGk4+VsUH76GVWjYoMh8jzU/ft9R217rWUFp53tBbgwPy9ekJCKcbOdaGDs10TvPhmdfWfCcn+cZaC0f3h8SavPJ5cUB4+KaAy0+Mj9umIJ4xTUr+8kX+P4SULd4RED7zISGn423Dd1OIACeKUKvnC7+YYgGb0CQkyaLpYSbsZrMMdOGpQnLC+uSx5MIQjsdaLospaB18fScEKKUTwofLsbDE8ryhtpqoiFfzEkEYNCbyr7mhRNt8nq1eYPPhPjKxBHA8cEAcukng3KPXbpf3vopOxzRiu3HvmcqfgERsZEEiNvHSTYHSqEcJ79b0gkTjqOD0NCGNHql2lAuQ+/C/Qg8HtNsR9p/Sx2MhpyClgzsf/XaQU5DUHxGH7oTwUWiEA+JGVT9l7nP11k3oM4FfayYBd9TDiDr1l3Oq79CL4UZh2ClqFsKPThYSh0x+B4YZzQ7bAl3XP5qpDAmtOVJIgjG5Hl34ayuPNuNpHvlh4S3bXORjO0uAUz1i7r/ceYa8LiT8d4jVlELvAs+wlKcg8EPk0VhYQ3netvtDTs4axoAnxbQVXbjx7oCEk2XsmVZFgDBFh34SSO2AsPprCd8oHIoReJp4/aaQ+HdCP0O8eJEhjhxlVHOA305e5i/Tz1zCrRbJ5QX6Aw6SQ1wJjDT9urDNCV/cFfWfnXfQav9pBj8DYVjjDKQwVCeEfMJ7YAxwk1Ia0MFeAu6A2Mu8K0Ue+u6AdJXeedfl4ICwmusIXyK8U3+Wsp2BcBO+tr9CyJfg0AnYd9GcnDbwNTElHC/irxeW8mWYU7gXCh+cUmgV06aYAvJFL2rI95jdqtD3cMVqsEPWcnFAWOSqcGi2xbkhWCMx7w5ImtswZVJuGo7LpTrEh0To3fqGJuSLTy5wUS3klcJHCHfOZVEB1kHCLUnlnAaQ6xGz4s9Bmp+YamsnhNCqU4WPE46F9KUoCeihgQP3bCGnSIRmOfSTALmsVHFDH3MLvevH2XlXuwMSRpI5OSBwtCYcUo+QrbYvXyM9pjCMQredhWNhjLEQ4RBtafv49hJgr05qf5lfMSOBXE/8HqM1PkVIl+aS4adaPKcAJInTy8MKXi5CjxXSeM4CPiMix0z4pDFe6UBVsTUhRRJ4ztTkDFvsDUn9hBcSV/4tC4IJabgDEkb4e2majTBTBZuFZ8AQnJBzbd9pOARG8BATYYJpTsuJaIC0KvQKWC0Fl3i4P/y7bwCnH+h8rg73NbW2Q4WEZJXU+Zsu1J8SHi38gpCyuimAkyRCimJ1uKZPyeeEOFcnCH+dgsnINPfU/OghvUJwRPhK67BYAlQ6w2AjDJCO7HQ4rx3cVuu/w9hfuVZ9HUJONu0nyEU8t5Z7jFMQXoqzMN5Eb7iZQhvhPLgXKRe/nw8BWdHvePBbAV9pRsINK4JOJ5gE1jVT6gZCfD3Yke70uadWdyApvtJ2BZ4FawXoPM32ri0kSXi/rswaXIcjzJfeD0yQvhIkYacG7o2XCncLuBDCxyilSzjZKcL5BokBSWU1Fe8qwtpwQvYX0kGdD4ZWp0xZCWNmMTjcFFSYOh7kOdVQWrepvMca2OdZ3JROzeNyPYmfynxd/0htZ8TYf2yXNSE6vBVmE0JxQvC+dmSM8xUTA2djDpmrj+ETg9k+c846MfNOy/zfdtRMBk8bBwt58ROvj387lCmBlck+dj0tnN4/cD+9h6aSmP8/vx9nLCZkAQKb/Rt955mAzof+yBBbLDwX7yp8vPCGwlhf9dvwQSUrjHGcDr74IlOMsdzgBloQMfj0OKJxYRfgyza5K+Sx4HzQyXzop4/kjNBEk/fNPkLyRnCYSw8bbKIf7P13hSTqUlThY8JaczyWySPGx+JlNJf9fbOPYjuyBzc0IdgXNvugvDoz6Yr+PbVnp7bYWL8b9SVscP26aNTghGDzTG3fraces7BZRRo2DZwFNs3BJeAS2Ha6xkNu/iRtKpsN/QMEanLKh7r3NxHjDxMSn4/hdyFDQXCywQP8s8JvCzG8SjDEkdEBQpL7byFsEtL2VY0jh+VEIRW7CCdzWCyBC+pP9LK5nPAKwmsIiWtfbSjv3GWLE4pOgOgEJ34/z33RRutbE52RMFTkxuyHMVgYz/Ax/w7zd5rRJovMIULLxsdTJ22Ww+mHxNnfbeg/4CJY9vdzr8ulJKbdljoll4BLwCXQXgJ76BJCi+gdsq+QEC2c0VDP0DM1Fw97DG+MLcKNMMIwyksNMbmM1v73Qk5FcOD2FvI7AOfqVxN+aRjIv/mdQ3cJ7K5LORUhTAtZ31iIc8Jp1JWF0+R2dDaXTuzTkwzK5eJoTxG9x9jl5M9hcwms6tfTiAz+PQ+zxuO84zB2oRYhgRWtEkeEk6+mDufsidT8vu9IJ8wFEurlab5wJ+gScAm4BBJJgNAijDlCszD0bibEOeEFcWEhxt78SQnhUz+crPfH+olhhdFN0jgx7ZxsnDPBmGVzE4lsCyWPdxHy5R44S0hiuUM8CRC2hZ7yE+AnIYWEb+EYcmqCzrIv03HYBPwb5xoMAb/QJIQLTkMG+Yneg5zsccqxIcQZ4R5wcAm4BM4vgRX9Codzs+iL8eQe4j4qBtwBKWarfKEuAZeAS8Al4BKIJoFpgvvNRYGTFByTXYWzZYGpNEVyPL+fDwfEeeDUjp4sODuMpUQu/yePB0eb07yh5m9E2zif2CVQogT+HzRl8w2NH1MTAAAAAElFTkSuQmCC;movable=1;resizable=1;rotatable=1;deletable=1;editable=1;locked=0;connectable=1;" parent="WIyWlLk6GJQsqaUBKTNV-1" vertex="1">
          <mxGeometry x="422" y="228.16" width="38.91" height="50" as="geometry" />
        </mxCell>
        <mxCell id="c1gprHzyJphH8RitFeNw-8" value="" style="shape=image;verticalLabelPosition=bottom;labelBackgroundColor=default;verticalAlign=top;aspect=fixed;imageAspect=0;image=data:image/png,iVBORw0KGgoAAAANSUhEUgAAAmIAAAEYCAMAAADI2WruAAAACXBIWXMAAAsTAAALEwEAmpwYAAADAFBMVEVHcEwZGRk2SlwQEBAxYZIVFRUZGRkaGhoZGRkVFRUaGhoZGRkZGRkZGRkAAAAVFRUaGhpMXmz///8YGBgZGRkaGhoUFBQZGRkwYJEQEBATExMODg4ZGRkvYJEwYJAAAAAAAAAAAAAZGRkwYZIZGRkAAAAZGRkxYJEwYJIAAAAAAAAAAAAAAAASEhIwYJEwYJEwYJIVFRUvYJEwYJAvYJEwYI4ZGRkYGBgvYJEAAAAYGBgZGRkAAAAAAAAPDw8wYJEAAAAAAAAYGBgwYJIZGRkBAQE2ZI4ZGRkxYJIAAAAAAAAvYJEaGhoAAAAYGBhPT08AAAAAAAAxYJEvYJEzYI8wYJEAAAAAAAAwYZIZGRmtra2/v78vX5LX19c4ODgXFxf///8qXI80NDT4+Pj///92dnYEBAT///+UlJT///8wX5L////u7u7////f39/////x8fGtvMzKysrs7OxnZ2f///9tbW17e3uHh4e8vLyHh4dCQkJFRUVwcHD///////////9cXFxPT0+urq61tbVaWlrz8/Ph4eH///+Pj4+VlZX7+/sxYZL///8AAAAaGhoYGBgvYZIwYJIyYpIyYpMxX5I1ZJMvX5IxYZAvX5AANnQ0YpMxX5ABPHkAOncJQn0FP3oAOHYvYZA2ZZQiVooaT4YMRX4zY5M1Y5MyYZAvYJAdUocANXMtXpARSIElWIwXTYQUS4IPR38AOHUrXI72+PkqW40gU4koWo2vwdT7/PxFcJwAMXG2x9hPeKLb5Oy9zNyLpsI7aJcWFhbz9fhgharJ1uJZgKeovNHX4OpxkrSctMp1lbZmiq6juM7v8vUbGxvD0d5UfKTS3Od8mrmXsMiGor9rjbCSq8Xk6/Hq7/NJc59AbJrg5+7O2eS2traBnrxtbW2np6cKCgosLCwQEBDl5eXe3t5aWlrNzc0GBgZGRkbt7e0+Pj5lZWU2Y5QAImd8fHyPj4+YmJguLi7IyMiCgoKJiYlycnIAElsmJiagoKAqKioxMTEkJCQiIiLwf/bMAAAAjHRSTlMAHAZQaQrstNkUSufE0t8hywP9pX9tD3avKzUmhsu49s7pvTCMo2MmqL3wg2s7VNb2GcKAlROboXar+ZPWxy6hRbTzR+NhGqo8WHtc4Ptb/XSbZOoN4ZOMh6/+/iD+/UP17/5j4v0+zf7s/SgT2tDDe/eZ4z6S7OGc18+pzJ+7soDghVSK8a6tpMhRRbDFA7oAACAASURBVHja7J1rbBNXFsdZUD90P4QSaZEKlZJ8SFch4UM/IiUIPmQl0KaQL1QCgaINLEI81QKq+th237vaMV3PTN14hnlY8Qu/xvY4sZOQQNKQpCGQbsI7LAXRLltamu5CYV9Fa8+940f8wDcYyROdnxSClLm2lfPXOeeec+7NokUAAAAAAAAAAAAAAAAAAAAAAAAAAAAAAAAAAAAAAAAAAAAAAAAAAAAAAAAAAAAAAAAAAAAAAAAAAAAAAAAAAAAAAABF8dyK5vottXXVjdV162tb65e8Ar8SoET8YMNr1VXHclLTumQx/IKAJ7L8laVrV6xcviyH52pek0dcaVRsWQG/w4UvknUN9bVNjRU1q2oqGptq6xvWLS3Gu6ze2DRHQVXVrQ0r8U/XrTlWNNUbwAgLlpUbq/O6l9aGF/PLq5CAmpqXVBwjpOnnYIwFSEMRQmisX5utr+pjz4KNYJEFpq+aom1ftWZJ2sLX5iOfltsPvvrtrV0P/7Fr19Gjv3yhoqaiqiX7qVowy4JhWSupRlZtQd5sC+nCx9/c395lqjSZ4l/av5WJr5373zjw5tt1jXO3A2vANguD2vlFsrrVm3O4uKq7/3mw495XOx5/MfdHX9z6rNeUi0r8fefB37/5Ul3mos1gHuOzMctDVe04+mjr9q+HE4LoGt6+9dGtTZ/ffnK5oeKdtw70trWli6frb/dvfa/9dNNnpqLY8177y5l7h7VgImPzXEZsqml8549vtLXFo1dl5Vzjd217eC+f0Krq3n59d1tlmkfK4M4dEwGVf/h1cyOkZAsmy093Q+vf/d3OyifYf/vDz7MrDC8d2m0y9ZpKRPwj7G8/vD7tDZaCoQxLWuJT9/Kh/UVq4Ot/Pk5X2E+P7DFVEono6kjP4Pi5qb7Ozr6BqTMTZ0+f6p0rsrb2F9PiZQOYyqCkwlHt4SNkKvny73jl7e9Ill0bnxmKyqqNEyVnOBQMBgNhpyyqqhoYmuiZzHy2/cepz7cejGVIViULqofbc2ZRXV2F5HLnm/jS+3M1NDI2ePPC+PjNwYtjI5PZi3r839ois52dFouF17AkYI/HgpIqhqbG0lxZ5c6961JZIpjLgCQT/ea9ezJkcOPi5aG4yUXVZlNVOaQMTY0P9k/mUtm2dA32nj/jkXyiTZRlSZKF+H9sgrfvQs9w5prJGVuog6FomjbHoTUoiuItbtoe5uS+nrRnjyxOpmQtYDDDobd9Vu07lC6v8RMyJzqDUSXioU+coI/7lagjIImcKkWmLo3kdWm9l/wiJ3kjH7otmE6L+4TfHpJVNTrak/HsJ1Y1ylKZmBM6Y9wuf4ALT6SJcu8Pk45sOdjMmPXWpkW7U1HuctAnO/yuWQvPpKzPaNGM7fYGRJ/svzzXKyUY6RNEh99tYTSt6JgTay2zHruTk6+fT3/+rCR55oosobP4Ct6lCOroteSj7+9LxvNlYDUj0Zxs0SRrpdN9NtnucsdNj+SRMjyKZXG5uLodEifGJm5kCGx6yBf2o3VZqkHOyR0JcdLoJ2lrBnz2HBrTVMa4IpJ6JpmSHVyUDJZgNiOh7yQX66YcHuDiOkm4ISoPWixjLW6/Q7Y5Y/1JtYyeDFj5Aut05yRxfGqRaUwO00y+FWxElgeTIku1UMFuhkvEGpfpdrxik/wFdZLmldhOiyDpoaxfkv3sExcmnJObDvlip5MaG44JnrwaY1iF81/VH923GfaVRmODvkvbiY3YpypsEQLD8AG7bv0Jn5dliloUf3GWDXJ8KlwOqDE273uyHQH1SjLp1zVWB7YzVpj8yXvYoThkmqWKhvVKegnjOhchWIiEcy6psUucl8+v67gjG0hqTG/W14PxDAG2V3073kgGAjyBTJiYqoc7q0wzFBlsRAgno2W/HCygMcYjR/Xt6z599HElmM84TqxmHy5phQN80TEykY6peiYek2iKGIb1+pL7xavOUKH3ZsPOU/hJvQhbBeYzADixWf0LZLxuJ5HCWOcQtjordVDzIe7IlOEiNRYUcLm3chE+WrAODGgUJ1aNw+SA0EGiMMYuY3lMiTQ1P5iOgKQ3Cq4V1hjvFabRg7uX4ZkjMGDZsxqZ6lXUmOzx+YnSKVq9iEw+yBHnYek7huR2cTIQ4gtsQ1mHjPeg77+KPjgcGS971mc4sYCXbEsYtOKSvhqbv8LirxNLJmSTTgdb8B0l7Db/VAXDY0aKkz9CJbFzAk8kDb+K45YjyFJPA2PlpvTWu83OFlOFO1iLu6qAEcquLb9BE2FihDGTOB8Jl6ouizz1dDAem66xMa6bKVSylfvQc+9CG8kQoN5R3UGkFNlNpIuIgBpHp2xk0sytMVHX2E3OUyjqdpxEcxoHVoHEjBMnf4WGXOUYmRNzjiJNdAZY6qlJ82OjQqHdKe+Iak+1oSPjz4MRy5rnUQHzdc1mF21kTszKod1dv6+DokqhMW4Ca8xeILUzU8dtyHn+DCpjBgAda6tAp40YB0vkxEIWXNYPslRJNBbxnUWveEpUCoRKi4gaCo/gQhUD0KRZ6QUtTl4TrWSVBg5NSJ/2lUZhiVa3+hc8TcTReSuwNB9ACf932offAlY0QCr2Fpp0EIniJGN34PmKAG8ulca8Mp4865Py7lHNTFRBJzjheLhRJFZ1QLPYUIhIKi7hEuor2vxUqSRG8WFcyzWFo/l9Y7eEnoH7esqfxWjIAtVdwzEiqVhFNCZ2jrDSUXhQscM2juRznsu/h/CokymJwbndsmYFKryiw2YcSQvIzDo+QlqQFKZkTiyR8nM4HRsKs/mzwFMpicHoa1mj1fZbNmnZ/kXRQjIr4cbbujHORZUS1hvAQxdi3ranCyRmGNDw6L9QvdNJJDGPiBLzvtIl+1hjMu6IT4h53Bg9y6HW6G1I98se7bqblq2avWaDPE0SJ3FeLndTpZVYPFTig5kBe243Rnf60HzZB1C0KHvQdU/oSjmHQqAVs1u+8EzipFbSVfTiWG43Zp7FEvsUSq8Gqbwigwp+Eh24VGTlmVLHyYQf048DBPNMr7E2lIvd1a55ATOWM9Upif1VJZop1EtThJWOIou6Tly4UHNLjMFNSu3TLwEzljMVKYlN21iikkUnaiaWPk4mvJSA++HB3NmYVehNSQwuGC5r0F9w0GoWp7lOmjwVuyK6zaWXGBOTkYYGc28qI3JadR+G98tfYnfRwRCVQGKUG/er+0K8+Vm4MfkyEpEzZ11XCaRJDKxY/hL7AF3yJZJIzCOiGxHDCvUsJBZ3Y3hiW3LniNJeOq0NDlYsf4k9QHMWcvGVVzOlhNBxIfE49UxwiTdxrufJNcyDjgx8CQcpDSKx79HAPIHEaD54Hc27cu5SCstsRi6RYSx2pGFTJHtMkrZIKIz+F/pHBpHY/4i9GG2RxzN1aUZXIjIMg48JzXOWx+2mI4pityuRk+g2lUHBnf3uAjoffAsu5zGIxB5jW5JITET3lc+EEk2nhKJ4i/t4t2KP2mNW7fbO+eT4LiUsiKrT4Ygq3uC3Cp5Gy46Ubh/aa9xLfHr4a6gGqIt9issPBF1wlw/1oZVoYsPHuFklJKhiOKh0ewOyTXZYyUXGRpxqcODsjeT1xPhWRHuUobMm1dBDH0O2bxCJ/RkdPyLZUXpsaCZQ6o77rw+jMheeGTyti2P6gtXm9LNE4ZL1OIWB6Vz3q4+G50g/udeAmoUR0HqUH6OihY1AYt1hdHpcYNwRp88xMVccV6dUB099VPQGlYlyM8O5r/DPyhHjew1039QkbCgNgHZnym1UeiWp7tu96PoJMSYIozdyKWMk5GSK1hgflHvy/ZWIC1kS0zeU22BazAC0pvUouaLzJzPrjaBJnn+H/s/euf9GcV1xfG0MBoLl0mCeMZUwtWkbP7BNsRwJq7jakDhFKTaqf7CSnyJV/C2L1ndnZndnPfvweB+2d9dvbAcwprwCNQ4hEAjPKGmbVGobaKVKlfpDO/cxj92dnXtn7ZBg7VUEZrl3Ztj55Nxzz/2ec+/mPRUwHWbdV+di4cW8B5Hcz0FsaBqvNT6Az/5W8SX+sNvbOmIPB2XbYbE/XLA6eGucsQwBF40YCTuz+PT2xacP1EO9/hjOXoaMBJ6gv3mvWG7gJWjrEGJnbOrFPN6pT82YunXj9sK1J3op/XCUyY55Bpf0M5fEsVAInckVev6RKWLANV/coXyJWolR9RplXQN6vPH72XjduftsMjCtkBGYOqeWoF6aZql1wY+p1WIvjp8/fz41GIwkvQnOG8T3WM5CzDMwiXPBz6LSe8V3+ENvCLGvcHkdZu2+xxu8m3me4NWpVCQ2zo2Ox2LJubHUY/L5bIxhqvQPkkKvy+cDwUv3Fp7e/swbF11DJBP406ygBfAGsSb2C/jo7xZf4UuB2Jf4DTNnICmIfW4A7LO5QDiaGPaOjEVmHp3zjIXigTQ50ZQuc/TwsRnidKXC59Rzbi7EOC+pmPE4m3yeZI/8tVh336T1OOtqOrvKujpr+g7ZHFnXUNbW29rSVtbZt5qn5KEdpPdO28uj9HhDS3rcKh5IJtCBXHHi/N+4GnlOJtJJutbHS8SNN1Jzo9pFlycGVJKS0QzFGNAk3X8qumKZzdnQ2tgEJEGA35ckSJLQ2NHAxllNbzWQgSAJyvcr+ERRamouO7RKj/UrfUl5m1kjrSCmnid5fWp6PMGj09lmkxohi/Hzt0honqpY5AZxkbIL8fHH2rohPsuJQXyJ+Gz2avaZ7u0XD9pSW13HCABABMDwP6Po8wEg9NJkwQ3VkiTLstFv9vtln+g7UGM+wN/U1HRKZn2y13XEroRG7e6CX7kUmNOO1ZqdMMydz2+SmZIq9kkT8WF43h9RwZ0Z41Rj9TCY+VSKK3ZPF4sVE9xwO4GgMP1+BUnsrsk/cmurS3AJZnZAhkNPmCKm4AhE1mfbgxD7GudisCpYFcSwLzaUSuhhCS6oz55LgSipT0zFdnyClIvl+PEQkghdi8VHXNwcvsKd7OJlAik2gJQ8JUW6lHaoW39vflGSJJdLBEA3aJK0N9/QDmUE+V4FQTF6MlBMn08UCAnKnGkC2QiEWbDn73+B65SwLikVdx9rUi+MGdw3bjyixcQmo0R4TXXGuKRIinkOubiZSPjSo/FQjHMBNTTxYebWKeCiE0VXLMuREkQf1nMC4GvsaGk70QAd951NguT3I4AUao6ZjewSCGDKQIGr7lBGKkuFlp2Ngl+SEaI+l9jtXCFiP9GXlLlx9PyKRDwPXs1YhHIxstO4GBsbIse7nZukYMvHnpGscogSPxObmINKII83jEWPNzP3j0BCLWFcrPukemGSD8Egyns7sxcAvYrXjyCS/A25I5tVcZScM7Snq9ElYz6B/8TKEPuZrnu9HmBGjGxEZ0HJzYUeL128/igU8wyRdeJNmpaWj10yIAaPHOcyVhQZhhKlPmGMvypm6ZImygphoij2mgPYLQhYh5ztkJW60I6h4uh3d5oObXFhS+b371wRYu8a8sFZk3U93vhVU70/NzoRDAUn07xrYPIRnv+mKXmW3Nw8KRiLESMuBBgmAdnZJJ9xi3TwtK54LfLlcOyECTqy6MvboUwgX12WhfMBH+JnRJlD88TBWhQThl5480oQO4IQO6sJDNkQG8N7lJ/niLF5r9fLG1ymhyGOzd3PFnqMhLDqNT6fqfEgWjE0T/7c/J+0+fiOqh24bUPtNaXtV9obr1VtXmux2kPQm1KWflYzKUDmKtPMOfGHfn+b1dW3nkSLTQ9oXgFi2N//Nz5RMsYzzZSegYlzeXIvPbAZawJEZigXmyGR1HA6K5ZBxqezCufhzJBvLDJDKvrd/W63ux82N274R/Tr5Yr6tYTYXuxN1VmuBwB8JeKI8TM8twDrgXDJKaI0Rv+BFSCG/P0PbPn7YIBUtLDIIE+QYx/mopQynRwJQkTnMjqSsNitUKbEKB3C5H0Ln3q7+b+ovMJt3V6pXDuIoe9MbqZwAn0xIHfonzQhJ0toot+gDcZAXH6prXDEfqpn637IeHoI4IgkcSGvUlaLztKWlFrHC1PDxo5En7+YMX9q1VpOWx3aXL7RYLnUH/FvbvLJmlkn9ECHyi/3Ubohl993SvvzAeTxgm6WW7RJItqQchaM2Fu6v39rkDG+rxa+X5jOjxhZUt6nWEZldbpMKqR4M+6AIb6dyrjDMIn5fg2f+XeWiFXVVqFmcMp+Wb5BZa52jSDWBVkRAa1bq6gw5te6HUO2jz6MDPZBxoRTBSO23qBKnGSM73PJWZoVG8i7InCZJ3vcCGTEP2J4w/JjY+QVKPPkGT20v8kSsTx/ua7djbyyNaKWbUGsnKTGzmBwFohl5I8y8j4E1ppGzSKKe/QWipgxvk8NlGpVpWcoKSWau7ZACbYB1yypVxczem1auMwo/wADE7w+T/7GUQhiDscbyPP/5Dt43+vRfy+0dcCggthM7eeHDpVIfPY27IiV2Qi9wW9fKhgxVCnxWxznYswI58mujwVi6vE1d6j6jQSpI7UcHjYixpnsHyWIBNtynqQh5tgGEXNvXvXXfQS6ei8YsWo4h4mt1H4n0T4SQREFyoRu9rvUoBcjdRSK2Nt6AahrjHoePumnJsaRVMvsJaFJNbzwVRJ8TRin4nSOt6cYPKLK+A985IOFIub4NXT6j676666E5vFFI+YzWCerfoYJ9QSKdQlOuyRLUqGI7TKUFI4wpYgoCzsvFTES2DobEWnLU/W4LmO5OjXob3T3wYAqerSIu7IgtgstMFf9dZd8J1elha0gOo10RoCsLDyxf49UP6Dazm224o32sgIRcxhSREaYgq8scTHXKJEU0qlVzwJZDidyNT5G05YgZ9cgqdjrhSPmQNGLdatvxV48Yi3Ix6KHt3rqnE5nH4qz9vmRdKfO1n2aIcrgVKGIocIW/7QRfFUQI864RZECbvAB264UGCa6jcVp0ST0Opqr4/mb9f4kHbFyCMObq46Y+8Uj1iUiz92O1r4VeWKcvfvUQI8f+LYWiNgv9ODrxRRL8NWjbnIvWcj9Eylsm8aoiHFqubq0IWFJjJzJ3oAaJkXNTlOy2+iI1ULEKtYCYk4UT3C12hiCtYYtNm+EPeqyAhEzOGNngywH63q8RLRlUfYODKfwDtLYOL2UVGABy7GnEwYjSAjVt8FFYhf/SzkRnI5YPeywYS0g5vALtkJcilslI9G03eSPA+ilNhaIGHbG/o6LBCQZTv7T9IIWoXswTDysKbp8gycHMZ+Oa+njniHid80n1fJi/CQRWfyPouOhI4a8plWnYc/3gVgH2huyMe91igBuOdq9zzHo9AG5UMSQM/Z7rGMND7MgRlJ1c2p/mTjxcQaFUDqIZ8WbwYR2i8GPSR1G9RZ8Ctu6M/Bpf7tixFY/+Pq9IOZ0IcR8p/pYmUTeW6PtGyHBhdhTIGLIGfuHKiFkmCiHiKTGajeAm37AjFiC5AKcDc5k73Fq9Qa02MaXtGopjBPlOzlTSOX7u6n7Spv21NfvMe+1yeK2B3fXV7JE/ktLKvccNNs2sI54KW/c1cE2WZ6EiMktthFD1lLsLBCxDGeM4aBvj5fMYh6LaVUklokl1MZFSSWUj8J8lrunlaBNhO4x5k8yuPuwwxbjm62twIoyaN3KzcMZ23dAIRpu7ssbyncb6dpeWorBVUgtLV1vxOn4Pje5tLtdHbR9l4ISwWd7aQnqvX4/3qTPMK/vv3oUjVXu+U6VOWk+HwlMC90tDB6WALvLx+wHedE+ZVuBiBmdsXSMYZtS1XhNWrjyJOpwJcSygEgElrSj7MmilcRFFtS4yEzkx4yifTpi++D73q/HTI0CM4RQeY5FqG0n0qB+veM2PdBmHA5/+5Fqf8rdmdd2I43HYfgj7rGhH/cuRyTBTu2a8dpHZJWaxtJMIOL0+bB0WhKUn6rbKAEvmEsiyHW2EduJbtJRKGJom/JfbPkcrBaKHCLzIMRSAIpPRkkxizivRjJIIcYUfh4+TupN/YUq2qcj9gl8bbvUP21RATAIy/rLM0dsVM2Xm/yC5WeqtrE9S/TY/yr+/E31qvpQNEFv01e0iml0H8akkXZZfS51TL/hyiZbq04gSFp6LQxINB1o6KFYMfvVBFpRxLaxUMRQTvif8TZlimGbklT4eph//xFwyVFSxoDpHC7Vl3+imjHXfFxN4cVUExXtN5Y74GyIbTZuIK0n727D/uP1lUc21x5uxyS0G0ccRaQc3a/6aiVVG/HctyvLimGY+vvxLPwK+bBi27rdlbvX7diC+h11OP7P2tU2RZFd4REW5FWg5EUQrK2BxayJIOCCgSybIFE3IqmyNCuJKaryYSuV3zLj9Mz0pHuYGcDhzQiriBhc3E00uJrdqLvGxEpcq/Ih+ZAyScVUUltlJVWbvufe7r7dfW/37R6vX5Dp6UH68dxzn/Oc57RaIdYPMQwQNRKL4Y2yHANscKiFbNNYaBlrZT1+RVHUlPG7V5DRQPcZZl9RXYrRKiKyDiWM2nkQiJVQZcoZz0HMRoS5w/fuNPRivxcTb8hXEtYwphsR3MY1TvnKnBCzLwQxgBCJM80YF0P06634aZtp9xA83BZralZNAXX3tp5tJe+ii4qKGhvLy5vL9c+RpJHJkNniMzyqXVMWaqAgpn1ZD5dWk+0f9OL74e6V9Gc2VgF6B5iFJCWdTVOOA0pEUdJqvK3PXux+A2TSef8QOw5R7EBQiIVOoAf3Q9wT7jmbLZ4hc8H5ikR0IrwlpHo1GuWnblrDmG6bggtQeTLNAZL9NwuDWC3NikF4qrVfMgEP0/grumjQcZ+jCAVUGaoO3Yp6vRLQa0+firVvNhRbICZ19mugtnatMCNWBWC/lc1enFGzqppN0b9U1A2e6LV02u4FiKX8Q+yYCm27gSH2mtkjcmvai7aI6/UjN6v+JYIJURcD+UraeqjUHXugACWvEhOyf6EftLkQiBVVSlSyj4JKjBEXGhBc9BLTOIIK4zg3aP0cm9JiAGLYNkYRQJJKTYhpgJe2O1i6LbQNTzreCx8hcWVMh7/yk3Q+rSiW/CWeTnebe2Z7lpbl+Fh7oaMyOMTeNf33f3k+4Qkxsgk+dtkE9ZZa4cHOehi7nbsO2Zd89ZFZQZKJn52HjIeCmMShR/EJT49baMOKhVkX9lO5NUrax3j02n4exOCDWL1OwyT5IxDDCZy1kN2BENbEKVK5k8btfW1ID6bFLyOgqdmsoak+C7SY/yhW164ajXKBIBaikrFlr7a0uD6sjz82yWgVejL9M9H5IaskjH2SkzHEPjYgJi9v4Nd+LGIzgCE2MLDTugbC1SN6Uj5mBgvjAGdbIyZ9gPiwIU5SJ3VwIDYAPSrMW3dIMUsU0+DU6swWK5nvHUc7uKdid++ZNiWbpYKZkk5jw4FTIKoOkO4fNnuWgkFshyngv+9VQxLZKC8QotTHYGd15X26UklDTKfNxEyqSZObfektb1RyX8GhAfQQJeG545W8BAiRH9UciKGP23I7b5hRzLGttyIccfrWtQxPGhV6pl1vnUa5mBHJMKOPH4f/adddQHacDg4xsLb4m5hboiEXcxG9ysQb/6n4YGd5mdgs3gJvDWqjTG4QtQ/Qrt8OCDEDatXD9OOSeLdBl243iLNa5m5aFa4dYkOsGf2F10rXijBGRTH7Xo0+upRfX5WkRtHnevaghrI4rjBF+gyI5Y/4hlgf6F57g0OMpi0WPdKneHIe71uPria5jZakoDi7Lj5tS54iJsULyzKl5vl5Ur6KS6LRZ0JeKTrEJNuCb5V29FgfZRPvNkMG/lBeJnmr/iwQa5Vc0Ftij2ItTog1cCkXtx+asd7oy+KmtgjslXnjK5/svmII04JBjKYtPr/kFXlIXxrfA1Gfu3xT2D+WrlQ+mFLNCsLMemaZ4PUHYt6bGGLFkxX2tb+m0X62i0lco8X9BgexO8Y5UrpArAzRqCEXmFgg5uA1Ylx4AuDDPuEBpgGpPDJXOYDS9nyXb4B0w4nyZAEQe8e0snvgqbbIn8fu5cvOWZGkpZbg46PFjI+RgfL0PeLXvyobyuqcIk9hS4KoJGb45F1AIqvJLdLgjKkiZHKo/T0+ILZlVpFY1JwrxAbc9m+cQPp8uq+kQcKDvBLbACq7fAMEbKBSxwqA2Dar2sJDaUF85O6yrfrjmbUbukewn6mUyevEjufmippZvk76MOcW5qkg9r2XCLF+ybXXTTKMCcrJLiuV9o831wlBjFfrMWgQHWIo0bOl7+hbE3z6IIgsbQ8wGPE9odAhgNgB3wBBlonkJBoQYiHKZ0x2jnxnW9h9yCloyis3yYQaH/sket8svm907tIcGbP0YHpO58RE3V3deDHrhVDMCbnk+4SbqmuhTaS2tmo7ims8ICZxKQvCe9Hpvu0sMYYKmdWV7DUG/4F8nwiJuXAotBfTsb45C6i0pwqC2Gum2sKL4E/odtLRtctJprkmeVlZ8DfAObk+/YRUP/XpEfcXiblB9PveBXCfEEO1myr+y4hFGzK5ehzJqHp3uMINYtomzCfw6s0TZZV2YZhRNeAeiOFnwBlkHRJMFAmpJnbhjL+dtIdk/SZje1DwU3sLghjYJX5J0ngvGeFF0qnx0ewS00LgN6Rr7WLE35JnSDPujTUCtvQyMSYWH9wmDLExg5bgMVB0bamxKbxlyH0I2iYCRrF+K8RsSdtnNJbZq4IoLFJoCdV/QE2ATIW7wWenzSc8wJVYPV4QxGiCf27VfaeM6K2Pn06vO0sByctrNg2r+HqPEK6PnmOuf3N2hqR1/3XxRWRBTKC1ED3dWv7LWjCR7OlU+WRrtSkAi8W2Klwgxs/FJqwQsxVJRwHb5S6LVGmhizIuVnAErh/Zbh6ntjzxfZLWAAWGGHhX/5vQ9hcETQLuzmacQYz0O17LrftFmDk5kDSgvL+Se+J3+qRwFNspOTJtMXaqvGKo+jMSZ1r4EBvg3rosRkMsO7A2VgAAE49JREFUttN53hRqJD4GoUkR+q2koXKEeC3cFnfGFzhOp8wet+AQg1K4JKjgl8mZcnN2XnYwFmSPM/uJfCx1BTtV/xpXB248/4SqTn4t9FKjWIe7QwAC0LjL2ztBDiFxeTEX+EquEJtwP4ZQux/uDBFKxlJpnazYg5h+xZfY4hS8W+kqEGL0TukpGpMXLpNRNB8kkvYiOdnaLs0nIwHC2FN60uUHxGzYzwhdDDGBM1eFq1sTUPDuuqEtBLEGHrvPh2+5O8Q6BaNwqA6GL8SPi1wL8x8uoih2BCf8fjrIu5F4Q9GPocEh9nXzTPnA0/VVPU+ohM9zsjXi6b3dD6YCBLFIJH2VGhR+6wWpf/9VqDpJ82Iix3rEfHH9q8e9XVB6LMVEa40SvdTCq01ZIWZP9xtdqVcLFZGn9i+PKIYeUh40Pd2IwcimTwkjoz2SRVNuThYMsd2maGwz5yWvlpf1wW0bixnq2riR7CurchCIGa3haE2RD/m7m31wARCTXI6U6NkDDJpa64c4mfsoTYPalBYuighaaRHWrrMnXig48rboxtiWmeW15c0ebZFcDBeOTkF7b16cfoXsLW2AKjjE8E55m5AGXpUfmczujm6urmXofZLYA/9x6mIk0Lo4pc8Wj/7hBZnp/D/0k7W8dIgddasgGWKwGF9U1k9vaQ69mCTVcIlXGmKO3H7CRXeImpdiulYELDXjaQGS67DBiyGSDPah9FuinBhO+dpfAsSgTvmF07KQQ5PqM72vrc4mZOog8DHplrsQDGLygj479dpzwpL9SUCxHwRiRdZ+Sjt1pQst+DtmBz+KhWK8Qo9V9cqCWBGiRSbZH6mdZE34HUlhib73PxVMYQ1c5PPaG9PKIaHfZx9yrFapsmYBEGtET/KZYe7rqe9a3CRYeDp1XYZRTto+uUEAsjqfjAfEWI6Uke48p3P9On8QEzL2hR5dpn1AjbmJFtNxw7rCdICzQQzVIVmHyt0S5m91iEnOjRL/XMxPbEKMnEmlwIiGlOqNFTygQfcdbieCWBFH4eOo3TxPVzULgFhon+mX+DtvxiGzmDAGhOdm3ruQjCQScd0E7OHKUiTgSq7r+ldCiX0hWP/2D7EeidlbBKmU9qfEjEdl3KTKKEGBpwUlFxpk9od0au8ZpQpIrCiGmzvLmGdRybKHYgd9VfXSf/WB6bRi7Kh9WKUoYDPWh84GcUvnZSEQA+3rd0mXhlcRKR5J5AyC4fYvrs7OL/00k9EH09z1JeOxhbGNmWsUcbHJJiya3/7qd75ZIMQgKDAwBoSFIVqt5pGwQKy1WNiucfomgLEqOiEbLgXP4WKPKKZFTonVklIE1dFmR3k77zE/5BToCVOKvWapKF5+6r0RoCuUIy8JYjQ1duOS54EwSWEs+uT+2kru0vzqqlEgjwfGWGZxiYLYf+yWdbvffucb58j6Fo8XE3TAL5MYA2saJIvauQQe7BCjmG1VA9ldiksGiQ9KuKmipadmf+d2XHwcprvBw2zlzk5oBbedcCZtVhoh3a9cw5hbyl+ErVUUuj+8DebNK+mUWwA8BmxaRDlgyWwBYpGAEHvddBr70JvWUuTk899SWLjz+Mb1aZyhPzz/zwtLyYAIi0dU/biqC/bPndi349XX33x1x75z9lUYxEK4qXvElNn31G/Bk5ywnuK0cGeVMxePwDsbLTSHhqD+8eGaehLMqmiBN6lgj4YsnhYciJEO9DKKtpscg7vZjicHwZUporiwY4ewB1nKOmRkVwq9U1HSvbzqwNlu/UFbjXwQxFJBIQZyiz8b+boXEpIziSh7/epFbnpmXg4IsuTS8ovHUTrXd1mvOiEm+YAYZi60NVhWtTNcPaqrD+udNANqLRlqahhv6NheW0mwM2zP7HCg0tm28rBp5wMynJGKkANiElN/2InteGJlR1s7x5sGyrbwfRrYlAIy5ullBqSuA3h6rmIfeXQQDwZXVbWb5QV1+LR26CQQU7ocUSzedfIVz3WI4atxwkz4H0/LHgjLLM5zEBZ9+OnmnXsL55eTQWKYPD+9ce8RudNfmLj68h8/eqZ/bdc7V5Ui0PQI/78qpgxP9C+rbS1mw4P/Z+/an5u4rjDBBeoBHBNIcENsAlOHhwmvElIeJkBgCI8MkBTagUJnMm2a/Nbpb/mlf0BHD1aPtZ6rh62HLcmWJQMCjMEG88ZQniGYQEl4BkiAUgiBptq9d3VX0kp7l3oa2ZxvGPBI1orZ+83Zc79z7ncyfFGQ5c6QrFQed5VJKuBFY/eILUArXismYVHiaSHftFZcKj3mgn6W80B+R4P3hxaLt2x52tmicR+UOxyoD8dbn/0YdHjRbsHqqKlYLhX73/pguoXxkkSnhpmRRbFk/PM25IXXKjedaRJJ+PlRC/kzpsaoNj+2NbsMRtUMMza7T5NrXF2ZTq4rKz+5hmWzH9ErVRkB6+3S2QMHH5+mIni/MZvYLPHLWSpzhvEPY/Up5ycc95ZkHS0ZMPw44kNW237xsIx9gpjMz1y4YuGcXPWWocSxLPl/2zNc3p5xssOCww3D1JjN3vqpU6aXr5mq8VqsVtHdzSs7j6YCj5jnW4Ks1po15RVl5R96GwzJVMWCV0ODYl1NeWYuRoWy/Am/gm5hivr3Yho8OX4sB8l2cKo1fntzNONqmx/c//ejP929t+7GrfQ3PhL+t9U9MSa3aMnQFclVHDx00Iic5JxWlHxC/nzg7IWLho79ZVHOs4zTXn1B6duG5++3lbJsTmkyBdujH1g6Is9Vy6R2KQzDODQGpsbKWMgrOUrl4z60mEmwSoZBhjFjUiHnRfOv16DLSOZH1FPv4yzjc9XC7+JDkPnCmCnkFOvVfI36yj15jrW5DSrzsFBss5YOLwmlS93c+f16G0r1ckrF/4D+463mnM8Fxpunq2Lc9GQyJleQrjE7HGb+g+UoaJlTe08Hb8vI6wXJDYM1+Zi1COc0zSjm1Vh5PyANvqLcHkRyEkl7yJ07GzM1iQ3PyN83ieOPLt7SZoWzumZ11fAGz04tNZBuMa8gaZR8MhbnqX/qR/bw971XofF6LQ5HMkcXNpCMxspLDlZNmZIuu3xKTY3ZkqSLVyBKkjR8GmaxVuBkfQaawesQWy2mVIgoqyiTYryId5J/eJTJlg/G8Kv2ELetbsl53Dth68LL/DAtVbqdyYJdnKreV0m/2LbuTiWKCYeSVhUkw+bkafoSlN1pPf+d/d/9XflUK2/EU5NMshivt/xX79JZbv7+Z9OnGs1WPix5GQvjmDJjssQOdrLXSifUUiYlkjB2NFcYM0ZsZ9JkKxGbxB4JziXy44RfTRgLeLBX3Vm3zc81HpZl1r5z0ihWmMPkBW//eblK7JtyWqr0ENmGPdvnfvOWbPvAOK9AMppx9dQK/30cxhLyYcwQP4oX+UH6fg+/eqm1ronDu4FdKjJ+RnQh1ra1JoJsYKvHv//AFxJy7T154FLgO7Gj7AcVvbD/d2ySyGMZ0Kv3DPipMTWZX3nX9NDFFks3lXLaGF+cPC9KCmkEe/8qevVAa4vdFHQ14GxM3pZA3iIW+0odbG0waQwao6kpxnlcdaaO8zu6O1p8fo6zfdfalZaKrS3QRRmiz9W2LbjW9e9dFOs33WGZ2mMXExbuMlrE5pAMx+yulrQKdYph69GrJz11fLN1oHU3Pm3LUlOMdZ3Cggkrfhlr3FLnizZHo9FQU8QQte1PhbTHhRzEhNZq2W6J1/TZp3N7Acabe+5aqyRhbFvYkLWhNUUb5Ys7GzDvYkJLdZIuiA3bOBUUc3alj75h+H+MJrvdzrK1AV/YsC/FMKTJVhayMiHnSzZk008xK6nAoCPdr9odLntWq43zAl7k41LVfZ249BG/HdElGkQdtHlm72YbsqDIFwnZDUkwDP938tNGe9DU5A4nJILGbV1BBzGcjen1aYY+rwzXA8PEKhIOY5szD0oaEzZxnTcSqeIyWfoTznoU+Fj/DmwyRk+xWty43xyqZVnWLgQvlg1E6mJcvPnsBUnifwV989ICvo/9xQrj4EFzRrw8cs6SFbjmuGjY804xFMZWio/KFmO6XIG9DLV30CJfv5gmKByJN6COamOkdZuSPX82xbCXelurzelvbPZFG2MuzuNx+06cPifV9S9iblcX9o2cKY6ywVOMEMVG9AMgbewBFsekLulGg0fs5Lqf/JUnP7yUIVkdjYuMtHBYGVNBMU0wjDsstu+81HliR21HW+eh9p0XMr7k05U5m8UKDSMH69NsQfUrioBfPEqkIleH25KKYwZuBxHEnmYVE895OcQwRmNyRUSVXgXFvNwxxarRp5+NERlW3Btu5qg3Zg4aMnTRitJBb7/8AnALA1Uqr+M1bXEbjEnSMBqjxd1BBLFPMtf+QqezETfvGOtdqV6ybfTpvqbFrVj7/izVVK2bByvVeyE0XOjETWKHpyVo1BiDEU+AyBWPMgJYe8DjasFbA1ODc0vqnQPUFCPifk5cHq0DhvWhjF8nPgnPhl1NDQl/q1g24p19peHr8P6Qh/NZTWJfdF24jbzb5aGmmN1nyMev9WnticWwSr0aH6fVHLW72vxxV/eXEk3qKU7Ldx0+H4t7YnWmYJJgvIRlCiScri7ts1DMII6+ycb2i3eupOm8c2GNejsWpHVO8ItMfryeGjWiPfP99+GtbEdHLWsymewsG4z4OMnxIcEfiqOmGIsNMW7c/Pqf99dfvXr12oYN6+/d2Xglq3l/EqxQX3lUfi0TUe6kBbjDHf5w3N3o84VC0ZjT5om0Z/z6aRUUc7ZLakO5MQuWp+/sKkWPiyyG6daTVw52nWr71ppIdHde2ikVMu7h3jGWmmJxVDn4MS/BqmBx+ggW4xW9kc6wTRm9YbmxB/3K507qMnggfFDp7OSsUbAyfQdrZZql75PFvpmfYA90usfI6tBNTTFReZVn1+hKUMb7GirFxX2K6pC37qav+eU8DOPnxKNd5xl6ionKq5DQF62uLhkzWqebWFK9YO0kEMH68rYyAxMnkQ6ei/L8OiZ4s+o+Ql3WtBRjNE1o8OQN/sPwQHw+UCVDsQFY+8eNFjeyCHZfj9/biDpYaSlmEJVXoY/iFbj7zwfmZxJsbjbzvvrm7rprx7ZrtZtvrHv4jeQNlVHMwDaeJ8c+4N4/pw/LVZlpWj78S10ullJerwPFni+8OEFWkSqqzkOuSiHOPVani6WU19sqLNABfeRx+dvKCbMmZY3SKFpdIkuw6lH9lgoWBOrUfUMt7tl+DDVIgJR+Va+n8atEKB+uInMi6GuUJtvJlGaxAO4sQIoBry5etmxZ1ar5YoeNIGxcQf1i1J0W4sh5qBIBlDGJ6P/0Xa9b/MIHrhX60SJAwVBMp+p4CGPc2kTmzL8J9xCQF4vVUyxlaHEPeloBylhKKEZ7VBdkMYAaSGzKdodpKcZ9Tixc4RYCFKQMQrF/eOik15TbAG93PhFuISA/3iQU2+cJ0lkcGz27UppFNdxCQH78glDsZJzSiTMi6RZbDbcQkB8vEood9FBSLIHO6W5QMQcc8PyimFDsHEc1QYQxhSKkWwxkMYASCMX2OhvoZLEYOqd7FxoSAdQUQ57VbiudZuE+ler6B80CQEcx5GDtaqHULJDlnR4oBqCmGDIYjiUoD1GSVp4xcAMBVBRDRou+Oqp83yrRLCbADQQoYTQxKGvZamToT7hdg24xABVKyLiu7qhduYLE2H21ZKjSfLiBACUIh0fuIJv0GEWR0hDwd5LZg9DKA1CEcAoOmZAdcdFQTDx+tBE2lAAqLOOZ8kTFKbegpM8CKAZQhtCT+JUKV/QGjpwNeR3uH0ARH5MK0pe2AEXjfl2IjB+shPsHUIRkyPh2p3IFiQnEThA/C3ByBVBAUkFqTGgUhbEgd5pUKMFMDEBLMaS9Gn12Rkl4jUhSMcj2ATSYyHMFjRg54lZqrWbs0VoypxcqlAAaVBNvnn1hxXw/YEPPyYeQ7QNosVpiax1TKoSb6mKSSabgGgygwVKJo/ohp0IYM8WRtL8ZUjEANYols3m3OxN5my1MvmbJ2IgSuHkA+i0lflKedQbzMSzRupv0ioEqBqAEmn2LB6O6t+Y+6WZqaW0n87vgOQmgBbJOn/tHNDEwbDDmTPVbT2mJYgEztAC0QJ4DE/+K6NPGWeQJFnE7D2DD/v/o4HwbQH0yNvPP4oRxS1ocY4TxqJFYfL846fIuBDGAOiCb4ff/jhn0rS0RMGoMCIzGaGcdIc7ZfVAcOrJOB5kYQB2QdYpuwV8wh07F3U0BlmXtdpatrW+KeWxb28ms3ovot8HMAqACyJX/ZtXfMIv2HnWFOVdjc6PLGQ83t3V9IR2PihgGp9sAzxDG/tveHbMkEMdxHEbBoeUCB4cWXVzuHQQJt4iTmEvuQvQCeh+9m5YCsaHRVXASgyDaAomgRQRTTvPk7pzkeV7Cj+9w8If7rD/Hls+VL6+D58FoPJzstgX9uY7UVtHUz9Zdch51HVJ1MlIKVxsL7pP7uxZGRqW/8bRvy3sG9r1J27gX6VU2caTf3Xk9vs0f/s3EQZaNxQu8T9NOLAddcCsyqsYKvP2P2ddPp/++1ReUPCKH7qH6bmhg5HMWJA3sxrs3+Z3vqTyH3QvH4Uiata15VeuRq3Bcxah3WQuCq0b9Oio5BwAAAAAAAAAAAAAAAAAAAAAAAAAAAACcvgXB8fE1DepJnwAAAABJRU5ErkJggg==;movable=1;resizable=1;rotatable=1;deletable=1;editable=1;locked=0;connectable=1;" parent="WIyWlLk6GJQsqaUBKTNV-1" vertex="1">
          <mxGeometry x="615" y="222.32999999999998" width="130" height="59.67" as="geometry" />
        </mxCell>
      </root>
    </mxGraphModel>
  </diagram>
</mxfile>
